{
.appVersion = "3146";
classes = (
{
code = "";
name = xxxx;
}
);
copyright = "Copyright 2022 The Hubot Sans Project Authors (https://github.com/github/mona-sans), with Reserved Font Name \"Mona\"";
customParameters = (
{
name = "Use Typo Metrics";
value = 1;
},
{
name = fsType;
value = (
);
},
{
name = "Variable Font Origin";
value = "B743CB11-DC16-45F2-BA04-3635CB00F7DA";
},
{
name = licenseURL;
value = "https://scripts.sil.org/OFL";
},
{
name = license;
value = "This Font Software is licensed under the SIL Open Font License, Version 1.1. This license is available with a FAQ at: https://scripts.sil.org/OFL";
},
{
name = Axes;
value = (
{
Name = Slant;
Tag = slnt;
},
{
Name = Width;
Tag = wdth;
},
{
Name = Weight;
Tag = wght;
}
);
}
);
date = "2017-05-31 15:56:58 +0000";
designer = "Deni Anggara";
designerURL = www.degarism.com;
familyName = "Hubot Sans";
featurePrefixes = (
{
automatic = 1;
code = "languagesystem DFLT dflt;\012\012languagesystem latn dflt;\012languagesystem latn AZE;\012languagesystem latn CRT;\012languagesystem latn KAZ;\012languagesystem latn TAT;\012languagesystem latn TRK;\012languagesystem latn ROM;\012languagesystem latn MOL;\012languagesystem latn NLD;\012";
name = Languagesystems;
}
);
features = (
{
automatic = 1;
code = "feature locl;\012feature subs;\012feature sinf;\012feature sups;\012feature numr;\012feature dnom;\012feature frac;\012feature ordn;\012feature pnum;\012feature tnum;\012feature case;\012feature salt;\012feature ss01;\012feature ss04;\012";
name = aalt;
},
{
automatic = 1;

glyphs = (
{
glyphname = A;
lastChange = "2022-06-06 07:15:16 +0000";
layers = (
{
anchors = (
{
name = bottom;
position = "{197, 0}";
},
{
name = ogonek;
position = "{354, 10}";
},
{
name = top;
position = "{197, 729}";
}
);
layerId = "6932EABA-00D8-4526-96D6-87ADD7AC589E";
paths = (
{
closed = 1;
nodes = (
"44 0 LINE",
"84 183 LINE",
"308 183 LINE",
"348 0 LINE",
"380 0 LINE",
"216 729 LINE",
"176 729 LINE",
"12 0 LINE"
);
},
{
closed = 1;
nodes = (
"165 556 LINE",
"194 694 LINE",
"198 694 LINE",
"227 556 LINE",
"302 211 LINE",
"90 211 LINE"
);
}
);
width = 392;
},
{
anchors = (
{
name = bottom;
position = "{261, 0}";
},
{
name = ogonek;
position = "{427, 10}";
},
{
name = top;
position = "{261, 729}";
}
);
layerId = "E787E54A-EE3E-475A-BF02-8501A6DA5144";
paths = (
{
closed = 1;
nodes = (
"192 0 LINE",
"203 117 LINE",
"319 117 LINE",
"330 0 LINE",
"508 0 LINE",
"388 729 LINE",
"134 729 LINE",
"14 0 LINE"
);
},
{
closed = 1;
nodes = (
"243 424 LINE",
"256 570 LINE",
"266 570 LINE",
"279 424 LINE",
"300 249 LINE",
"222 249 LINE"
);
}
);
width = 522;
},
{
anchors = (
{
name = bottom;
position = "{313, 0}";
},
{
name = ogonek;
position = "{590, 10}";
},
{
name = top;
position = "{313, 729}";
}
);
layerId = "B743CB11-DC16-45F2-BA04-3635CB00F7DA";
paths = (
{
closed = 1;
nodes = (
"49 0 LINE",
"129 209 LINE",
"499 209 LINE",
"578 0 LINE",
"618 0 LINE",
"341 729 LINE",
"287 729 LINE",
"9 0 LINE"
);
},
{
closed = 1;
nodes = (
"244 515 LINE",
"311 691 LINE",
"316 691 LINE",
"382 517 LINE",
"487 242 LINE",
"140 242 LINE"
);
}
);
width = 626;
},
{
anchors = (
{
name = bottom;
position = "{219, 0}";
},
{
name = ogonek;
position = "{391, 10}";
},
{
name = top;
position = "{335, 729}";
}
);
layerId = "3257632A-050A-40C2-B21A-C728868BC46F";
paths = (
{
closed = 1;
nodes = (
"155 0 LINE",
"187 117 LINE",
"298 117 LINE",
"293 0 LINE",
"472 0 LINE",
"453 729 LINE",
"216 729 LINE",
"-34 0 LINE"
);
},
{
closed = 1;
nodes = (
"289 488 LINE",
"307 564 LINE",
"317 564 LINE",
"313 488 LINE",
"303 249 LINE",
"223 249 LINE"
);
}
);
width = 534;
},
{
anchors = (
{
name = bottom;
position = "{136, 0}";
},
{
name = ogonek;
position = "{285, 10}";
},
{
name = top;
position = "{262, 729}";
}
);
layerId = "84BE75FC-12C8-47E9-B302-5F6D56903923";
paths = (
{
closed = 1;
nodes = (
"-2 0 LINE",
"66 183 LINE",
"269 183 LINE",
"272 0 LINE",
"302 0 LINE",
"284 729 LINE",
"240 729 LINE",
"-33 0 LINE"
);
},
{
closed = 1;
nodes = (
"240 654 LINE",
"255 695 LINE",
"259 695 LINE",
"260 654 LINE",
"268 211 LINE",
"76 211 LINE"
);
}
);
width = 359;
},
{
anchors = (
{
name = bottom;
position = "{271, 0}";
},
{
name = ogonek;
position = "{552, 10}";
},
{
name = top;
position = "{378, 729}";
}
);
guideLines = (
{
position = "{129, 209}";
},
{
position = "{140, 242}";
}
);
layerId = "33C7CA81-8DED-4513-9072-CA0E40765DD9";
paths = (
{
closed = 1;
nodes = (
"6 0 LINE",
"118 209 LINE",
"491 209 LINE",
"540 0 LINE",
"579 0 LINE",
"406 729 LINE",
"349 729 LINE",
"-36 0 LINE"
);
},
{
closed = 1;
nodes = (
"340 634 LINE",
"370 695 LINE",
"377 695 LINE",
"390 635 LINE",
"482 242 LINE",
"136 242 LINE"
);
}
);
width = 632;
},
{
anchors = (
{
name = bottom;
position = "{327, 0}";
},
{
name = ogonek;
position = "{657, 10}";
},
{
name = top;
position = "{456, 729}";
}
);
layerId = "46C13DED-2BAB-471A-8D19-A1FA49A5501E";
paths = (
{
closed = 1;
nodes = (
"16 0 LINE",
"147 210 LINE",
"586 210 LINE",
"643 0 LINE",
"684 0 LINE",
"487 729 LINE",
"424 729 LINE",
"-30 0 LINE"
);
},
{
closed = 1;
nodes = (
"421 652 LINE",
"448 695 LINE",
"456 695 LINE",
"467 652 LINE",
"578 244 LINE",
"168 244 LINE"
);
}
);
width = 744;
},
{
anchors = (
{
name = bottom;
position = "{371, 0}";
},
{
name = ogonek;
position = "{701, 10}";
},
{
name = top;
position = "{371, 729}";
}
);
layerId = "C1814757-B5F7-4D49-B715-04BFD84ECCF6";
paths = (
{
closed = 1;
nodes = (
"57 0 LINE",
"153 213 LINE",
"590 213 LINE",
"684 0 LINE",
"727 0 LINE",
"398 729 LINE",
"343 729 LINE",
"15 0 LINE"
);
},
{
closed = 1;
nodes = (
"338 630 LINE",
"368 693 LINE",
"374 693 LINE",
"404 630 LINE",
"575 246 LINE",
"167 246 LINE"
);
}
);
width = 742;
},
{
anchors = (
{
name = bottom;
position = "{379, 0}";
},
{
name = ogonek;
position = "{665, 10}";
},
{
name = top;
position = "{379, 729}";
}
);
layerId = "8B1B4E65-9831-4464-9A92-CA98D2219836";
paths = (
{
closed = 1;
nodes = (
"203 0 LINE",
"239 121 LINE",
"512 121 LINE",
"548 0 LINE",
"759 0 LINE",
"526 729 LINE",
"230 729 LINE",
"-2 0 LINE"
);
},
{
closed = 1;
nodes = (
"347 478 LINE",
"372 566 LINE",
"379 566 LINE",
"404 478 LINE",
"463 282 LINE",
"288 282 LINE"
);
}
);
width = 757;
},
{
anchors = (
{
name = bottom;
position = "{321, 0}";
},
{
name = ogonek;
position = "{601, 10}";
},
{
name = top;
position = "{440, 729}";
}
);
layerId = "2359B287-0F82-447F-8C68-59A72835D733";
paths = (
{
closed = 1;
nodes = (
"169 0 LINE",
"224 121 LINE",
"467 121 LINE",
"481 0 LINE",
"691 0 LINE",
"577 729 LINE",
"302 729 LINE",
"-50 0 LINE"
);
},
{
closed = 1;
nodes = (
"376 459 LINE",
"407 549 LINE",
"418 549 LINE",
"425 457 LINE",
"445 282 LINE",
"297 282 LINE"
);
}
);
width = 737;
},
{
anchors = (
{
name = bottom;
position = "{450, 0}";
},
{
name = ogonek;
position = "{814, 10}";
},
{
name = top;
position = "{451, 729}";
}
);
layerId = "46DCD09A-F85A-41B9-8FAA-640012B7D4F4";
paths = (
{
closed = 1;
nodes = (
"218 0 LINE",
"269 124 LINE",
"624 124 LINE",
"673 0 LINE",
"915 0 LINE",
"619 729 LINE",
"283 729 LINE",
"-15 0 LINE"
);
},
{
closed = 1;
nodes = (
"398 442 LINE",
"442 562 LINE",
"450 562 LINE",
"494 443 LINE",
"560 287 LINE",
"332 287 LINE"
);
}
);
width = 902;
},
{
anchors = (
{
name = bottom;
position = "{372, 0}";
},
{
name = ogonek;
position = "{695, 10}";
},
{
name = top;
position = "{484, 729}";
}
);
layerId = "0D69E86C-407B-4861-9815-978EE2313DB2";
paths = (
{
closed = 1;
nodes = (
"184 0 LINE",
"247 124 LINE",
"550 124 LINE",
"577 0 LINE",
"807 0 LINE",
"631 729 LINE",
"337 729 LINE",
"-64 0 LINE"
);
},
{
closed = 1;
nodes = (
"416 458 LINE",
"452 534 LINE",
"461 534 LINE",
"478 453 LINE",
"514 285 LINE",
"330 285 LINE"
);
}
);
width = 842;
}
);
leftKerningGroup = A;
rightKerningGroup = A;
unicode = 0041;
},
{
glyphname = AE;
lastChange = "2022-06-05 15:23:09 +0000";
layers = (
{
layerId = "6932EABA-00D8-4526-96D6-87ADD7AC589E";
paths = (
{
closed = 1;
nodes = (
"44 0 LINE",
"84 183 LINE",
"308 183 LINE",
"348 0 LINE",
"510 0 LINE",
"510 28 LINE",
"374 28 LINE",
"299 362 LINE",
"488 362 LINE",
"488 390 LINE",
"292 390 LINE",
"222 701 LINE",
"505 701 LINE",
"505 729 LINE",
"176 729 LINE",
"12 0 LINE"
);
},
{
closed = 1;
nodes = (
"165 556 LINE",
"194 694 LINE",
"198 694 LINE",
"227 556 LINE",
"302 211 LINE",
"90 211 LINE"
);
}
);
width = 558;
},
{
layerId = "E787E54A-EE3E-475A-BF02-8501A6DA5144";
paths = (
{
closed = 1;
nodes = (
"192 0 LINE",
"203 117 LINE",
"319 117 LINE",
"330 0 LINE",
"645 0 LINE",
"645 146 LINE",
"484 146 LINE",
"459 300 LINE",
"601 300 LINE",
"601 442 LINE",
"435 442 LINE",
"412 583 LINE",
"639 583 LINE",
"639 729 LINE",
"134 729 LINE",
"14 0 LINE"
);
},
{
closed = 1;
nodes = (
"243 424 LINE",
"256 570 LINE",
"266 570 LINE",
"279 424 LINE",
"300 249 LINE",
"222 249 LINE"
);
}
);
width = 667;
},
{
layerId = "B743CB11-DC16-45F2-BA04-3635CB00F7DA";
paths = (
{
closed = 1;
nodes = (
"49 0 LINE",
"129 209 LINE",
"499 209 LINE",
"578 0 LINE",
"899 0 LINE",
"899 37 LINE",
"604 37 LINE",
"482 358 LINE",
"852 358 LINE",
"852 393 LINE",
"469 393 LINE",
"355 692 LINE",
"899 692 LINE",
"899 729 LINE",
"287 729 LINE",
"9 0 LINE"
);
},
{
closed = 1;
nodes = (
"245 519 LINE",
"311 691 LINE",
"316 691 LINE",
"382 517 LINE",
"487 242 LINE",
"140 242 LINE"
);
}
);
width = 969;
},
{
layerId = "84BE75FC-12C8-47E9-B302-5F6D56903923";
paths = (
{
closed = 1;
nodes = (
"-2 0 LINE",
"66 183 LINE",
"269 183 LINE",
"272 0 LINE",
"434 0 LINE",
"439 28 LINE",
"301 28 LINE",
"293 362 LINE",
"476 362 LINE",
"480 390 LINE",
"292 390 LINE",
"285 701 LINE",
"552 701 LINE",
"557 729 LINE",
"240 729 LINE",
"-33 0 LINE"
);
},
{
closed = 1;
nodes = (
"240 654 LINE",
"255 695 LINE",
"259 695 LINE",
"260 654 LINE",
"268 211 LINE",
"76 211 LINE"
);
}
);
width = 527;
},
{
layerId = "3257632A-050A-40C2-B21A-C728868BC46F";
paths = (
{
closed = 1;
nodes = (
"155 0 LINE",
"187 117 LINE",
"298 117 LINE",
"293 0 LINE",
"608 0 LINE",
"633 146 LINE",
"468 146 LINE",
"464 300 LINE",
"617 300 LINE",
"642 442 LINE",
"460 442 LINE",
"457 583 LINE",
"705 583 LINE",
"730 729 LINE",
"216 729 LINE",
"-34 0 LINE"
);
},
{
closed = 1;
nodes = (
"289 488 LINE",
"307 564 LINE",
"317 564 LINE",
"313 488 LINE",
"303 249 LINE",
"223 249 LINE"
);
}
);
width = 678;
},
{
layerId = "33C7CA81-8DED-4513-9072-CA0E40765DD9";
paths = (
{
closed = 1;
nodes = (
"6 0 LINE",
"115 204 LINE",
"492 204 LINE",
"540 0 LINE",
"851 0 LINE",
"857 37 LINE",
"570 37 LINE",
"494 358 LINE",
"867 358 LINE",
"873 393 LINE",
"486 393 LINE",
"415 692 LINE",
"973 692 LINE",
"979 729 LINE",
"349 729 LINE",
"-36 0 LINE"
);
},
{
closed = 1;
nodes = (
"340 634 LINE",
"370 695 LINE",
"377 695 LINE",
"390 635 LINE",
"484 236 LINE",
"132 236 LINE"
);
}
);
width = 966;
},
{
layerId = "46C13DED-2BAB-471A-8D19-A1FA49A5501E";
paths = (
{
closed = 1;
nodes = (
"16 0 LINE",
"144 210 LINE",
"569 210 LINE",
"623 0 LINE",
"990 0 LINE",
"996 38 LINE",
"655 38 LINE",
"572 358 LINE",
"999 358 LINE",
"1005 395 LINE",
"563 395 LINE",
"487 691 LINE",
"1113 691 LINE",
"1119 729 LINE",
"414 729 LINE",
"-30 0 LINE"
);
},
{
closed = 1;
nodes = (
"412 652 LINE",
"438 695 LINE",
"446 695 LINE",
"456 652 LINE",
"561 244 LINE",
"165 244 LINE"
);
}
);
width = 1089;
},
{
layerId = "C1814757-B5F7-4D49-B715-04BFD84ECCF6";
paths = (
{
closed = 1;
nodes = (
"57 0 LINE",
"153 213 LINE",
"590 213 LINE",
"684 0 LINE",
"1079 0 LINE",
"1079 39 LINE",
"709 39 LINE",
"565 358 LINE",
"1021 358 LINE",
"1021 396 LINE",
"548 396 LINE",
"415 690 LINE",
"1079 690 LINE",
"1079 729 LINE",
"343 729 LINE",
"15 0 LINE"
);
},
{
closed = 1;
nodes = (
"338 631 LINE",
"368 693 LINE",
"374 693 LINE",
"404 630 LINE",
"575 246 LINE",
"167 246 LINE"
);
}
);
width = 1131;
},
{
layerId = "8B1B4E65-9831-4464-9A92-CA98D2219836";
paths = (
{
closed = 1;
nodes = (
"203 0 LINE",
"241 121 LINE",
"509 121 LINE",
"548 0 LINE",
"962 0 LINE",
"962 180 LINE",
"702 180 LINE",
"668 284 LINE",
"908 284 LINE",
"908 452 LINE",
"614 452 LINE",
"584 549 LINE",
"962 549 LINE",
"962 729 LINE",
"230 729 LINE",
"-2 0 LINE"
);
},
{
closed = 1;
nodes = (
"328 400 LINE",
"372 561 LINE",
"379 561 LINE",
"422 403 LINE",
"457 282 LINE",
"294 282 LINE"
);
}
);
width = 1007;
},
{
layerId = "2359B287-0F82-447F-8C68-59A72835D733";
paths = (
{
closed = 1;
nodes = (
"169 0 LINE",
"224 122 LINE",
"467 122 LINE",
"481 0 LINE",
"895 0 LINE",
"926 180 LINE",
"662 180 LINE",
"647 284 LINE",
"892 284 LINE",
"921 452 LINE",
"620 452 LINE",
"607 549 LINE",
"991 549 LINE",
"1023 729 LINE",
"302 729 LINE",
"-50 0 LINE"
);
},
{
closed = 1;
nodes = (
"376 459 LINE",
"407 549 LINE",
"418 549 LINE",
"425 457 LINE",
"445 283 LINE",
"297 283 LINE"
);
}
);
width = 988;
},
{
layerId = "46DCD09A-F85A-41B9-8FAA-640012B7D4F4";
paths = (
{
closed = 1;
nodes = (
"218 0 LINE",
"266 124 LINE",
"605 124 LINE",
"651 0 LINE",
"1096 0 LINE",
"1096 184 LINE",
"822 184 LINE",
"783 282 LINE",
"1034 282 LINE",
"1034 452 LINE",
"716 452 LINE",
"680 545 LINE",
"1097 545 LINE",
"1097 729 LINE",
"272 729 LINE",
"-15 0 LINE"
);
},
{
closed = 1;
nodes = (
"387 442 LINE",
"431 562 LINE",
"439 562 LINE",
"483 443 LINE",
"542 287 LINE",
"328 287 LINE"
);
}
);
width = 1134;
},
{
layerId = "0D69E86C-407B-4861-9815-978EE2313DB2";
paths = (
{
closed = 1;
nodes = (
"184 0 LINE",
"246 124 LINE",
"530 124 LINE",
"555 0 LINE",
"965 0 LINE",
"997 181 LINE",
"746 181 LINE",
"723 283 LINE",
"954 283 LINE",
"984 453 LINE",
"685 453 LINE",
"664 548 LINE",
"1064 548 LINE",
"1094 729 LINE",
"327 729 LINE",
"-64 0 LINE"
);
},
{
closed = 1;
nodes = (
"410 454 LINE",
"442 532 LINE",
"451 532 LINE",
"466 453 LINE",
"498 285 LINE",
"328 285 LINE"
);
}
);
width = 1051;
}
);
leftKerningGroup = A;
leftMetricsKey = A;
rightKerningGroup = E;
rightMetricsKey = E;
unicode = 00C6;
},
{
glyphname = B;
lastChange = "2022-06-06 09:58:13 +0000";
layers = (
{
anchors = (
{
name = bottom;
position = "{200, 0}";
},
{
name = top;
position = "{200, 729}";
}
);
layerId = "6932EABA-00D8-4526-96D6-87ADD7AC589E";
paths = (
{
closed = 1;
nodes = (
"194 0 LINE SMOOTH",
"296 0 OFFCURVE",
"355 54 OFFCURVE",
"355 194 CURVE SMOOTH",
"355 307 OFFCURVE",
"326 362 OFFCURVE",
"253 374 CURVE",
"253 378 LINE",
"321 392 OFFCURVE",
"349 449 OFFCURVE",
"349 554 CURVE SMOOTH",
"349 683 OFFCURVE",
"291 729 OFFCURVE",
"188 729 CURVE SMOOTH",
"88 729 LINE",
"88 0 LINE"
);
},
{
closed = 1;
nodes = (
"118 718 LINE",
"101 701 LINE",
"188 701 LINE SMOOTH",
"282 701 OFFCURVE",
"318 654 OFFCURVE",
"318 584 CURVE SMOOTH",
"318 561 OFFCURVE",
"318 538 OFFCURVE",
"318 515 CURVE SMOOTH",
"318 425 OFFCURVE",
"272 390 OFFCURVE",
"205 390 CURVE SMOOTH",
"111 390 LINE",
"111 362 LINE",
"205 362 LINE SMOOTH",
"276 362 OFFCURVE",
"324 327 OFFCURVE",
"324 237 CURVE SMOOTH",
"324 214 OFFCURVE",
"324 191 OFFCURVE",
"324 168 CURVE SMOOTH",
"324 84 OFFCURVE",
"288 28 OFFCURVE",
"194 28 CURVE SMOOTH",
"101 28 LINE",
"118 11 LINE"
);
}
);
width = 395;
},
{
anchors = (
{
name = bottom;
position = "{256, 0}";
},
{
name = top;
position = "{256, 729}";
}
);
background = {
paths = (
{
closed = 1;
nodes = (
"267 0 LINE SMOOTH",
"406 0 OFFCURVE",
"484 65 OFFCURVE",
"484 204 CURVE SMOOTH",
"484 295 OFFCURVE",
"441 362 OFFCURVE",
"365 374 CURVE",
"365 382 LINE",
"436 399 OFFCURVE",
"469 456 OFFCURVE",
"469 539 CURVE SMOOTH",
"469 653 OFFCURVE",
"406 729 OFFCURVE",
"273 729 CURVE SMOOTH",
"35 729 LINE",
"35 0 LINE"
);
},
{
closed = 1;
nodes = (
"213 308 LINE",
"246 308 LINE SMOOTH",
"284 308 OFFCURVE",
"309 292 OFFCURVE",
"309 242 CURVE SMOOTH",
"309 228 OFFCURVE",
"309 208 OFFCURVE",
"309 194 CURVE SMOOTH",
"309 157 OFFCURVE",
"294 133 OFFCURVE",
"246 133 CURVE SMOOTH",
"213 133 LINE"
);
},
{
closed = 1;
nodes = (
"213 596 LINE",
"248 596 LINE SMOOTH",
"279 596 OFFCURVE",
"299 580 OFFCURVE",
"299 539 CURVE SMOOTH",
"299 525 OFFCURVE",
"299 511 OFFCURVE",
"299 497 CURVE SMOOTH",
"299 461 OFFCURVE",
"285 437 OFFCURVE",
"248 437 CURVE SMOOTH",
"213 437 LINE"
);
}
);
};
layerId = "E787E54A-EE3E-475A-BF02-8501A6DA5144";
paths = (
{
closed = 1;
nodes = (
"267 0 LINE SMOOTH",
"406 0 OFFCURVE",
"484 65 OFFCURVE",
"484 204 CURVE SMOOTH",
"484 297 OFFCURVE",
"444 364 OFFCURVE",
"364 376 CURVE",
"364 382 LINE",
"439 399 OFFCURVE",
"469 456 OFFCURVE",
"469 539 CURVE SMOOTH",
"469 653 OFFCURVE",
"406 729 OFFCURVE",
"273 729 CURVE SMOOTH",
"35 729 LINE",
"35 0 LINE"
);
},
{
closed = 1;
nodes = (
"213 628 LINE",
"181 596 LINE",
"248 596 LINE SMOOTH",
"279 596 OFFCURVE",
"299 580 OFFCURVE",
"299 539 CURVE SMOOTH",
"299 525 OFFCURVE",
"299 511 OFFCURVE",
"299 497 CURVE SMOOTH",
"299 461 OFFCURVE",
"285 437 OFFCURVE",
"248 437 CURVE SMOOTH",
"197 437 LINE",
"197 308 LINE",
"246 308 LINE SMOOTH",
"284 308 OFFCURVE",
"309 292 OFFCURVE",
"309 242 CURVE SMOOTH",
"309 228 OFFCURVE",
"309 208 OFFCURVE",
"309 194 CURVE SMOOTH",
"309 157 OFFCURVE",
"294 133 OFFCURVE",
"246 133 CURVE SMOOTH",
"181 133 LINE",
"213 101 LINE"
);
}
);
width = 503;
},
{
anchors = (
{
name = bottom;
position = "{389, 0}";
},
{
name = top;
position = "{389, 729}";
}
);
layerId = "B743CB11-DC16-45F2-BA04-3635CB00F7DA";
paths = (
{
closed = 1;
nodes = (
"450 0 LINE SMOOTH",
"584 0 OFFCURVE",
"668 69 OFFCURVE",
"668 197 CURVE SMOOTH",
"668 294 OFFCURVE",
"614 355 OFFCURVE",
"528 371 CURVE",
"528 377 LINE",
"610 401 OFFCURVE",
"651 463 OFFCURVE",
"651 547 CURVE SMOOTH",
"651 667 OFFCURVE",
"577 729 OFFCURVE",
"455 729 CURVE SMOOTH",
"134 729 LINE",
"134 0 LINE"
);
},
{
closed = 1;
nodes = (
"173 721 LINE",
"146 694 LINE",
"448 694 LINE SMOOTH",
"544 694 OFFCURVE",
"609 651 OFFCURVE",
"609 567 CURVE SMOOTH",
"609 551 OFFCURVE",
"609 536 OFFCURVE",
"609 520 CURVE SMOOTH",
"609 442 OFFCURVE",
"549 390 OFFCURVE",
"449 390 CURVE SMOOTH",
"165 390 LINE",
"165 356 LINE",
"452 356 LINE SMOOTH",
"556 356 OFFCURVE",
"625 309 OFFCURVE",
"625 222 CURVE SMOOTH",
"625 208 OFFCURVE",
"625 194 OFFCURVE",
"625 180 CURVE SMOOTH",
"625 89 OFFCURVE",
"559 35 OFFCURVE",
"451 35 CURVE SMOOTH",
"146 35 LINE",
"173 8 LINE"
);
}
);
width = 732;
},
{
anchors = (
{
name = bottom;
position = "{209, 0}";
},
{
name = top;
position = "{338, 729}";
}
);
background = {
paths = (
{
closed = 1;
nodes = (
"265 596 LINE SMOOTH",
"296 596 OFFCURVE",
"316 580 OFFCURVE",
"316 539 CURVE SMOOTH",
"316 525 OFFCURVE",
"316 511 OFFCURVE",
"316 497 CURVE SMOOTH",
"316 461 OFFCURVE",
"302 437 OFFCURVE",
"265 437 CURVE SMOOTH",
"237 437 LINE",
"237 308 LINE",
"263 308 LINE SMOOTH",
"301 308 OFFCURVE",
"326 292 OFFCURVE",
"326 242 CURVE SMOOTH",
"326 228 OFFCURVE",
"326 208 OFFCURVE",
"326 194 CURVE SMOOTH",
"326 157 OFFCURVE",
"311 133 OFFCURVE",
"263 133 CURVE SMOOTH",
"237 133 LINE",
"237 0 LINE",
"284 0 LINE SMOOTH",
"423 0 OFFCURVE",
"501 65 OFFCURVE",
"501 204 CURVE SMOOTH",
"501 297 OFFCURVE",
"461 364 OFFCURVE",
"381 376 CURVE",
"381 382 LINE",
"456 399 OFFCURVE",
"486 456 OFFCURVE",
"486 539 CURVE SMOOTH",
"486 653 OFFCURVE",
"423 729 OFFCURVE",
"290 729 CURVE SMOOTH",
"237 729 LINE",
"237 596 LINE"
);
},
{
closed = 1;
nodes = (
"52 729 LINE",
"52 0 LINE",
"237 0 LINE",
"237 133 LINE",
"230 133 LINE",
"230 308 LINE",
"237 308 LINE",
"237 437 LINE",
"230 437 LINE",
"230 596 LINE",
"237 596 LINE",
"237 729 LINE"
);
}
);
};
layerId = "3257632A-050A-40C2-B21A-C728868BC46F";
paths = (
{
closed = 1;
nodes = (
"221 0 LINE SMOOTH",
"358 0 OFFCURVE",
"446 46 OFFCURVE",
"471 186 CURVE SMOOTH",
"487 277 OFFCURVE",
"458 348 OFFCURVE",
"380 366 CURVE",
"382 372 LINE",
"460 382 OFFCURVE",
"499 435 OFFCURVE",
"514 519 CURVE SMOOTH",
"534 635 OFFCURVE",
"485 729 OFFCURVE",
"353 729 CURVE SMOOTH",
"116 729 LINE",
"-12 0 LINE"
);
},
{
closed = 1;
nodes = (
"277 630 LINE",
"243 596 LINE",
"306 596 LINE SMOOTH",
"334 596 OFFCURVE",
"353 576 OFFCURVE",
"346 535 CURVE SMOOTH",
"343 520 OFFCURVE",
"342 512 OFFCURVE",
"339 492 CURVE SMOOTH",
"332 453 OFFCURVE",
"312 437 OFFCURVE",
"278 437 CURVE SMOOTH",
"227 437 LINE",
"204 308 LINE",
"253 308 LINE SMOOTH",
"288 308 OFFCURVE",
"312 287 OFFCURVE",
"304 239 CURVE SMOOTH",
"301 222 OFFCURVE",
"298 204 OFFCURVE",
"295 187 CURVE SMOOTH",
"289 153 OFFCURVE",
"270 133 OFFCURVE",
"222 133 CURVE SMOOTH",
"160 133 LINE",
"183 101 LINE"
);
}
);
width = 505;
},
{
anchors = (
{
name = bottom;
position = "{156, 0}";
},
{
name = top;
position = "{284, 729}";
}
);
layerId = "84BE75FC-12C8-47E9-B302-5F6D56903923";
paths = (
{
closed = 1;
nodes = (
"149 0 LINE SMOOTH",
"251 0 OFFCURVE",
"318 40 OFFCURVE",
"343 181 CURVE SMOOTH",
"362 290 OFFCURVE",
"343 351 OFFCURVE",
"273 369 CURVE",
"274 373 LINE",
"343 381 OFFCURVE",
"381 433 OFFCURVE",
"399 537 CURVE SMOOTH",
"422 667 OFFCURVE",
"373 727 OFFCURVE",
"271 727 CURVE SMOOTH",
"171 727 LINE",
"43 0 LINE"
);
},
{
closed = 1;
nodes = (
"200 714 LINE",
"181 699 LINE",
"265 699 LINE SMOOTH",
"360 699 OFFCURVE",
"386 640 OFFCURVE",
"374 571 CURVE SMOOTH",
"370 548 OFFCURVE",
"366 524 OFFCURVE",
"362 501 CURVE SMOOTH",
"346 412 OFFCURVE",
"294 386 OFFCURVE",
"228 386 CURVE SMOOTH",
"135 386 LINE",
"130 358 LINE",
"224 358 LINE SMOOTH",
"293 358 OFFCURVE",
"335 314 OFFCURVE",
"319 225 CURVE SMOOTH",
"315 202 OFFCURVE",
"311 179 OFFCURVE",
"307 156 CURVE SMOOTH",
"291 65 OFFCURVE",
"241 28 OFFCURVE",
"155 28 CURVE SMOOTH",
"66 28 LINE",
"76 15 LINE"
);
}
);
width = 396;
},
{
anchors = (
{
name = bottom;
position = "{340, 0}";
},
{
name = top;
position = "{468, 729}";
}
);
layerId = "33C7CA81-8DED-4513-9072-CA0E40765DD9";
paths = (
{
closed = 1;
nodes = (
"400 0 LINE SMOOTH",
"557 0 OFFCURVE",
"645 67 OFFCURVE",
"649 205 CURVE SMOOTH",
"653 302 OFFCURVE",
"612 352 OFFCURVE",
"537 366 CURVE",
"538 372 LINE",
"635 382 OFFCURVE",
"693 450 OFFCURVE",
"696 554 CURVE SMOOTH",
"700 675 OFFCURVE",
"634 728 OFFCURVE",
"500 728 CURVE SMOOTH",
"218 728 LINE",
"89 0 LINE"
);
},
{
closed = 1;
nodes = (
"254 720 LINE",
"222 694 LINE",
"501 694 LINE SMOOTH",
"616 694 OFFCURVE",
"661 647 OFFCURVE",
"657 566 CURVE SMOOTH",
"655 545 OFFCURVE",
"652 521 OFFCURVE",
"648 496 CURVE SMOOTH",
"637 428 OFFCURVE",
"577 387 OFFCURVE",
"484 387 CURVE SMOOTH",
"186 387 LINE",
"180 355 LINE",
"470 355 LINE SMOOTH",
"564 355 OFFCURVE",
"617 311 OFFCURVE",
"612 223 CURVE SMOOTH",
"610 202 OFFCURVE",
"607 179 OFFCURVE",
"603 156 CURVE SMOOTH",
"589 78 OFFCURVE",
"522 35 OFFCURVE",
"416 35 CURVE SMOOTH",
"105 35 LINE",
"127 9 LINE"
);
}
);
width = 725;
},
{
anchors = (
{
name = bottom;
position = "{365, 0}";
},
{
name = top;
position = "{493, 729}";
}
);
layerId = "46C13DED-2BAB-471A-8D19-A1FA49A5501E";
paths = (
{
closed = 1;
nodes = (
"452 0 LINE SMOOTH",
"638 0 OFFCURVE",
"730 78 OFFCURVE",
"727 213 CURVE SMOOTH",
"725 307 OFFCURVE",
"674 352 OFFCURVE",
"596 364 CURVE",
"597 371 LINE",
"706 382 OFFCURVE",
"772 457 OFFCURVE",
"770 558 CURVE SMOOTH",
"768 677 OFFCURVE",
"691 729 OFFCURVE",
"543 729 CURVE SMOOTH",
"195 729 LINE",
"64 0 LINE"
);
},
{
closed = 1;
nodes = (
"232 718 LINE",
"200 692 LINE",
"548 692 LINE SMOOTH",
"676 692 OFFCURVE",
"729 649 OFFCURVE",
"727 564 CURVE SMOOTH",
"727 544 OFFCURVE",
"722 507 OFFCURVE",
"720 495 CURVE SMOOTH",
"710 432 OFFCURVE",
"645 388 OFFCURVE",
"540 388 CURVE SMOOTH",
"162 388 LINE",
"156 353 LINE",
"523 353 LINE SMOOTH",
"632 353 OFFCURVE",
"685 309 OFFCURVE",
"685 220 CURVE SMOOTH",
"685 199 OFFCURVE",
"682 178 OFFCURVE",
"678 155 CURVE SMOOTH",
"664 82 OFFCURVE",
"588 37 OFFCURVE",
"473 37 CURVE SMOOTH",
"84 37 LINE",
"106 11 LINE"
);
}
);
width = 803;
},
{
anchors = (
{
name = bottom;
position = "{412, 0}";
},
{
name = top;
position = "{412, 729}";
}
);
layerId = "C1814757-B5F7-4D49-B715-04BFD84ECCF6";
paths = (
{
closed = 1;
nodes = (
"495 0 LINE SMOOTH",
"659 0 OFFCURVE",
"743 72 OFFCURVE",
"743 196 CURVE SMOOTH",
"743 291 OFFCURVE",
"684 357 OFFCURVE",
"584 371 CURVE",
"584 377 LINE",
"675 398 OFFCURVE",
"722 465 OFFCURVE",
"722 549 CURVE SMOOTH",
"722 666 OFFCURVE",
"647 729 OFFCURVE",
"503 729 CURVE SMOOTH",
"109 729 LINE",
"109 0 LINE"
);
},
{
closed = 1;
nodes = (
"148 719 LINE",
"121 692 LINE",
"514 692 LINE SMOOTH",
"617 692 OFFCURVE",
"678 651 OFFCURVE",
"678 564 CURVE SMOOTH",
"678 549 OFFCURVE",
"678 536 OFFCURVE",
"678 522 CURVE SMOOTH",
"678 445 OFFCURVE",
"628 390 OFFCURVE",
"511 390 CURVE SMOOTH",
"139 390 LINE",
"139 354 LINE",
"512 354 LINE SMOOTH",
"630 354 OFFCURVE",
"697 305 OFFCURVE",
"697 220 CURVE SMOOTH",
"697 206 OFFCURVE",
"697 194 OFFCURVE",
"697 182 CURVE SMOOTH",
"697 91 OFFCURVE",
"635 37 OFFCURVE",
"507 37 CURVE SMOOTH",
"121 37 LINE",
"148 10 LINE"
);
}
);
width = 806;
},
{
anchors = (
{
name = bottom;
position = "{373, 0}";
},
{
name = top;
position = "{373, 729}";
}
);
layerId = "8B1B4E65-9831-4464-9A92-CA98D2219836";
paths = (
{
closed = 1;
nodes = (
"420 0 LINE SMOOTH",
"588 0 OFFCURVE",
"701 56 OFFCURVE",
"701 207 CURVE SMOOTH",
"701 303 OFFCURVE",
"642 370 OFFCURVE",
"554 375 CURVE",
"554 383 LINE",
"635 397 OFFCURVE",
"681 460 OFFCURVE",
"681 542 CURVE SMOOTH",
"681 654 OFFCURVE",
"613 729 OFFCURVE",
"440 729 CURVE SMOOTH",
"63 729 LINE",
"63 0 LINE"
);
},
{
closed = 1;
nodes = (
"269 613 LINE",
"233 577 LINE",
"382 577 LINE SMOOTH",
"430 577 OFFCURVE",
"462 564 OFFCURVE",
"462 520 CURVE SMOOTH",
"462 516 OFFCURVE",
"462 511 OFFCURVE",
"462 506 CURVE SMOOTH",
"462 469 OFFCURVE",
"434 447 OFFCURVE",
"382 447 CURVE SMOOTH",
"253 447 LINE",
"253 298 LINE",
"393 298 LINE SMOOTH",
"451 298 OFFCURVE",
"478 272 OFFCURVE",
"478 234 CURVE SMOOTH",
"478 228 OFFCURVE",
"478 221 OFFCURVE",
"478 216 CURVE SMOOTH",
"478 173 OFFCURVE",
"444 152 OFFCURVE",
"393 152 CURVE SMOOTH",
"233 152 LINE",
"269 116 LINE"
);
}
);
width = 719;
},
{
anchors = (
{
name = bottom;
position = "{329, 0}";
},
{
name = top;
position = "{458, 729}";
}
);
layerId = "2359B287-0F82-447F-8C68-59A72835D733";
paths = (
{
closed = 1;
nodes = (
"410 0 LINE SMOOTH",
"570 0 OFFCURVE",
"683 66 OFFCURVE",
"690 203 CURVE SMOOTH",
"694 288 OFFCURVE",
"644 357 OFFCURVE",
"566 373 CURVE",
"568 380 LINE",
"666 396 OFFCURVE",
"724 462 OFFCURVE",
"728 547 CURVE SMOOTH",
"735 685 OFFCURVE",
"640 729 OFFCURVE",
"516 729 CURVE SMOOTH",
"150 729 LINE",
"21 0 LINE"
);
},
{
closed = 1;
nodes = (
"336 603 LINE",
"307 578 LINE",
"457 578 LINE SMOOTH",
"484 578 OFFCURVE",
"514 568 OFFCURVE",
"509 525 CURVE SMOOTH",
"508 516 OFFCURVE",
"506 508 OFFCURVE",
"505 498 CURVE SMOOTH",
"496 461 OFFCURVE",
"471 446 OFFCURVE",
"424 446 CURVE SMOOTH",
"294 446 LINE",
"266 298 LINE",
"405 298 LINE SMOOTH",
"441 298 OFFCURVE",
"475 288 OFFCURVE",
"473 244 CURVE SMOOTH",
"472 231 OFFCURVE",
"470 217 OFFCURVE",
"467 203 CURVE SMOOTH",
"462 169 OFFCURVE",
"431 151 OFFCURVE",
"378 151 CURVE SMOOTH",
"230 151 LINE",
"252 127 LINE"
);
}
);
width = 733;
},
{
anchors = (
{
name = bottom;
position = "{438, 0}";
},
{
name = top;
position = "{438, 729}";
}
);
layerId = "46DCD09A-F85A-41B9-8FAA-640012B7D4F4";
paths = (
{
closed = 1;
nodes = (
"555 0 LINE SMOOTH",
"737 0 OFFCURVE",
"839 75 OFFCURVE",
"839 200 CURVE SMOOTH",
"839 309 OFFCURVE",
"768 371 OFFCURVE",
"664 375 CURVE",
"664 384 LINE",
"760 394 OFFCURVE",
"814 458 OFFCURVE",
"814 540 CURVE SMOOTH",
"814 713 OFFCURVE",
"670 729 OFFCURVE",
"528 729 CURVE SMOOTH",
"63 729 LINE",
"63 0 LINE"
);
},
{
closed = 1;
nodes = (
"298 610 LINE",
"263 575 LINE",
"478 575 LINE SMOOTH",
"529 575 OFFCURVE",
"562 558 OFFCURVE",
"562 519 CURVE SMOOTH",
"562 520 OFFCURVE",
"562 511 OFFCURVE",
"562 504 CURVE SMOOTH",
"562 471 OFFCURVE",
"539 448 OFFCURVE",
"478 448 CURVE SMOOTH",
"282 448 LINE",
"282 298 LINE",
"488 298 LINE SMOOTH",
"542 298 OFFCURVE",
"582 278 OFFCURVE",
"582 234 CURVE SMOOTH",
"582 234 OFFCURVE",
"582 224 OFFCURVE",
"582 218 CURVE SMOOTH",
"582 182 OFFCURVE",
"549 154 OFFCURVE",
"489 154 CURVE SMOOTH",
"263 154 LINE",
"298 119 LINE"
);
}
);
width = 866;
},
{
anchors = (
{
name = bottom;
position = "{378, 0}";
},
{
name = top;
position = "{509, 729}";
}
);
layerId = "0D69E86C-407B-4861-9815-978EE2313DB2";
paths = (
{
closed = 1;
nodes = (
"492 0 LINE SMOOTH",
"675 0 OFFCURVE",
"799 78 OFFCURVE",
"800 217 CURVE SMOOTH",
"800 305 OFFCURVE",
"748 366 OFFCURVE",
"679 377 CURVE",
"680 385 LINE",
"773 400 OFFCURVE",
"837 468 OFFCURVE",
"837 553 CURVE SMOOTH",
"837 680 OFFCURVE",
"742 729 OFFCURVE",
"601 729 CURVE SMOOTH",
"145 729 LINE",
"15 0 LINE"
);
},
{
closed = 1;
nodes = (
"352 595 LINE",
"331 576 LINE",
"503 576 LINE SMOOTH",
"566 576 OFFCURVE",
"584 565 OFFCURVE",
"584 518 CURVE SMOOTH",
"584 514 OFFCURVE",
"582 506 OFFCURVE",
"581 500 CURVE SMOOTH",
"573 453 OFFCURVE",
"528 448 OFFCURVE",
"468 448 CURVE SMOOTH",
"308 448 LINE",
"283 298 LINE",
"473 298 LINE SMOOTH",
"517 298 OFFCURVE",
"551 284 OFFCURVE",
"553 245 CURVE SMOOTH",
"553 234 OFFCURVE",
"552 221 OFFCURVE",
"549 206 CURVE SMOOTH",
"540 169 OFFCURVE",
"504 153 OFFCURVE",
"446 153 CURVE SMOOTH",
"250 153 LINE",
"268 128 LINE"
);
}
);
width = 840;
}
);
leftKerningGroup = H;
leftMetricsKey = H;
rightKerningGroup = C;
unicode = 0042;
},
{
glyphname = C;
lastChange = "2022-06-06 07:15:32 +0000";
layers = (
{
anchors = (
{
name = bottom;
position = "{223, 0}";
},
{
name = top;
position = "{223, 729}";
}
);
layerId = "6932EABA-00D8-4526-96D6-87ADD7AC589E";
paths = (
{
closed = 1;
nodes = (
"337 -9 OFFCURVE",
"378 67 OFFCURVE",
"378 246 CURVE",
"347 246 LINE",
"349 84 OFFCURVE",
"318 18 OFFCURVE",
"223 18 CURVE SMOOTH",
"149 18 OFFCURVE",
"99 53 OFFCURVE",
"99 193 CURVE SMOOTH",
"99 536 LINE SMOOTH",
"99 641 OFFCURVE",
"124 711 OFFCURVE",
"223 711 CURVE SMOOTH",
"316 711 OFFCURVE",
"348 648 OFFCURVE",
"347 483 CURVE",
"378 483 LINE",
"378 659 OFFCURVE",
"339 738 OFFCURVE",
"223 739 CURVE SMOOTH",
"130 738 OFFCURVE",
"68 692 OFFCURVE",
"68 536 CURVE SMOOTH",
"68 193 LINE SMOOTH",
"68 37 OFFCURVE",
"130 -9 OFFCURVE",
"223 -10 CURVE SMOOTH"
);
}
);
width = 439;
},
{
anchors = (
{
name = bottom;
position = "{267, 0}";
},
{
name = top;
position = "{267, 729}";
}
);
layerId = "E787E54A-EE3E-475A-BF02-8501A6DA5144";
paths = (
{
closed = 1;
nodes = (
"424 -10 OFFCURVE",
"509 64 OFFCURVE",
"507 255 CURVE",
"333 255 LINE",
"333 170 OFFCURVE",
"318 136 OFFCURVE",
"269 136 CURVE SMOOTH",
"229 136 OFFCURVE",
"205 155 OFFCURVE",
"205 214 CURVE SMOOTH",
"205 515 LINE SMOOTH",
"205 574 OFFCURVE",
"229 593 OFFCURVE",
"269 593 CURVE SMOOTH",
"318 593 OFFCURVE",
"333 559 OFFCURVE",
"333 474 CURVE",
"507 474 LINE",
"509 665 OFFCURVE",
"424 739 OFFCURVE",
"271 739 CURVE SMOOTH",
"115 739 OFFCURVE",
"27 667 OFFCURVE",
"27 480 CURVE SMOOTH",
"27 249 LINE SMOOTH",
"27 62 OFFCURVE",
"115 -10 OFFCURVE",
"271 -10 CURVE SMOOTH"
);
}
);
width = 531;
},
{
anchors = (
{
name = bottom;
position = "{395, 0}";
},
{
name = top;
position = "{367, 729}";
}
);
layerId = "B743CB11-DC16-45F2-BA04-3635CB00F7DA";
paths = (
{
closed = 1;
nodes = (
"559 -10 OFFCURVE",
"679 83 OFFCURVE",
"696 226 CURVE",
"656 226 LINE",
"637 92 OFFCURVE",
"526 26 OFFCURVE",
"395 26 CURVE SMOOTH",
"203 26 OFFCURVE",
"103 148 OFFCURVE",
"103 316 CURVE SMOOTH",
"103 412 LINE SMOOTH",
"103 580 OFFCURVE",
"203 702 OFFCURVE",
"395 702 CURVE SMOOTH",
"521 702 OFFCURVE",
"635 638 OFFCURVE",
"656 503 CURVE",
"696 503 LINE",
"678 645 OFFCURVE",
"558 738 OFFCURVE",
"395 738 CURVE SMOOTH",
"187 738 OFFCURVE",
"60 610 OFFCURVE",
"60 366 CURVE SMOOTH",
"60 361 LINE SMOOTH",
"60 109 OFFCURVE",
"196 -10 OFFCURVE",
"395 -10 CURVE SMOOTH"
);
}
);
width = 756;
},
{
anchors = (
{
name = bottom;
position = "{240, 0}";
},
{
name = top;
position = "{326, 729}";
}
);
layerId = "3257632A-050A-40C2-B21A-C728868BC46F";
paths = (
{
closed = 1;
nodes = (
"393 -11 OFFCURVE",
"479 63 OFFCURVE",
"506 250 CURVE",
"330 250 LINE",
"316 167 OFFCURVE",
"297 137 OFFCURVE",
"254 137 CURVE SMOOTH",
"201 137 OFFCURVE",
"187 166 OFFCURVE",
"197 222 CURVE SMOOTH",
"249 520 LINE SMOOTH",
"258 575 OFFCURVE",
"282 592 OFFCURVE",
"317 592 CURVE SMOOTH",
"376 592 OFFCURVE",
"383 552 OFFCURVE",
"369 475 CURVE",
"545 475 LINE",
"568 650 OFFCURVE",
"500 739 OFFCURVE",
"315 739 CURVE SMOOTH",
"182 739 OFFCURVE",
"97 671 OFFCURVE",
"67 500 CURVE SMOOTH",
"27 270 LINE SMOOTH",
"-2 101 OFFCURVE",
"62 -11 OFFCURVE",
"238 -11 CURVE SMOOTH"
);
}
);
width = 534;
},
{
anchors = (
{
name = bottom;
position = "{197, 0}";
},
{
name = top;
position = "{291, 729}";
}
);
background = {
paths = (
{
closed = 1;
nodes = (
"323 -9 OFFCURVE",
"369 70 OFFCURVE",
"399 246 CURVE",
"367 246 LINE",
"343 86 OFFCURVE",
"304 18 OFFCURVE",
"219 18 CURVE SMOOTH",
"111 18 OFFCURVE",
"91 89 OFFCURVE",
"111 202 CURVE SMOOTH",
"132 323 OFFCURVE",
"151 436 OFFCURVE",
"171 547 CURVE SMOOTH",
"189 645 OFFCURVE",
"223 711 OFFCURVE",
"309 711 CURVE SMOOTH",
"425 711 OFFCURVE",
"434 624 OFFCURVE",
"409 483 CURVE",
"440 483 LINE",
"465 640 OFFCURVE",
"448 738 OFFCURVE",
"309 738 CURVE SMOOTH",
"219 738 OFFCURVE",
"164 684 OFFCURVE",
"141 550 CURVE SMOOTH",
"121 435 OFFCURVE",
"87 240 OFFCURVE",
"81 207 CURVE SMOOTH",
"58 73 OFFCURVE",
"89 -9 OFFCURVE",
"217 -9 CURVE SMOOTH"
);
}
);
};
layerId = "84BE75FC-12C8-47E9-B302-5F6D56903923";
paths = (
{
closed = 1;
nodes = (
"300 -9 OFFCURVE",
"346 67 OFFCURVE",
"376 239 CURVE",
"345 239 LINE",
"321 84 OFFCURVE",
"280 18 OFFCURVE",
"195 18 CURVE SMOOTH",
"109 18 OFFCURVE",
"66 70 OFFCURVE",
"89 202 CURVE SMOOTH",
"149 546 LINE SMOOTH",
"169 658 OFFCURVE",
"201 711 OFFCURVE",
"290 712 CURVE SMOOTH",
"404 711 OFFCURVE",
"413 624 OFFCURVE",
"388 484 CURVE",
"419 484 LINE",
"444 639 OFFCURVE",
"427 739 OFFCURVE",
"290 739 CURVE SMOOTH",
"201 739 OFFCURVE",
"145 699 OFFCURVE",
"119 549 CURVE SMOOTH",
"59 207 LINE SMOOTH",
"36 77 OFFCURVE",
"76 -9 OFFCURVE",
"195 -9 CURVE SMOOTH"
);
}
);
width = 440;
},
{
anchors = (
{
name = bottom;
position = "{412, 0}";
},
{
name = top;
position = "{438, 729}";
}
);
background = {
paths = (
{
closed = 1;
nodes = (
"564 -10 OFFCURVE",
"674 68 OFFCURVE",
"708 204 CURVE",
"667 204 LINE",
"637 93 OFFCURVE",
"543 26 OFFCURVE",
"411 26 CURVE SMOOTH",
"214 26 OFFCURVE",
"93 152 OFFCURVE",
"124 353 CURVE SMOOTH",
"129 386 OFFCURVE",
"136 427 OFFCURVE",
"140 449 CURVE SMOOTH",
"166 599 OFFCURVE",
"265 703 OFFCURVE",
"433 703 CURVE SMOOTH",
"588 703 OFFCURVE",
"686 622 OFFCURVE",
"703 498 CURVE",
"745 498 LINE",
"727 644 OFFCURVE",
"611 739 OFFCURVE",
"433 739 CURVE SMOOTH",
"256 739 OFFCURVE",
"129 634 OFFCURVE",
"90 415 CURVE SMOOTH",
"84 381 OFFCURVE",
"80 337 OFFCURVE",
"80 306 CURVE SMOOTH",
"80 106 OFFCURVE",
"211 -10 OFFCURVE",
"409 -10 CURVE SMOOTH"
);
}
);
};
layerId = "33C7CA81-8DED-4513-9072-CA0E40765DD9";
paths = (
{
closed = 1;
nodes = (
"564 -10 OFFCURVE",
"674 68 OFFCURVE",
"708 204 CURVE",
"667 204 LINE",
"637 93 OFFCURVE",
"543 26 OFFCURVE",
"410 26 CURVE SMOOTH",
"214 26 OFFCURVE",
"93 152 OFFCURVE",
"124 353 CURVE SMOOTH",
"140 449 LINE SMOOTH",
"166 599 OFFCURVE",
"265 703 OFFCURVE",
"433 703 CURVE SMOOTH",
"588 703 OFFCURVE",
"686 622 OFFCURVE",
"703 498 CURVE",
"745 498 LINE",
"727 644 OFFCURVE",
"611 739 OFFCURVE",
"433 739 CURVE SMOOTH",
"202 739 OFFCURVE",
"80 553 OFFCURVE",
"80 314 CURVE SMOOTH",
"80 306 LINE SMOOTH",
"80 106 OFFCURVE",
"211 -10 OFFCURVE",
"410 -10 CURVE SMOOTH"
);
}
);
width = 777;
},
{
anchors = (
{
name = bottom;
position = "{465, 0}";
},
{
name = top;
position = "{483, 729}";
}
);
background = {
paths = (
{
closed = 1;
nodes = (
"640 -10 OFFCURVE",
"771 68 OFFCURVE",
"807 194 CURVE",
"762 194 LINE",
"730 95 OFFCURVE",
"620 27 OFFCURVE",
"468 27 CURVE SMOOTH",
"257 27 OFFCURVE",
"110 151 OFFCURVE",
"135 354 CURVE SMOOTH",
"137 380 OFFCURVE",
"142 413 OFFCURVE",
"147 438 CURVE SMOOTH",
"173 611 OFFCURVE",
"297 702 OFFCURVE",
"480 702 CURVE SMOOTH",
"638 702 OFFCURVE",
"765 622 OFFCURVE",
"796 502 CURVE",
"840 502 LINE",
"810 642 OFFCURVE",
"663 739 OFFCURVE",
"480 739 CURVE SMOOTH",
"254 739 OFFCURVE",
"111 603 OFFCURVE",
"93 373 CURVE SMOOTH",
"91 361 OFFCURVE",
"91 347 OFFCURVE",
"91 336 CURVE SMOOTH",
"91 121 OFFCURVE",
"233 -10 OFFCURVE",
"468 -10 CURVE SMOOTH"
);
}
);
};
layerId = "46C13DED-2BAB-471A-8D19-A1FA49A5501E";
paths = (
{
closed = 1;
nodes = (
"647 -10 OFFCURVE",
"781 68 OFFCURVE",
"818 194 CURVE",
"773 194 LINE",
"741 95 OFFCURVE",
"626 27 OFFCURVE",
"470 27 CURVE SMOOTH",
"253 27 OFFCURVE",
"96 152 OFFCURVE",
"125 354 CURVE SMOOTH",
"137 438 LINE SMOOTH",
"162 611 OFFCURVE",
"290 702 OFFCURVE",
"478 702 CURVE SMOOTH",
"641 702 OFFCURVE",
"774 622 OFFCURVE",
"806 502 CURVE",
"850 502 LINE",
"818 642 OFFCURVE",
"667 739 OFFCURVE",
"478 739 CURVE SMOOTH",
"230 739 OFFCURVE",
"80 577 OFFCURVE",
"80 337 CURVE SMOOTH",
"80 331 LINE SMOOTH",
"82 118 OFFCURVE",
"230 -10 OFFCURVE",
"470 -10 CURVE SMOOTH"
);
}
);
width = 871;
},
{
anchors = (
{
name = bottom;
position = "{456, 0}";
},
{
name = top;
position = "{431, 729}";
}
);
background = {
paths = (
{
closed = 1;
nodes = (
"696 -10 OFFCURVE",
"854 121 OFFCURVE",
"854 362 CURVE SMOOTH",
"854 363 OFFCURVE",
"854 365 OFFCURVE",
"854 366 CURVE SMOOTH",
"854 607 OFFCURVE",
"696 738 OFFCURVE",
"456 738 CURVE SMOOTH",
"216 738 OFFCURVE",
"58 607 OFFCURVE",
"58 366 CURVE SMOOTH",
"58 365 OFFCURVE",
"58 363 OFFCURVE",
"58 362 CURVE SMOOTH",
"58 121 OFFCURVE",
"216 -10 OFFCURVE",
"456 -10 CURVE SMOOTH"
);
},
{
closed = 1;
nodes = (
"216 28 OFFCURVE",
"103 164 OFFCURVE",
"103 336 CURVE SMOOTH",
"103 355 OFFCURVE",
"103 373 OFFCURVE",
"103 392 CURVE SMOOTH",
"103 570 OFFCURVE",
"216 700 OFFCURVE",
"456 700 CURVE SMOOTH",
"696 700 OFFCURVE",
"809 570 OFFCURVE",
"809 392 CURVE SMOOTH",
"809 373 OFFCURVE",
"809 355 OFFCURVE",
"809 336 CURVE SMOOTH",
"809 164 OFFCURVE",
"696 28 OFFCURVE",
"456 28 CURVE SMOOTH"
);
}
);
};
layerId = "C1814757-B5F7-4D49-B715-04BFD84ECCF6";
paths = (
{
closed = 1;
nodes = (
"648 -10 OFFCURVE",
"791 83 OFFCURVE",
"814 222 CURVE",
"772 222 LINE",
"751 106 OFFCURVE",
"636 28 OFFCURVE",
"456 28 CURVE SMOOTH",
"216 28 OFFCURVE",
"103 164 OFFCURVE",
"103 336 CURVE SMOOTH",
"103 392 LINE SMOOTH",
"103 570 OFFCURVE",
"216 700 OFFCURVE",
"456 700 CURVE SMOOTH",
"620 700 OFFCURVE",
"745 631 OFFCURVE",
"772 507 CURVE",
"814 507 LINE",
"791 646 OFFCURVE",
"647 738 OFFCURVE",
"456 738 CURVE SMOOTH",
"216 738 OFFCURVE",
"58 607 OFFCURVE",
"58 366 CURVE SMOOTH",
"58 362 LINE SMOOTH",
"58 121 OFFCURVE",
"216 -10 OFFCURVE",
"456 -10 CURVE SMOOTH"
);
}
);
width = 856;
},
{
anchors = (
{
name = bottom;
position = "{395, 0}";
},
{
name = top;
position = "{378, 729}";
}
);
layerId = "8B1B4E65-9831-4464-9A92-CA98D2219836";
paths = (
{
closed = 1;
nodes = (
"579 -10 OFFCURVE",
"721 99 OFFCURVE",
"737 261 CURVE",
"518 261 LINE",
"504 209 OFFCURVE",
"454 174 OFFCURVE",
"395 174 CURVE SMOOTH",
"311 174 OFFCURVE",
"254 214 OFFCURVE",
"254 304 CURVE SMOOTH",
"254 424 LINE SMOOTH",
"254 502 OFFCURVE",
"298 554 OFFCURVE",
"395 554 CURVE SMOOTH",
"455 554 OFFCURVE",
"501 523 OFFCURVE",
"518 469 CURVE",
"737 469 LINE",
"721 630 OFFCURVE",
"587 738 OFFCURVE",
"395 738 CURVE SMOOTH",
"175 738 OFFCURVE",
"31 607 OFFCURVE",
"31 365 CURVE SMOOTH",
"31 363 LINE SMOOTH",
"31 141 OFFCURVE",
"145 -10 OFFCURVE",
"395 -10 CURVE SMOOTH"
);
}
);
width = 767;
},
{
anchors = (
{
name = bottom;
position = "{393, 0}";
},
{
name = top;
position = "{425, 729}";
}
);
layerId = "2359B287-0F82-447F-8C68-59A72835D733";
paths = (
{
closed = 1;
nodes = (
"572 -10 OFFCURVE",
"710 85 OFFCURVE",
"740 254 CURVE",
"521 254 LINE",
"507 205 OFFCURVE",
"464 173 OFFCURVE",
"391 173 CURVE SMOOTH",
"297 173 OFFCURVE",
"245 234 OFFCURVE",
"263 336 CURVE SMOOTH",
"282 442 LINE SMOOTH",
"297 525 OFFCURVE",
"346 556 OFFCURVE",
"428 556 CURVE SMOOTH",
"496 556 OFFCURVE",
"546 520 OFFCURVE",
"553 467 CURVE",
"773 467 LINE",
"770 630 OFFCURVE",
"635 739 OFFCURVE",
"437 739 CURVE SMOOTH",
"191 739 OFFCURVE",
"49 580 OFFCURVE",
"49 319 CURVE SMOOTH",
"49 310 LINE SMOOTH",
"49 118 OFFCURVE",
"172 -10 OFFCURVE",
"391 -10 CURVE SMOOTH"
);
}
);
width = 773;
},
{
anchors = (
{
name = bottom;
position = "{473, 0}";
},
{
name = top;
position = "{456, 729}";
}
);
layerId = "46DCD09A-F85A-41B9-8FAA-640012B7D4F4";
paths = (
{
closed = 1;
nodes = (
"695 -10 OFFCURVE",
"868 108 OFFCURVE",
"889 261 CURVE",
"635 261 LINE",
"616 213 OFFCURVE",
"546 179 OFFCURVE",
"472 179 CURVE SMOOTH",
"345 179 OFFCURVE",
"284 240 OFFCURVE",
"284 323 CURVE SMOOTH",
"284 406 LINE SMOOTH",
"284 489 OFFCURVE",
"345 550 OFFCURVE",
"472 550 CURVE SMOOTH",
"547 550 OFFCURVE",
"613 518 OFFCURVE",
"635 469 CURVE",
"889 469 LINE",
"868 621 OFFCURVE",
"705 739 OFFCURVE",
"473 739 CURVE SMOOTH",
"216 739 OFFCURVE",
"28 608 OFFCURVE",
"28 375 CURVE SMOOTH",
"28 355 LINE SMOOTH",
"28 121 OFFCURVE",
"216 -10 OFFCURVE",
"473 -10 CURVE SMOOTH"
);
}
);
width = 901;
},
{
anchors = (
{
name = bottom;
position = "{451, 0}";
},
{
name = top;
position = "{507, 729}";
}
);
layerId = "0D69E86C-407B-4861-9815-978EE2313DB2";
paths = (
{
closed = 1;
nodes = (
"667 -10 OFFCURVE",
"831 86 OFFCURVE",
"860 258 CURVE",
"614 258 LINE",
"597 205 OFFCURVE",
"536 177 OFFCURVE",
"458 177 CURVE SMOOTH",
"339 177 OFFCURVE",
"276 242 OFFCURVE",
"293 340 CURVE SMOOTH",
"310 434 LINE SMOOTH",
"322 502 OFFCURVE",
"371 553 OFFCURVE",
"478 553 CURVE SMOOTH",
"563 553 OFFCURVE",
"619 521 OFFCURVE",
"638 463 CURVE",
"884 463 LINE",
"861 629 OFFCURVE",
"700 739 OFFCURVE",
"479 739 CURVE SMOOTH",
"208 739 OFFCURVE",
"50 586 OFFCURVE",
"50 354 CURVE SMOOTH",
"50 344 LINE SMOOTH",
"49 132 OFFCURVE",
"206 -10 OFFCURVE",
"448 -10 CURVE SMOOTH"
);
}
);
width = 874;
}
);
leftKerningGroup = C;
leftMetricsKey = O;
rightKerningGroup = C;
unicode = 0043;
},
{
glyphname = D;
lastChange = "2022-06-06 07:15:37 +0000";
layers = (
{
anchors = (
{
name = bottom;
position = "{228, 0}";
},
{
name = center;
position = "{118, 365}";
},
{
name = top;
position = "{228, 729}";
}
);
layerId = "6932EABA-00D8-4526-96D6-87ADD7AC589E";
paths = (
{
closed = 1;
nodes = (
"229 0 LINE SMOOTH",
"332 0 OFFCURVE",
"397 57 OFFCURVE",
"397 232 CURVE SMOOTH",
"397 497 LINE SMOOTH",
"397 672 OFFCURVE",
"332 729 OFFCURVE",
"229 729 CURVE SMOOTH",
"88 729 LINE",
"88 0 LINE"
);
},
{
closed = 1;
nodes = (
"119 701 LINE",
"229 701 LINE SMOOTH",
"340 701 OFFCURVE",
"366 619 OFFCURVE",
"366 496 CURVE SMOOTH",
"366 233 LINE SMOOTH",
"366 110 OFFCURVE",
"340 28 OFFCURVE",
"229 28 CURVE SMOOTH",
"119 28 LINE"
);
}
);
width = 465;
},
{
anchors = (
{
name = bottom;
position = "{267, 0}";
},
{
name = center;
position = "{137, 365}";
},
{
name = top;
position = "{267, 729}";
}
);
layerId = "E787E54A-EE3E-475A-BF02-8501A6DA5144";
paths = (
{
closed = 1;
nodes = (
"273 0 LINE SMOOTH",
"440 0 OFFCURVE",
"504 95 OFFCURVE",
"504 264 CURVE SMOOTH",
"504 465 LINE SMOOTH",
"504 634 OFFCURVE",
"440 729 OFFCURVE",
"273 729 CURVE SMOOTH",
"35 729 LINE",
"35 0 LINE"
);
},
{
closed = 1;
nodes = (
"213 583 LINE",
"253 583 LINE SMOOTH",
"302 583 OFFCURVE",
"326 558 OFFCURVE",
"326 484 CURVE SMOOTH",
"326 245 LINE SMOOTH",
"326 171 OFFCURVE",
"302 146 OFFCURVE",
"253 146 CURVE SMOOTH",
"213 146 LINE"
);
}
);
width = 531;
},
{
anchors = (
{
name = bottom;
position = "{413, 0}";
},
{
name = center;
position = "{183, 365}";
},
{
name = top;
position = "{413, 729}";
}
);
layerId = "B743CB11-DC16-45F2-BA04-3635CB00F7DA";
paths = (
{
closed = 1;
nodes = (
"389 0 LINE SMOOTH",
"586 0 OFFCURVE",
"717 108 OFFCURVE",
"717 360 CURVE SMOOTH",
"717 369 LINE SMOOTH",
"717 621 OFFCURVE",
"585 729 OFFCURVE",
"389 729 CURVE SMOOTH",
"134 729 LINE",
"134 0 LINE"
);
},
{
closed = 1;
nodes = (
"173 692 LINE",
"388 692 LINE SMOOTH",
"579 692 OFFCURVE",
"673 580 OFFCURVE",
"673 412 CURVE SMOOTH",
"673 317 LINE SMOOTH",
"673 133 OFFCURVE",
"563 37 OFFCURVE",
"388 37 CURVE SMOOTH",
"173 37 LINE"
);
}
);
width = 778;
},
{
anchors = (
{
name = bottom;
position = "{221, 0}";
},
{
name = center;
position = "{158, 365}";
},
{
name = top;
position = "{350, 729}";
}
);
background = {
paths = (
{
closed = 1;
nodes = (
"226 0 LINE SMOOTH",
"393 0 OFFCURVE",
"473 95 OFFCURVE",
"503 264 CURVE SMOOTH",
"515 331 OFFCURVE",
"527 398 OFFCURVE",
"539 465 CURVE SMOOTH",
"569 634 OFFCURVE",
"521 729 OFFCURVE",
"354 729 CURVE SMOOTH",
"116 729 LINE",
"-12 0 LINE"
);
},
{
closed = 1;
nodes = (
"269 583 LINE",
"309 583 LINE SMOOTH",
"358 583 OFFCURVE",
"377 558 OFFCURVE",
"364 484 CURVE SMOOTH",
"349 397 OFFCURVE",
"337 331 OFFCURVE",
"322 245 CURVE SMOOTH",
"309 171 OFFCURVE",
"280 146 OFFCURVE",
"231 146 CURVE SMOOTH",
"191 146 LINE"
);
}
);
};
layerId = "3257632A-050A-40C2-B21A-C728868BC46F";
paths = (
{
closed = 1;
nodes = (
"228 0 LINE SMOOTH",
"388 0 OFFCURVE",
"472 71 OFFCURVE",
"502 246 CURVE SMOOTH",
"536 444 LINE SMOOTH",
"565 614 OFFCURVE",
"520 729 OFFCURVE",
"354 729 CURVE SMOOTH",
"116 729 LINE",
"-12 0 LINE"
);
},
{
closed = 1;
nodes = (
"269 583 LINE",
"309 583 LINE SMOOTH",
"358 583 OFFCURVE",
"377 554 OFFCURVE",
"364 479 CURVE SMOOTH",
"322 240 LINE SMOOTH",
"309 168 OFFCURVE",
"281 146 OFFCURVE",
"232 146 CURVE SMOOTH",
"191 146 LINE"
);
}
);
width = 534;
},
{
anchors = (
{
name = bottom;
position = "{183, 0}";
},
{
name = center;
position = "{147, 365}";
},
{
name = top;
position = "{311, 729}";
}
);
layerId = "84BE75FC-12C8-47E9-B302-5F6D56903923";
paths = (
{
closed = 1;
nodes = (
"185 0 LINE SMOOTH",
"299 0 OFFCURVE",
"358 42 OFFCURVE",
"388 210 CURVE SMOOTH",
"437 489 LINE SMOOTH",
"468 668 OFFCURVE",
"412 729 OFFCURVE",
"309 729 CURVE SMOOTH",
"171 729 LINE",
"43 0 LINE"
);
},
{
closed = 1;
nodes = (
"197 701 LINE",
"309 701 LINE SMOOTH",
"418 701 OFFCURVE",
"426 608 OFFCURVE",
"405 489 CURVE SMOOTH",
"359 226 LINE SMOOTH",
"334 83 OFFCURVE",
"298 28 OFFCURVE",
"187 28 CURVE SMOOTH",
"79 28 LINE"
);
}
);
width = 464;
},
{
anchors = (
{
name = bottom;
position = "{367, 0}";
},
{
name = center;
position = "{201, 365}";
},
{
name = top;
position = "{495, 729}";
}
);
layerId = "33C7CA81-8DED-4513-9072-CA0E40765DD9";
paths = (
{
closed = 1;
nodes = (
"349 0 LINE SMOOTH",
"617 0 OFFCURVE",
"738 172 OFFCURVE",
"738 429 CURVE SMOOTH",
"738 439 LINE SMOOTH",
"738 613 OFFCURVE",
"648 729 OFFCURVE",
"458 729 CURVE SMOOTH",
"219 729 LINE",
"89 0 LINE"
);
},
{
closed = 1;
nodes = (
"251 694 LINE",
"451 694 LINE SMOOTH",
"628 694 OFFCURVE",
"727 594 OFFCURVE",
"692 382 CURVE SMOOTH",
"671 255 LINE SMOOTH",
"649 124 OFFCURVE",
"535 36 OFFCURVE",
"365 36 CURVE SMOOTH",
"133 36 LINE"
);
}
);
width = 780;
},
{
anchors = (
{
name = bottom;
position = "{392, 0}";
},
{
name = center;
position = "{184, 365}";
},
{
name = top;
position = "{520, 729}";
}
);
layerId = "46C13DED-2BAB-471A-8D19-A1FA49A5501E";
paths = (
{
closed = 1;
nodes = (
"400 0 LINE SMOOTH",
"646 0 OFFCURVE",
"809 147 OFFCURVE",
"809 409 CURVE SMOOTH",
"809 413 LINE SMOOTH",
"809 603 OFFCURVE",
"684 729 OFFCURVE",
"477 729 CURVE SMOOTH",
"196 729 LINE",
"64 0 LINE"
);
},
{
closed = 1;
nodes = (
"230 692 LINE",
"481 692 LINE SMOOTH",
"671 692 OFFCURVE",
"796 577 OFFCURVE",
"767 376 CURVE SMOOTH",
"754 286 LINE SMOOTH",
"733 139 OFFCURVE",
"605 38 OFFCURVE",
"405 38 CURVE SMOOTH",
"112 38 LINE"
);
}
);
width = 849;
},
{
anchors = (
{
name = bottom;
position = "{436, 0}";
},
{
name = center;
position = "{176, 362}";
},
{
name = top;
position = "{436, 723}";
}
);
background = {
paths = (
{
closed = 1;
nodes = (
"406 0 LINE SMOOTH",
"668 0 OFFCURVE",
"794 149 OFFCURVE",
"794 385 CURVE SMOOTH",
"794 373 OFFCURVE",
"794 360 OFFCURVE",
"794 348 CURVE SMOOTH",
"794 602 OFFCURVE",
"648 729 OFFCURVE",
"406 729 CURVE SMOOTH",
"109 729 LINE",
"109 0 LINE"
);
},
{
closed = 1;
nodes = (
"148 690 LINE",
"406 690 LINE SMOOTH",
"633 690 OFFCURVE",
"748 574 OFFCURVE",
"748 399 CURVE SMOOTH",
"748 376 OFFCURVE",
"748 353 OFFCURVE",
"748 330 CURVE SMOOTH",
"748 137 OFFCURVE",
"615 39 OFFCURVE",
"406 39 CURVE SMOOTH",
"148 39 LINE"
);
}
);
};
layerId = "C1814757-B5F7-4D49-B715-04BFD84ECCF6";
paths = (
{
closed = 1;
nodes = (
"406 0 LINE SMOOTH",
"670 0 OFFCURVE",
"794 144 OFFCURVE",
"794 360 CURVE SMOOTH",
"794 369 LINE SMOOTH",
"794 585 OFFCURVE",
"670 729 OFFCURVE",
"406 729 CURVE SMOOTH",
"109 729 LINE",
"109 0 LINE"
);
},
{
closed = 1;
nodes = (
"148 690 LINE",
"406 690 LINE SMOOTH",
"633 690 OFFCURVE",
"748 575 OFFCURVE",
"748 402 CURVE SMOOTH",
"748 327 LINE SMOOTH",
"748 154 OFFCURVE",
"633 39 OFFCURVE",
"406 39 CURVE SMOOTH",
"148 39 LINE"
);
}
);
width = 852;
},
{
anchors = (
{
name = bottom;
position = "{401, 0}";
},
{
name = center;
position = "{181, 365}";
},
{
name = top;
position = "{401, 729}";
}
);
layerId = "8B1B4E65-9831-4464-9A92-CA98D2219836";
paths = (
{
closed = 1;
nodes = (
"379 0 LINE SMOOTH",
"597 0 OFFCURVE",
"743 116 OFFCURVE",
"743 362 CURVE SMOOTH",
"743 368 LINE SMOOTH",
"743 583 OFFCURVE",
"628 730 OFFCURVE",
"379 730 CURVE SMOOTH",
"63 730 LINE",
"63 0 LINE"
);
},
{
closed = 1;
nodes = (
"276 550 LINE",
"379 550 LINE SMOOTH",
"475 550 OFFCURVE",
"519 500 OFFCURVE",
"519 424 CURVE SMOOTH",
"519 306 LINE SMOOTH",
"519 231 OFFCURVE",
"476 180 OFFCURVE",
"379 180 CURVE SMOOTH",
"276 180 LINE"
);
}
);
width = 774;
},
{
anchors = (
{
name = bottom;
position = "{351, 0}";
},
{
name = center;
position = "{205, 365}";
},
{
name = top;
position = "{480, 729}";
}
);
layerId = "2359B287-0F82-447F-8C68-59A72835D733";
paths = (
{
closed = 1;
nodes = (
"339 0 LINE SMOOTH",
"603 0 OFFCURVE",
"752 153 OFFCURVE",
"752 424 CURVE SMOOTH",
"752 427 LINE SMOOTH",
"752 616 OFFCURVE",
"646 729 OFFCURVE",
"433 729 CURVE SMOOTH",
"149 729 LINE",
"21 0 LINE"
);
},
{
closed = 1;
nodes = (
"332 549 LINE",
"424 549 LINE SMOOTH",
"503 549 OFFCURVE",
"555 514 OFFCURVE",
"538 418 CURVE SMOOTH",
"517 297 LINE SMOOTH",
"505 228 OFFCURVE",
"463 181 OFFCURVE",
"376 181 CURVE SMOOTH",
"266 181 LINE"
);
}
);
width = 766;
},
{
anchors = (
{
name = bottom;
position = "{460, 0}";
},
{
name = center;
position = "{189, 365}";
},
{
name = top;
position = "{460, 730}";
}
);
layerId = "46DCD09A-F85A-41B9-8FAA-640012B7D4F4";
paths = (
{
closed = 1;
nodes = (
"444 0 LINE SMOOTH",
"700 0 OFFCURVE",
"879 114 OFFCURVE",
"879 361 CURVE SMOOTH",
"879 368 LINE SMOOTH",
"879 615 OFFCURVE",
"700 729 OFFCURVE",
"444 729 CURVE SMOOTH",
"63 729 LINE",
"63 0 LINE"
);
},
{
closed = 1;
nodes = (
"308 545 LINE",
"435 545 LINE SMOOTH",
"575 545 OFFCURVE",
"619 484 OFFCURVE",
"619 397 CURVE SMOOTH",
"619 332 LINE SMOOTH",
"619 245 OFFCURVE",
"575 184 OFFCURVE",
"435 184 CURVE SMOOTH",
"308 184 LINE"
);
}
);
width = 907;
},
{
anchors = (
{
name = bottom;
position = "{393, 0}";
},
{
name = center;
position = "{210, 365}";
},
{
name = top;
position = "{524, 729}";
}
);
layerId = "0D69E86C-407B-4861-9815-978EE2313DB2";
paths = (
{
closed = 1;
nodes = (
"416 0 LINE SMOOTH",
"675 0 OFFCURVE",
"856 156 OFFCURVE",
"856 393 CURVE SMOOTH",
"856 400 LINE SMOOTH",
"856 599 OFFCURVE",
"725 729 OFFCURVE",
"473 729 CURVE SMOOTH",
"145 729 LINE",
"15 0 LINE"
);
},
{
closed = 1;
nodes = (
"351 545 LINE",
"451 545 LINE SMOOTH",
"557 545 OFFCURVE",
"621 502 OFFCURVE",
"603 387 CURVE SMOOTH",
"591 312 LINE SMOOTH",
"576 214 OFFCURVE",
"511 181 OFFCURVE",
"421 181 CURVE SMOOTH",
"287 181 LINE"
);
}
);
width = 870;
}
);
leftKerningGroup = B;
leftMetricsKey = H;
rightKerningGroup = D;
rightMetricsKey = O;
unicode = 0044;
},
{
glyphname = E;
lastChange = "2022-06-05 15:23:09 +0000";
layers = (
{
anchors = (
{
name = bottom;
position = "{192, 0}";
},
{
name = ogonek;
position = "{247, 10}";
},
{
name = top;
position = "{207, 729}";
},
{
name = topleft;
position = "{42, 729}";
}
);
layerId = "6932EABA-00D8-4526-96D6-87ADD7AC589E";
paths = (
{
closed = 1;
nodes = (
"331 0 LINE",
"331 28 LINE",
"119 28 LINE",
"119 362 LINE",
"309 362 LINE",
"309 390 LINE",
"119 390 LINE",
"119 701 LINE",
"326 701 LINE",
"326 729 LINE",
"88 729 LINE",
"88 0 LINE"
);
}
);
width = 379;
},
{
anchors = (
{
name = bottom;
position = "{218, 0}";
},
{
name = ogonek;
position = "{290, 10}";
},
{
name = top;
position = "{220, 729}";
},
{
name = topleft;
position = "{35, 729}";
}
);
layerId = "E787E54A-EE3E-475A-BF02-8501A6DA5144";
paths = (
{
closed = 1;
nodes = (
"410 0 LINE",
"410 146 LINE",
"213 146 LINE",
"213 300 LINE",
"366 300 LINE",
"366 442 LINE",
"213 442 LINE",
"213 583 LINE",
"404 583 LINE",
"404 729 LINE",
"35 729 LINE",
"35 0 LINE"
);
}
);
width = 432;
},
{
anchors = (
{
name = bottom;
position = "{354, 0}";
},
{
name = ogonek;
position = "{521, 10}";
},
{
name = top;
position = "{369, 729}";
},
{
name = topleft;
position = "{53, 729}";
}
);
layerId = "B743CB11-DC16-45F2-BA04-3635CB00F7DA";
paths = (
{
closed = 1;
nodes = (
"604 0 LINE",
"604 37 LINE",
"173 37 LINE",
"173 358 LINE",
"557 358 LINE",
"557 393 LINE",
"173 393 LINE",
"173 692 LINE",
"604 692 LINE",
"604 729 LINE",
"134 729 LINE",
"134 0 LINE"
);
}
);
width = 674;
},
{
anchors = (
{
name = bottom;
position = "{170, 0}";
},
{
name = ogonek;
position = "{214, 10}";
},
{
name = top;
position = "{301, 729}";
},
{
name = topleft;
position = "{116, 729}";
}
);
layerId = "3257632A-050A-40C2-B21A-C728868BC46F";
paths = (
{
closed = 1;
nodes = (
"363 0 LINE",
"388 146 LINE",
"191 146 LINE",
"219 300 LINE",
"372 300 LINE",
"397 442 LINE",
"244 442 LINE",
"269 583 LINE",
"460 583 LINE",
"485 729 LINE",
"116 729 LINE",
"-12 0 LINE"
);
}
);
width = 433;
},
{
anchors = (
{
name = bottom;
position = "{147, 0}";
},
{
name = ogonek;
position = "{203, 10}";
},
{
name = top;
position = "{290, 729}";
},
{
name = topleft;
position = "{125, 729}";
}
);
layerId = "84BE75FC-12C8-47E9-B302-5F6D56903923";
paths = (
{
closed = 1;
nodes = (
"286 0 LINE",
"291 28 LINE",
"79 28 LINE",
"138 362 LINE",
"328 362 LINE",
"332 390 LINE",
"142 390 LINE",
"197 701 LINE",
"404 701 LINE",
"409 729 LINE",
"171 729 LINE",
"43 0 LINE"
);
}
);
width = 379;
},
{
anchors = (
{
name = bottom;
position = "{307, 0}";
},
{
name = ogonek;
position = "{443, 10}";
},
{
name = top;
position = "{450, 729}";
},
{
name = topleft;
position = "{136, 729}";
}
);
layerId = "33C7CA81-8DED-4513-9072-CA0E40765DD9";
paths = (
{
closed = 1;
nodes = (
"555 0 LINE",
"561 36 LINE",
"132 36 LINE",
"189 359 LINE",
"571 359 LINE",
"577 393 LINE",
"195 393 LINE",
"248 693 LINE",
"676 693 LINE",
"682 729 LINE",
"217 729 LINE",
"89 0 LINE"
);
}
);
width = 670;
},
{
anchors = (
{
name = bottom;
position = "{319, 0}";
},
{
name = ogonek;
position = "{497, 10}";
},
{
name = top;
position = "{471, 729}";
},
{
name = topleft;
position = "{134, 729}";
}
);
layerId = "46C13DED-2BAB-471A-8D19-A1FA49A5501E";
paths = (
{
closed = 1;
nodes = (
"619 0 LINE",
"626 38 LINE",
"110 38 LINE",
"166 357 LINE",
"627 357 LINE",
"633 395 LINE",
"173 395 LINE",
"225 691 LINE",
"742 691 LINE",
"748 729 LINE",
"192 729 LINE",
"64 0 LINE"
);
}
);
width = 718;
},
{
anchors = (
{
name = bottom;
position = "{367, 0}";
},
{
name = ogonek;
position = "{569, 10}";
},
{
name = top;
position = "{390, 729}";
},
{
name = topleft;
position = "{56, 729}";
}
);
layerId = "C1814757-B5F7-4D49-B715-04BFD84ECCF6";
paths = (
{
closed = 1;
nodes = (
"670 0 LINE",
"670 39 LINE",
"148 39 LINE",
"148 358 LINE",
"613 358 LINE",
"613 396 LINE",
"148 396 LINE",
"148 690 LINE",
"671 690 LINE",
"671 729 LINE",
"109 729 LINE",
"109 0 LINE"
);
}
);
width = 723;
},
{
anchors = (
{
name = bottom;
position = "{363, 0}";
},
{
name = ogonek;
position = "{525, 10}";
},
{
name = top;
position = "{373, 729}";
},
{
name = topleft;
position = "{56, 729}";
}
);
layerId = "8B1B4E65-9831-4464-9A92-CA98D2219836";
paths = (
{
closed = 1;
nodes = (
"652 0 LINE",
"652 180 LINE",
"276 180 LINE",
"276 284 LINE",
"599 284 LINE",
"599 452 LINE",
"276 452 LINE",
"276 549 LINE",
"652 549 LINE",
"652 729 LINE",
"63 729 LINE",
"63 0 LINE"
);
}
);
width = 697;
},
{
anchors = (
{
name = bottom;
position = "{315, 0}";
},
{
name = ogonek;
position = "{455, 10}";
},
{
name = top;
position = "{452, 729}";
},
{
name = topleft;
position = "{141, 729}";
}
);
layerId = "2359B287-0F82-447F-8C68-59A72835D733";
paths = (
{
closed = 1;
nodes = (
"598 0 LINE",
"630 179 LINE",
"266 179 LINE",
"285 286 LINE",
"594 286 LINE",
"624 452 LINE",
"314 452 LINE",
"332 550 LINE",
"694 550 LINE",
"725 729 LINE",
"149 729 LINE",
"21 0 LINE"
);
}
);
width = 691;
},
{
anchors = (
{
name = bottom;
position = "{400, 0}";
},
{
name = ogonek;
position = "{602, 10}";
},
{
name = top;
position = "{408, 729}";
},
{
name = topleft;
position = "{35, 729}";
}
);
layerId = "46DCD09A-F85A-41B9-8FAA-640012B7D4F4";
paths = (
{
closed = 1;
nodes = (
"761 0 LINE",
"761 184 LINE",
"308 184 LINE",
"308 282 LINE",
"698 282 LINE",
"698 452 LINE",
"308 452 LINE",
"308 545 LINE",
"763 545 LINE",
"763 729 LINE",
"63 729 LINE",
"63 0 LINE"
);
}
);
width = 800;
},
{
anchors = (
{
name = bottom;
position = "{336, 0}";
},
{
name = ogonek;
position = "{518, 10}";
},
{
name = top;
position = "{474, 729}";
},
{
name = topleft;
position = "{117, 729}";
}
);
layerId = "0D69E86C-407B-4861-9815-978EE2313DB2";
paths = (
{
closed = 1;
nodes = (
"673 0 LINE",
"704 181 LINE",
"287 181 LINE",
"305 282 LINE",
"661 282 LINE",
"689 453 LINE",
"334 453 LINE",
"351 548 LINE",
"770 548 LINE",
"802 729 LINE",
"145 729 LINE",
"15 0 LINE"
);
}
);
width = 758;
}
);
leftKerningGroup = B;
leftMetricsKey = H;
rightKerningGroup = E;
unicode = 0045;
},
{
glyphname = F;
lastChange = "2022-06-05 15:23:09 +0000";
layers = (
{
anchors = (
{
name = bottom;
position = "{183, 0}";
},
{
name = top;
position = "{183, 729}";
}
);
layerId = "6932EABA-00D8-4526-96D6-87ADD7AC589E";
paths = (
{
closed = 1;
nodes = (
"119 0 LINE",
"119 361 LINE",
"305 361 LINE",
"305 389 LINE",
"119 389 LINE",
"119 701 LINE",
"322 701 LINE",
"322 729 LINE",
"88 729 LINE",
"88 0 LINE"
);
}
);
width = 342;
},
{
anchors = (
{
name = bottom;
position = "{210, 0}";
},
{
name = top;
position = "{210, 729}";
}
);
layerId = "E787E54A-EE3E-475A-BF02-8501A6DA5144";
paths = (
{
closed = 1;
nodes = (
"213 0 LINE",
"213 290 LINE",
"366 290 LINE",
"366 432 LINE",
"213 432 LINE",
"213 583 LINE",
"394 583 LINE",
"394 729 LINE",
"35 729 LINE",
"35 0 LINE"
);
}
);
width = 402;
},
{
anchors = (
{
name = bottom;
position = "{339, 0}";
},
{
name = top;
position = "{339, 729}";
}
);
layerId = "B743CB11-DC16-45F2-BA04-3635CB00F7DA";
paths = (
{
closed = 1;
nodes = (
"173 0 LINE",
"173 342 LINE",
"574 342 LINE",
"574 377 LINE",
"173 377 LINE",
"173 692 LINE",
"614 692 LINE",
"614 729 LINE",
"134 729 LINE",
"134 0 LINE"
);
}
);
width = 658;
},
{
anchors = (
{
name = bottom;
position = "{162, 0}";
},
{
name = top;
position = "{291, 729}";
}
);
layerId = "3257632A-050A-40C2-B21A-C728868BC46F";
paths = (
{
closed = 1;
nodes = (
"166 0 LINE",
"217 290 LINE",
"370 290 LINE",
"395 432 LINE",
"242 432 LINE",
"269 583 LINE",
"450 583 LINE",
"475 729 LINE",
"116 729 LINE",
"-12 0 LINE"
);
}
);
width = 403;
},
{
anchors = (
{
name = bottom;
position = "{138, 0}";
},
{
name = top;
position = "{266, 729}";
}
);
layerId = "84BE75FC-12C8-47E9-B302-5F6D56903923";
paths = (
{
closed = 1;
nodes = (
"74 0 LINE",
"137 361 LINE",
"323 361 LINE",
"328 389 LINE",
"142 389 LINE",
"197 701 LINE",
"400 701 LINE",
"405 729 LINE",
"171 729 LINE",
"43 0 LINE"
);
}
);
width = 342;
},
{
anchors = (
{
name = bottom;
position = "{291, 0}";
},
{
name = top;
position = "{419, 729}";
}
);
layerId = "33C7CA81-8DED-4513-9072-CA0E40765DD9";
paths = (
{
closed = 1;
nodes = (
"126 0 LINE",
"187 346 LINE",
"584 346 LINE",
"589 380 LINE",
"192 380 LINE",
"248 693 LINE",
"684 693 LINE",
"690 729 LINE",
"217 729 LINE",
"89 0 LINE"
);
}
);
width = 651;
},
{
anchors = (
{
name = bottom;
position = "{316, 0}";
},
{
name = top;
position = "{444, 729}";
}
);
layerId = "46C13DED-2BAB-471A-8D19-A1FA49A5501E";
paths = (
{
closed = 1;
nodes = (
"103 0 LINE",
"163 341 LINE",
"644 341 LINE",
"650 378 LINE",
"169 378 LINE",
"225 691 LINE",
"754 691 LINE",
"760 729 LINE",
"192 729 LINE",
"64 0 LINE"
);
}
);
width = 714;
},
{
anchors = (
{
name = bottom;
position = "{364, 0}";
},
{
name = top;
position = "{364, 729}";
}
);
layerId = "C1814757-B5F7-4D49-B715-04BFD84ECCF6";
paths = (
{
closed = 1;
nodes = (
"148 0 LINE",
"148 338 LINE",
"636 338 LINE",
"636 376 LINE",
"148 376 LINE",
"148 690 LINE",
"684 690 LINE",
"684 729 LINE",
"109 729 LINE",
"109 0 LINE"
);
}
);
width = 720;
},
{
anchors = (
{
name = bottom;
position = "{307, 0}";
},
{
name = top;
position = "{307, 729}";
}
);
layerId = "8B1B4E65-9831-4464-9A92-CA98D2219836";
paths = (
{
closed = 1;
nodes = (
"276 0 LINE",
"276 256 LINE",
"570 256 LINE",
"570 427 LINE",
"276 427 LINE",
"276 549 LINE",
"610 549 LINE",
"610 729 LINE",
"63 729 LINE",
"63 0 LINE"
);
}
);
width = 632;
},
{
anchors = (
{
name = bottom;
position = "{259, 0}";
},
{
name = top;
position = "{388, 729}";
}
);
layerId = "2359B287-0F82-447F-8C68-59A72835D733";
paths = (
{
closed = 1;
nodes = (
"236 0 LINE",
"280 256 LINE",
"557 256 LINE",
"588 423 LINE",
"309 423 LINE",
"332 550 LINE",
"649 550 LINE",
"680 729 LINE",
"149 729 LINE",
"21 0 LINE"
);
}
);
width = 622;
},
{
anchors = (
{
name = bottom;
position = "{380, 0}";
},
{
name = top;
position = "{380, 729}";
}
);
layerId = "46DCD09A-F85A-41B9-8FAA-640012B7D4F4";
paths = (
{
closed = 1;
nodes = (
"308 0 LINE",
"308 239 LINE",
"691 239 LINE",
"691 412 LINE",
"308 412 LINE",
"308 545 LINE",
"743 545 LINE",
"743 729 LINE",
"63 729 LINE",
"63 0 LINE"
);
}
);
width = 781;
},
{
anchors = (
{
name = bottom;
position = "{318, 0}";
},
{
name = top;
position = "{447, 729}";
}
);
layerId = "0D69E86C-407B-4861-9815-978EE2313DB2";
paths = (
{
closed = 1;
nodes = (
"254 0 LINE",
"297 243 LINE",
"649 243 LINE",
"680 414 LINE",
"328 414 LINE",
"351 548 LINE",
"751 548 LINE",
"784 729 LINE",
"145 729 LINE",
"15 0 LINE"
);
}
);
width = 741;
}
);
leftKerningGroup = B;
leftMetricsKey = H;
rightKerningGroup = F;
unicode = 0046;
},
{
glyphname = G;
lastChange = "2022-06-06 10:22:38 +0000";
layers = (
{
anchors = (
{
name = bottom;
position = "{223, 0}";
},
{
name = top;
position = "{223, 729}";
}
);
background = {
paths = (
{
closed = 1;
nodes = (
"284 -10 OFFCURVE",
"338 35 OFFCURVE",
"350 114 CURVE",
"354 114 LINE",
"355 0 LINE",
"378 0 LINE",
"378 362 LINE",
"222 362 LINE",
"222 334 LINE",
"354 334 LINE",
"347 341 LINE",
"347 230 LINE SMOOTH",
"347 104 OFFCURVE",
"317 18 OFFCURVE",
"216 18 CURVE SMOOTH",
"149 18 OFFCURVE",
"99 56 OFFCURVE",
"99 193 CURVE SMOOTH",
"99 307 OFFCURVE",
"99 422 OFFCURVE",
"99 536 CURVE SMOOTH",
"99 641 OFFCURVE",
"124 711 OFFCURVE",
"223 711 CURVE SMOOTH",
"312 711 OFFCURVE",
"345 653 OFFCURVE",
"347 504 CURVE",
"378 504 LINE",
"375 665 OFFCURVE",
"334 739 OFFCURVE",
"222 739 CURVE SMOOTH",
"117 739 OFFCURVE",
"68 674 OFFCURVE",
"68 536 CURVE SMOOTH",
"68 422 OFFCURVE",
"68 307 OFFCURVE",
"68 193 CURVE SMOOTH",
"68 59 OFFCURVE",
"117 -10 OFFCURVE",
"214 -10 CURVE SMOOTH"
);
}
);
};
layerId = "6932EABA-00D8-4526-96D6-87ADD7AC589E";
paths = (
{
closed = 1;
nodes = (
"290 -10 OFFCURVE",
"340 38 OFFCURVE",
"350 111 CURVE",
"354 111 LINE",
"355 0 LINE",
"378 0 LINE",
"378 362 LINE",
"222 362 LINE",
"222 334 LINE",
"354 334 LINE",
"347 341 LINE",
"347 193 LINE SMOOTH",
"347 96 OFFCURVE",
"317 18 OFFCURVE",
"216 18 CURVE SMOOTH",
"149 18 OFFCURVE",
"99 56 OFFCURVE",
"99 193 CURVE SMOOTH",
"99 536 LINE SMOOTH",
"99 641 OFFCURVE",
"124 711 OFFCURVE",
"223 711 CURVE SMOOTH",
"312 711 OFFCURVE",
"345 653 OFFCURVE",
"347 504 CURVE",
"378 504 LINE",
"375 665 OFFCURVE",
"334 739 OFFCURVE",
"222 739 CURVE SMOOTH",
"117 739 OFFCURVE",
"68 674 OFFCURVE",
"68 536 CURVE SMOOTH",
"68 193 LINE SMOOTH",
"68 59 OFFCURVE",
"117 -10 OFFCURVE",
"214 -10 CURVE SMOOTH"
);
}
);
width = 446;
},
{
anchors = (
{
name = bottom;
position = "{271, 0}";
},
{
name = top;
position = "{271, 729}";
}
);
background = {
paths = (
{
closed = 1;
nodes = (
"300 -10 OFFCURVE",
"362 27 OFFCURVE",
"377 105 CURVE",
"383 105 LINE",
"396 0 LINE",
"507 0 LINE",
"507 390 LINE",
"266 390 LINE",
"266 278 LINE",
"359 278 LINE",
"337 300 LINE",
"337 214 LINE SMOOTH",
"337 178 OFFCURVE",
"325 136 OFFCURVE",
"272 136 CURVE SMOOTH",
"229 136 OFFCURVE",
"205 156 OFFCURVE",
"205 214 CURVE SMOOTH",
"205 314 OFFCURVE",
"205 415 OFFCURVE",
"205 515 CURVE SMOOTH",
"205 574 OFFCURVE",
"229 593 OFFCURVE",
"269 593 CURVE SMOOTH",
"318 593 OFFCURVE",
"333 559 OFFCURVE",
"333 474 CURVE",
"507 474 LINE",
"509 665 OFFCURVE",
"424 739 OFFCURVE",
"271 739 CURVE SMOOTH",
"115 739 OFFCURVE",
"27 667 OFFCURVE",
"27 480 CURVE SMOOTH",
"27 397 OFFCURVE",
"27 315 OFFCURVE",
"27 209 CURVE SMOOTH",
"27 67 OFFCURVE",
"91 -10 OFFCURVE",
"216 -10 CURVE SMOOTH"
);
}
);
};
layerId = "E787E54A-EE3E-475A-BF02-8501A6DA5144";
paths = (
{
closed = 1;
nodes = (
"289 -10 OFFCURVE",
"342 25 OFFCURVE",
"357 95 CURVE",
"363 95 LINE",
"376 0 LINE",
"507 0 LINE",
"507 390 LINE",
"266 390 LINE",
"266 258 LINE",
"359 258 LINE",
"329 300 LINE",
"329 214 LINE SMOOTH",
"329 167 OFFCURVE",
"314 136 OFFCURVE",
"267 136 CURVE SMOOTH",
"230 136 OFFCURVE",
"205 155 OFFCURVE",
"205 214 CURVE SMOOTH",
"205 515 LINE SMOOTH",
"205 574 OFFCURVE",
"229 593 OFFCURVE",
"267 593 CURVE SMOOTH",
"318 593 OFFCURVE",
"334 561 OFFCURVE",
"333 474 CURVE",
"506 474 LINE",
"513 667 OFFCURVE",
"421 739 OFFCURVE",
"271 739 CURVE SMOOTH",
"115 739 OFFCURVE",
"27 667 OFFCURVE",
"27 480 CURVE SMOOTH",
"27 209 LINE SMOOTH",
"27 66 OFFCURVE",
"94 -10 OFFCURVE",
"210 -10 CURVE SMOOTH"
);
}
);
width = 534;
},
{
anchors = (
{
name = bottom;
position = "{388, 0}";
},
{
name = top;
position = "{388, 729}";
}
);
background = {
paths = (
{
closed = 1;
nodes = (
"514 -10 OFFCURVE",
"626 59 OFFCURVE",
"657 174 CURVE",
"661 174 LINE",
"665 0 LINE",
"697 0 LINE",
"697 362 LINE",
"416 362 LINE",
"416 327 LINE",
"671 327 LINE",
"653 343 LINE",
"653 300 LINE SMOOTH",
"653 103 OFFCURVE",
"520 26 OFFCURVE",
"379 26 CURVE SMOOTH",
"212 26 OFFCURVE",
"103 126 OFFCURVE",
"103 316 CURVE SMOOTH",
"103 348 OFFCURVE",
"103 380 OFFCURVE",
"103 412 CURVE SMOOTH",
"103 580 OFFCURVE",
"203 702 OFFCURVE",
"394 702 CURVE SMOOTH",
"522 702 OFFCURVE",
"635 638 OFFCURVE",
"656 503 CURVE",
"696 503 LINE",
"678 646 OFFCURVE",
"560 738 OFFCURVE",
"393 738 CURVE SMOOTH",
"188 738 OFFCURVE",
"60 610 OFFCURVE",
"60 362 CURVE SMOOTH",
"60 130 OFFCURVE",
"170 -10 OFFCURVE",
"375 -10 CURVE SMOOTH"
);
}
);
};
guideLines = (
{
position = "{680, 327}";
},
{
position = "{697, 362}";
}
);
layerId = "B743CB11-DC16-45F2-BA04-3635CB00F7DA";
paths = (
{
closed = 1;
nodes = (
"518 -10 OFFCURVE",
"627 64 OFFCURVE",
"657 174 CURVE",
"661 174 LINE",
"665 0 LINE",
"697 0 LINE",
"697 362 LINE",
"416 362 LINE",
"416 327 LINE",
"680 327 LINE",
"653 354 LINE",
"653 300 LINE SMOOTH",
"653 136 OFFCURVE",
"557 26 OFFCURVE",
"385 26 CURVE SMOOTH",
"216 26 OFFCURVE",
"103 130 OFFCURVE",
"103 316 CURVE SMOOTH",
"103 412 LINE SMOOTH",
"103 580 OFFCURVE",
"203 702 OFFCURVE",
"395 702 CURVE SMOOTH",
"529 702 OFFCURVE",
"632 634 OFFCURVE",
"654 514 CURVE",
"694 514 LINE",
"674 648 OFFCURVE",
"554 738 OFFCURVE",
"395 738 CURVE SMOOTH",
"187 738 OFFCURVE",
"60 610 OFFCURVE",
"60 366 CURVE SMOOTH",
"60 361 LINE SMOOTH",
"60 138 OFFCURVE",
"164 -10 OFFCURVE",
"385 -10 CURVE SMOOTH"
);
}
);
width = 813;
},
{
anchors = (
{
name = bottom;
position = "{224, 0}";
},
{
name = top;
position = "{342, 729}";
}
);
layerId = "3257632A-050A-40C2-B21A-C728868BC46F";
paths = (
{
closed = 1;
nodes = (
"272 -10 OFFCURVE",
"325 26 OFFCURVE",
"350 101 CURVE",
"354 101 LINE",
"347 0 LINE",
"460 0 LINE",
"529 387 LINE",
"287 387 LINE",
"267 275 LINE",
"364 275 LINE",
"344 300 LINE",
"327 205 LINE SMOOTH",
"321 171 OFFCURVE",
"306 131 OFFCURVE",
"252 131 CURVE SMOOTH",
"202 131 OFFCURVE",
"187 163 OFFCURVE",
"196 215 CURVE SMOOTH",
"249 518 LINE SMOOTH",
"258 569 OFFCURVE",
"275 592 OFFCURVE",
"318 592 CURVE SMOOTH",
"383 592 OFFCURVE",
"380 543 OFFCURVE",
"369 471 CURVE",
"544 471 LINE",
"570 643 OFFCURVE",
"499 739 OFFCURVE",
"324 739 CURVE SMOOTH",
"182 739 OFFCURVE",
"98 675 OFFCURVE",
"68 503 CURVE SMOOTH",
"23 246 LINE SMOOTH",
"-4 84 OFFCURVE",
"47 -10 OFFCURVE",
"193 -10 CURVE SMOOTH"
);
}
);
width = 536;
},
{
anchors = (
{
name = bottom;
position = "{178, 0}";
},
{
name = top;
position = "{291, 729}";
}
);
layerId = "84BE75FC-12C8-47E9-B302-5F6D56903923";
paths = (
{
closed = 1;
nodes = (
"246 -10 OFFCURVE",
"300 30 OFFCURVE",
"324 103 CURVE",
"328 103 LINE",
"311 0 LINE",
"334 0 LINE",
"396 361 LINE",
"269 361 LINE",
"264 333 LINE",
"371 333 LINE",
"363 342 LINE",
"341 219 LINE SMOOTH",
"320 99 OFFCURVE",
"280 18 OFFCURVE",
"190 18 CURVE SMOOTH",
"109 18 OFFCURVE",
"66 69 OFFCURVE",
"89 201 CURVE SMOOTH",
"149 545 LINE SMOOTH",
"169 658 OFFCURVE",
"201 711 OFFCURVE",
"288 711 CURVE SMOOTH",
"396 710 OFFCURVE",
"410 637 OFFCURVE",
"391 504 CURVE",
"422 504 LINE",
"443 648 OFFCURVE",
"419 738 OFFCURVE",
"290 738 CURVE SMOOTH",
"203 738 OFFCURVE",
"146 700 OFFCURVE",
"119 548 CURVE SMOOTH",
"59 206 LINE SMOOTH",
"36 76 OFFCURVE",
"76 -10 OFFCURVE",
"187 -10 CURVE SMOOTH"
);
}
);
width = 447;
},
{
anchors = (
{
name = bottom;
position = "{354, 0}";
},
{
name = top;
position = "{439, 729}";
}
);
background = {
paths = (
{
closed = 1;
nodes = (
"640 -10 OFFCURVE",
"762 176 OFFCURVE",
"762 415 CURVE SMOOTH",
"762 423 LINE SMOOTH",
"762 623 OFFCURVE",
"631 739 OFFCURVE",
"433 739 CURVE SMOOTH",
"202 739 OFFCURVE",
"80 553 OFFCURVE",
"80 314 CURVE SMOOTH",
"80 306 LINE SMOOTH",
"80 106 OFFCURVE",
"211 -10 OFFCURVE",
"409 -10 CURVE SMOOTH"
);
},
{
closed = 1;
nodes = (
"214 26 OFFCURVE",
"93 152 OFFCURVE",
"124 353 CURVE SMOOTH",
"140 449 LINE SMOOTH",
"166 599 OFFCURVE",
"265 703 OFFCURVE",
"433 703 CURVE SMOOTH",
"628 703 OFFCURVE",
"751 577 OFFCURVE",
"718 376 CURVE SMOOTH",
"702 280 LINE SMOOTH",
"677 130 OFFCURVE",
"577 26 OFFCURVE",
"409 26 CURVE SMOOTH"
);
}
);
};
guideLines = (
{
position = "{714, 327}";
},
{
position = "{731, 362}";
}
);
layerId = "33C7CA81-8DED-4513-9072-CA0E40765DD9";
paths = (
{
closed = 1;
nodes = (
"509 -10 OFFCURVE",
"609 44 OFFCURVE",
"649 125 CURVE",
"652 125 LINE",
"633 0 LINE",
"665 0 LINE",
"728 362 LINE",
"457 362 LINE",
"452 328 LINE",
"709 328 LINE",
"687 354 LINE",
"665 236 LINE SMOOTH",
"640 102 OFFCURVE",
"545 26 OFFCURVE",
"384 26 CURVE SMOOTH",
"218 26 OFFCURVE",
"91 152 OFFCURVE",
"124 353 CURVE SMOOTH",
"140 449 LINE SMOOTH",
"165 599 OFFCURVE",
"265 703 OFFCURVE",
"434 703 CURVE SMOOTH",
"581 703 OFFCURVE",
"675 628 OFFCURVE",
"697 513 CURVE",
"739 513 LINE",
"716 653 OFFCURVE",
"601 739 OFFCURVE",
"434 739 CURVE SMOOTH",
"202 739 OFFCURVE",
"80 553 OFFCURVE",
"80 314 CURVE SMOOTH",
"80 306 LINE SMOOTH",
"80 106 OFFCURVE",
"215 -10 OFFCURVE",
"384 -10 CURVE SMOOTH"
);
}
);
width = 806;
},
{
anchors = (
{
name = bottom;
position = "{400, 0}";
},
{
name = top;
position = "{482, 729}";
}
);
layerId = "46C13DED-2BAB-471A-8D19-A1FA49A5501E";
paths = (
{
closed = 1;
nodes = (
"593 -10 OFFCURVE",
"707 43 OFFCURVE",
"756 131 CURVE",
"760 131 LINE",
"740 0 LINE",
"771 0 LINE",
"835 362 LINE",
"507 362 LINE",
"501 326 LINE",
"796 326 LINE",
"790 335 LINE",
"772 240 LINE SMOOTH",
"748 111 OFFCURVE",
"643 27 OFFCURVE",
"462 27 CURVE SMOOTH",
"253 27 OFFCURVE",
"96 152 OFFCURVE",
"125 354 CURVE SMOOTH",
"137 438 LINE SMOOTH",
"162 611 OFFCURVE",
"290 702 OFFCURVE",
"477 702 CURVE SMOOTH",
"637 702 OFFCURVE",
"770 623 OFFCURVE",
"803 505 CURVE",
"847 505 LINE",
"813 644 OFFCURVE",
"664 739 OFFCURVE",
"478 739 CURVE SMOOTH",
"230 739 OFFCURVE",
"80 577 OFFCURVE",
"80 337 CURVE SMOOTH",
"80 331 LINE SMOOTH",
"82 118 OFFCURVE",
"231 -10 OFFCURVE",
"462 -10 CURVE SMOOTH"
);
}
);
width = 885;
},
{
anchors = (
{
name = bottom;
position = "{451, 0}";
},
{
name = top;
position = "{451, 729}";
}
);
background = {
paths = (
{
closed = 1;
nodes = (
"608 -10 OFFCURVE",
"742 66 OFFCURVE",
"781 181 CURVE",
"785 181 LINE",
"790 0 LINE",
"823 0 LINE",
"823 362 LINE",
"490 362 LINE",
"490 325 LINE",
"808 325 LINE",
"778 356 LINE",
"778 291 LINE SMOOTH",
"778 132 OFFCURVE",
"656 28 OFFCURVE",
"447 28 CURVE SMOOTH",
"244 28 OFFCURVE",
"113 142 OFFCURVE",
"113 336 CURVE SMOOTH",
"113 354 OFFCURVE",
"113 374 OFFCURVE",
"113 392 CURVE SMOOTH",
"113 565 OFFCURVE",
"237 700 OFFCURVE",
"465 700 CURVE SMOOTH",
"614 700 OFFCURVE",
"751 639 OFFCURVE",
"781 503 CURVE",
"821 503 LINE",
"796 645 OFFCURVE",
"652 738 OFFCURVE",
"464 738 CURVE SMOOTH",
"223 738 OFFCURVE",
"68 600 OFFCURVE",
"68 333 CURVE SMOOTH",
"68 348 OFFCURVE",
"68 368 OFFCURVE",
"68 384 CURVE SMOOTH",
"68 141 OFFCURVE",
"200 -10 OFFCURVE",
"447 -10 CURVE SMOOTH"
);
}
);
};
layerId = "C1814757-B5F7-4D49-B715-04BFD84ECCF6";
paths = (
{
closed = 1;
nodes = (
"607 -10 OFFCURVE",
"738 59 OFFCURVE",
"781 181 CURVE",
"785 181 LINE",
"790 0 LINE",
"823 0 LINE",
"823 362 LINE",
"490 362 LINE",
"490 325 LINE",
"805 325 LINE",
"778 352 LINE",
"778 291 LINE SMOOTH",
"778 132 OFFCURVE",
"652 28 OFFCURVE",
"436 28 CURVE SMOOTH",
"213 28 OFFCURVE",
"103 164 OFFCURVE",
"103 336 CURVE SMOOTH",
"103 392 LINE SMOOTH",
"103 570 OFFCURVE",
"226 700 OFFCURVE",
"456 700 CURVE SMOOTH",
"624 700 OFFCURVE",
"751 629 OFFCURVE",
"779 503 CURVE",
"821 503 LINE",
"796 644 OFFCURVE",
"650 738 OFFCURVE",
"456 738 CURVE SMOOTH",
"226 738 OFFCURVE",
"58 607 OFFCURVE",
"58 366 CURVE SMOOTH",
"58 362 LINE SMOOTH",
"58 121 OFFCURVE",
"212 -10 OFFCURVE",
"436 -10 CURVE SMOOTH"
);
}
);
width = 891;
},
{
anchors = (
{
name = bottom;
position = "{396, 0}";
},
{
name = top;
position = "{396, 736}";
}
);
background = {
paths = (
{
closed = 1;
nodes = (
"463 -10 OFFCURVE",
"553 36 OFFCURVE",
"579 106 CURVE",
"586 106 LINE",
"601 0 LINE",
"757 0 LINE",
"757 404 LINE",
"379 404 LINE",
"379 255 LINE",
"595 255 LINE",
"529 310 LINE",
"529 287 LINE SMOOTH",
"529 219 OFFCURVE",
"481 174 OFFCURVE",
"396 174 CURVE SMOOTH",
"312 174 OFFCURVE",
"254 215 OFFCURVE",
"254 304 CURVE SMOOTH",
"254 424 LINE SMOOTH",
"254 502 OFFCURVE",
"303 554 OFFCURVE",
"397 554 CURVE SMOOTH",
"467 554 OFFCURVE",
"518 523 OFFCURVE",
"532 469 CURVE",
"751 469 LINE",
"740 634 OFFCURVE",
"603 738 OFFCURVE",
"401 738 CURVE SMOOTH",
"179 738 OFFCURVE",
"31 614 OFFCURVE",
"31 361 CURVE SMOOTH",
"31 357 LINE SMOOTH",
"31 137 OFFCURVE",
"134 -10 OFFCURVE",
"352 -10 CURVE SMOOTH"
);
}
);
};
layerId = "8B1B4E65-9831-4464-9A92-CA98D2219836";
paths = (
{
closed = 1;
nodes = (
"464 -10 OFFCURVE",
"550 32 OFFCURVE",
"579 102 CURVE",
"586 102 LINE",
"601 0 LINE",
"757 0 LINE",
"757 404 LINE",
"379 404 LINE",
"379 255 LINE",
"595 255 LINE",
"539 313 LINE",
"539 287 LINE SMOOTH",
"539 206 OFFCURVE",
"487 168 OFFCURVE",
"395 168 CURVE SMOOTH",
"309 168 OFFCURVE",
"254 210 OFFCURVE",
"254 301 CURVE SMOOTH",
"254 422 LINE SMOOTH",
"254 501 OFFCURVE",
"302 555 OFFCURVE",
"400 555 CURVE SMOOTH",
"467 555 OFFCURVE",
"516 530 OFFCURVE",
"532 478 CURVE",
"751 478 LINE",
"740 641 OFFCURVE",
"602 739 OFFCURVE",
"403 739 CURVE SMOOTH",
"183 739 OFFCURVE",
"31 613 OFFCURVE",
"31 358 CURVE SMOOTH",
"31 354 LINE SMOOTH",
"31 106 OFFCURVE",
"150 -10 OFFCURVE",
"356 -10 CURVE SMOOTH"
);
}
);
width = 803;
},
{
anchors = (
{
name = bottom;
position = "{341, 0}";
},
{
name = top;
position = "{457, 740}";
}
);
background = {
paths = (
{
closed = 1;
nodes = (
"408 -10 OFFCURVE",
"501 32 OFFCURVE",
"543 102 CURVE",
"550 102 LINE",
"547 0 LINE",
"703 0 LINE",
"774 404 LINE",
"396 404 LINE",
"370 255 LINE",
"586 255 LINE",
"540 313 LINE",
"535 287 LINE SMOOTH",
"521 206 OFFCURVE",
"462 168 OFFCURVE",
"370 168 CURVE SMOOTH",
"284 168 OFFCURVE",
"237 210 OFFCURVE",
"253 301 CURVE SMOOTH",
"274 422 LINE SMOOTH",
"288 501 OFFCURVE",
"346 555 OFFCURVE",
"444 555 CURVE SMOOTH",
"511 555 OFFCURVE",
"555 530 OFFCURVE",
"562 478 CURVE",
"781 478 LINE",
"799 641 OFFCURVE",
"678 739 OFFCURVE",
"479 739 CURVE SMOOTH",
"259 739 OFFCURVE",
"85 613 OFFCURVE",
"40 358 CURVE SMOOTH",
"39 354 LINE SMOOTH",
"-5 106 OFFCURVE",
"94 -10 OFFCURVE",
"300 -10 CURVE SMOOTH"
);
}
);
};
layerId = "2359B287-0F82-447F-8C68-59A72835D733";
paths = (
{
closed = 1;
nodes = (
"443 -9 OFFCURVE",
"513 27 OFFCURVE",
"539 73 CURVE",
"548 73 LINE",
"546 0 LINE",
"699 0 LINE",
"773 405 LINE",
"398 405 LINE",
"372 257 LINE",
"557 257 LINE",
"527 293 LINE",
"523 273 LINE SMOOTH",
"509 202 OFFCURVE",
"464 174 OFFCURVE",
"393 174 CURVE SMOOTH",
"298 174 OFFCURVE",
"244 232 OFFCURVE",
"264 344 CURVE SMOOTH",
"279 427 LINE SMOOTH",
"296 521 OFFCURVE",
"341 556 OFFCURVE",
"427 556 CURVE SMOOTH",
"493 556 OFFCURVE",
"540 526 OFFCURVE",
"555 478 CURVE",
"774 478 LINE",
"758 645 OFFCURVE",
"621 739 OFFCURVE",
"429 739 CURVE SMOOTH",
"201 739 OFFCURVE",
"47 587 OFFCURVE",
"47 302 CURVE SMOOTH",
"47 293 LINE SMOOTH",
"47 112 OFFCURVE",
"151 -9 OFFCURVE",
"337 -9 CURVE SMOOTH"
);
}
);
width = 804;
},
{
anchors = (
{
name = bottom;
position = "{465, 0}";
},
{
name = top;
position = "{465, 729}";
}
);
layerId = "46DCD09A-F85A-41B9-8FAA-640012B7D4F4";
paths = (
{
closed = 1;
nodes = (
"548 -10 OFFCURVE",
"660 44 OFFCURVE",
"690 108 CURVE",
"697 108 LINE",
"715 0 LINE",
"895 0 LINE",
"895 407 LINE",
"468 407 LINE",
"468 253 LINE",
"689 253 LINE",
"631 311 LINE",
"631 295 LINE SMOOTH",
"631 225 OFFCURVE",
"564 179 OFFCURVE",
"469 179 CURVE SMOOTH",
"360 179 OFFCURVE",
"284 222 OFFCURVE",
"284 323 CURVE SMOOTH",
"284 406 LINE SMOOTH",
"284 489 OFFCURVE",
"344 550 OFFCURVE",
"469 550 CURVE SMOOTH",
"559 550 OFFCURVE",
"619 517 OFFCURVE",
"634 469 CURVE",
"887 469 LINE",
"872 631 OFFCURVE",
"704 739 OFFCURVE",
"470 739 CURVE SMOOTH",
"215 739 OFFCURVE",
"28 608 OFFCURVE",
"28 365 CURVE SMOOTH",
"28 346 LINE SMOOTH",
"28 134 OFFCURVE",
"166 -10 OFFCURVE",
"418 -10 CURVE SMOOTH"
);
}
);
width = 942;
},
{
anchors = (
{
name = bottom;
position = "{408, 0}";
},
{
name = top;
position = "{522, 758}";
}
);
layerId = "0D69E86C-407B-4861-9815-978EE2313DB2";
paths = (
{
closed = 1;
nodes = (
"521 -10 OFFCURVE",
"617 28 OFFCURVE",
"647 84 CURVE",
"659 84 LINE",
"658 0 LINE",
"828 0 LINE",
"901 407 LINE",
"492 407 LINE",
"464 254 LINE",
"713 254 LINE",
"639 330 LINE",
"632 285 LINE SMOOTH",
"620 212 OFFCURVE",
"560 172 OFFCURVE",
"459 172 CURVE SMOOTH",
"326 172 OFFCURVE",
"273 240 OFFCURVE",
"291 340 CURVE SMOOTH",
"307 434 LINE SMOOTH",
"319 502 OFFCURVE",
"368 553 OFFCURVE",
"479 553 CURVE SMOOTH",
"565 553 OFFCURVE",
"628 524 OFFCURVE",
"647 474 CURVE",
"893 474 LINE",
"875 633 OFFCURVE",
"712 739 OFFCURVE",
"484 739 CURVE SMOOTH",
"223 739 OFFCURVE",
"47 594 OFFCURVE",
"47 333 CURVE SMOOTH",
"47 322 LINE SMOOTH",
"47 123 OFFCURVE",
"191 -10 OFFCURVE",
"407 -10 CURVE SMOOTH"
);
}
);
width = 925;
}
);
leftKerningGroup = C;
leftMetricsKey = O;
rightKerningGroup = G;
unicode = 0047;
},
{
glyphname = H;
lastChange = "2022-06-08 12:00:31 +0000";
layers = (
{
anchors = (
{
name = bottom;
position = "{239, 0}";
},
{
name = center;
position = "{239, 595}";
},
{
name = top;
position = "{239, 729}";
},
{
name = topleft;
position = "{42, 729}";
}
);
layerId = "6932EABA-00D8-4526-96D6-87ADD7AC589E";
paths = (
{
closed = 1;
nodes = (
"389 0 LINE",
"389 729 LINE",
"358 729 LINE",
"358 0 LINE"
);
},
{
closed = 1;
nodes = (
"119 0 LINE",
"119 729 LINE",
"88 729 LINE",
"88 0 LINE"
);
},
{
closed = 1;
nodes = (
"365 364 LINE",
"365 392 LINE",
"112 392 LINE",
"112 364 LINE"
);
}
);
width = 477;
},
{
anchors = (
{
name = bottom;
position = "{266, 0}";
},
{
name = center;
position = "{266, 595}";
},
{
name = top;
position = "{266, 729}";
},
{
name = topleft;
position = "{35, 729}";
}
);
layerId = "E787E54A-EE3E-475A-BF02-8501A6DA5144";
paths = (
{
closed = 1;
nodes = (
"496 0 LINE",
"496 729 LINE",
"318 729 LINE",
"318 0 LINE"
);
},
{
closed = 1;
nodes = (
"213 0 LINE",
"213 729 LINE",
"35 729 LINE",
"35 0 LINE"
);
},
{
closed = 1;
nodes = (
"334 293 LINE",
"334 439 LINE",
"197 439 LINE",
"197 293 LINE"
);
}
);
width = 530;
},
{
anchors = (
{
name = bottom;
position = "{422, 0}";
},
{
name = center;
position = "{422, 595}";
},
{
name = top;
position = "{422, 729}";
},
{
name = topleft;
position = "{53, 729}";
}
);
layerId = "B743CB11-DC16-45F2-BA04-3635CB00F7DA";
paths = (
{
closed = 1;
nodes = (
"710 0 LINE",
"710 729 LINE",
"670 729 LINE",
"670 0 LINE"
);
},
{
closed = 1;
nodes = (
"173 0 LINE",
"173 729 LINE",
"134 729 LINE",
"134 0 LINE"
);
},
{
closed = 1;
nodes = (
"679 351 LINE",
"679 388 LINE",
"164 388 LINE",
"164 351 LINE"
);
}
);
width = 844;
},
{
anchors = (
{
name = bottom;
position = "{218, 0}";
},
{
name = center;
position = "{323, 595}";
},
{
name = top;
position = "{347, 729}";
},
{
name = topleft;
position = "{116, 729}";
}
);
layerId = "3257632A-050A-40C2-B21A-C728868BC46F";
paths = (
{
closed = 1;
nodes = (
"449 0 LINE",
"577 729 LINE",
"399 729 LINE",
"271 0 LINE"
);
},
{
closed = 1;
nodes = (
"166 0 LINE",
"294 729 LINE",
"116 729 LINE",
"-12 0 LINE"
);
},
{
closed = 1;
nodes = (
"338 293 LINE",
"364 439 LINE",
"227 439 LINE",
"201 293 LINE"
);
}
);
width = 531;
},
{
anchors = (
{
name = bottom;
position = "{194, 0}";
},
{
name = center;
position = "{298, 595}";
},
{
name = top;
position = "{322, 729}";
},
{
name = topleft;
position = "{125, 729}";
}
);
layerId = "84BE75FC-12C8-47E9-B302-5F6D56903923";
paths = (
{
closed = 1;
nodes = (
"344 0 LINE",
"472 729 LINE",
"441 729 LINE",
"313 0 LINE"
);
},
{
closed = 1;
nodes = (
"74 0 LINE",
"202 729 LINE",
"171 729 LINE",
"43 0 LINE"
);
},
{
closed = 1;
nodes = (
"384 364 LINE",
"389 392 LINE",
"136 392 LINE",
"131 364 LINE"
);
}
);
width = 477;
},
{
anchors = (
{
name = bottom;
position = "{375, 0}";
},
{
name = center;
position = "{479, 595}";
},
{
name = top;
position = "{503, 729}";
},
{
name = topleft;
position = "{136, 729}";
}
);
layerId = "33C7CA81-8DED-4513-9072-CA0E40765DD9";
paths = (
{
closed = 1;
nodes = (
"659 0 LINE",
"788 729 LINE",
"750 729 LINE",
"621 0 LINE"
);
},
{
closed = 1;
nodes = (
"126 0 LINE",
"255 729 LINE",
"218 729 LINE",
"89 0 LINE"
);
},
{
closed = 1;
nodes = (
"692 353 LINE",
"698 389 LINE",
"185 389 LINE",
"179 353 LINE"
);
}
);
width = 839;
},
{
anchors = (
{
name = bottom;
position = "{402, 0}";
},
{
name = center;
position = "{507, 591}";
},
{
name = top;
position = "{530, 729}";
},
{
name = topleft;
position = "{135, 729}";
}
);
layerId = "46C13DED-2BAB-471A-8D19-A1FA49A5501E";
paths = (
{
closed = 1;
nodes = (
"739 0 LINE",
"868 729 LINE",
"828 729 LINE",
"699 0 LINE"
);
},
{
closed = 1;
nodes = (
"104 0 LINE",
"234 729 LINE",
"193 729 LINE",
"64 0 LINE"
);
},
{
closed = 1;
nodes = (
"770 350 LINE",
"776 387 LINE",
"163 387 LINE",
"157 350 LINE"
);
}
);
width = 894;
},
{
anchors = (
{
name = bottom;
position = "{452, 0}";
},
{
name = center;
position = "{452, 591}";
},
{
name = top;
position = "{451, 729}";
},
{
name = topleft;
position = "{56, 729}";
}
);
layerId = "C1814757-B5F7-4D49-B715-04BFD84ECCF6";
paths = (
{
closed = 1;
nodes = (
"795 0 LINE",
"795 729 LINE",
"756 729 LINE",
"756 0 LINE"
);
},
{
closed = 1;
nodes = (
"148 0 LINE",
"148 729 LINE",
"109 729 LINE",
"109 0 LINE"
);
},
{
closed = 1;
nodes = (
"763 349 LINE",
"763 388 LINE",
"138 388 LINE",
"138 349 LINE"
);
}
);
width = 904;
},
{
anchors = (
{
name = bottom;
position = "{389, 0}";
},
{
name = center;
position = "{389, 600}";
},
{
name = top;
position = "{389, 729}";
},
{
name = topleft;
position = "{26, 729}";
}
);
layerId = "8B1B4E65-9831-4464-9A92-CA98D2219836";
paths = (
{
closed = 1;
nodes = (
"713 0 LINE",
"713 729 LINE",
"501 729 LINE",
"501 0 LINE"
);
},
{
closed = 1;
nodes = (
"276 0 LINE",
"276 729 LINE",
"63 729 LINE",
"63 0 LINE"
);
},
{
closed = 1;
nodes = (
"517 279 LINE",
"517 459 LINE",
"260 459 LINE",
"260 279 LINE"
);
}
);
width = 776;
},
{
anchors = (
{
name = bottom;
position = "{346, 0}";
},
{
name = center;
position = "{451, 600}";
},
{
name = top;
position = "{474, 729}";
},
{
name = topleft;
position = "{111, 729}";
}
);
layerId = "2359B287-0F82-447F-8C68-59A72835D733";
paths = (
{
closed = 1;
nodes = (
"671 0 LINE",
"799 729 LINE",
"584 729 LINE",
"456 0 LINE"
);
},
{
closed = 1;
nodes = (
"236 0 LINE",
"364 729 LINE",
"149 729 LINE",
"21 0 LINE"
);
},
{
closed = 1;
nodes = (
"523 279 LINE",
"554 459 LINE",
"299 459 LINE",
"268 279 LINE"
);
}
);
width = 788;
},
{
anchors = (
{
name = bottom;
position = "{486, 0}";
},
{
name = center;
position = "{486, 598}";
},
{
name = top;
position = "{486, 729}";
},
{
name = topleft;
position = "{35, 729}";
}
);
layerId = "46DCD09A-F85A-41B9-8FAA-640012B7D4F4";
paths = (
{
closed = 1;
nodes = (
"907 0 LINE",
"907 729 LINE",
"663 729 LINE",
"663 0 LINE"
);
},
{
closed = 1;
nodes = (
"308 0 LINE",
"308 729 LINE",
"63 729 LINE",
"63 0 LINE"
);
},
{
closed = 1;
nodes = (
"679 277 LINE",
"679 463 LINE",
"292 463 LINE",
"292 277 LINE"
);
}
);
width = 970;
},
{
anchors = (
{
name = bottom;
position = "{419, 0}";
},
{
name = center;
position = "{524, 598}";
},
{
name = top;
position = "{551, 729}";
},
{
name = topleft;
position = "{118, 729}";
}
);
layerId = "0D69E86C-407B-4861-9815-978EE2313DB2";
paths = (
{
closed = 1;
nodes = (
"823 0 LINE",
"952 729 LINE",
"713 729 LINE",
"585 0 LINE"
);
},
{
closed = 1;
nodes = (
"254 0 LINE",
"383 729 LINE",
"145 729 LINE",
"15 0 LINE"
);
},
{
closed = 1;
nodes = (
"650 278 LINE",
"682 462 LINE",
"319 462 LINE",
"288 278 LINE"
);
}
);
width = 934;
}
);
leftKerningGroup = B;
unicode = 0048;
},
{
glyphname = I;
lastChange = "2022-06-05 15:23:09 +0000";
layers = (
{
anchors = (
{
name = bottom;
position = "{104, 0}";
},
{
name = ogonek;
position = "{100, 10}";
},
{
name = top;
position = "{104, 729}";
},
{
name = topleft;
position = "{42, 729}";
}
);
layerId = "6932EABA-00D8-4526-96D6-87ADD7AC589E";
paths = (
{
closed = 1;
nodes = (
"119 0 LINE",
"119 729 LINE",
"88 729 LINE",
"88 0 LINE"
);
}
);
width = 207;
},
{
anchors = (
{
name = bottom;
position = "{124, 0}";
},
{
name = ogonek;
position = "{133, 10}";
},
{
name = top;
position = "{124, 729}";
},
{
name = topleft;
position = "{35, 729}";
}
);
layerId = "E787E54A-EE3E-475A-BF02-8501A6DA5144";
paths = (
{
closed = 1;
nodes = (
"213 0 LINE",
"213 729 LINE",
"35 729 LINE",
"35 0 LINE"
);
}
);
width = 247;
},
{
anchors = (
{
name = bottom;
position = "{154, 0}";
},
{
name = ogonek;
position = "{154, 10}";
},
{
name = top;
position = "{154, 729}";
},
{
name = topleft;
position = "{53, 729}";
}
);
layerId = "B743CB11-DC16-45F2-BA04-3635CB00F7DA";
paths = (
{
closed = 1;
nodes = (
"173 0 LINE",
"173 729 LINE",
"134 729 LINE",
"134 0 LINE"
);
}
);
width = 307;
},
{
anchors = (
{
name = bottom;
position = "{77, 0}";
},
{
name = ogonek;
position = "{88, 10}";
},
{
name = top;
position = "{206, 729}";
},
{
name = topleft;
position = "{116, 729}";
}
);
layerId = "3257632A-050A-40C2-B21A-C728868BC46F";
paths = (
{
closed = 1;
nodes = (
"166 0 LINE",
"294 729 LINE",
"116 729 LINE",
"-12 0 LINE"
);
}
);
width = 248;
},
{
anchors = (
{
name = bottom;
position = "{59, 0}";
},
{
name = ogonek;
position = "{56, 10}";
},
{
name = top;
position = "{187, 729}";
},
{
name = topleft;
position = "{125, 729}";
}
);
layerId = "84BE75FC-12C8-47E9-B302-5F6D56903923";
paths = (
{
closed = 1;
nodes = (
"74 0 LINE",
"202 729 LINE",
"171 729 LINE",
"43 0 LINE"
);
}
);
width = 207;
},
{
anchors = (
{
name = bottom;
position = "{108, 0}";
},
{
name = ogonek;
position = "{107, 10}";
},
{
name = top;
position = "{236, 729}";
},
{
name = topleft;
position = "{136, 729}";
}
);
layerId = "33C7CA81-8DED-4513-9072-CA0E40765DD9";
paths = (
{
closed = 1;
nodes = (
"126 0 LINE",
"255 729 LINE",
"218 729 LINE",
"89 0 LINE"
);
}
);
width = 306;
},
{
anchors = (
{
name = bottom;
position = "{85, 0}";
},
{
name = ogonek;
position = "{82, 10}";
},
{
name = top;
position = "{213, 729}";
},
{
name = topleft;
position = "{137, 729}";
}
);
layerId = "46C13DED-2BAB-471A-8D19-A1FA49A5501E";
paths = (
{
closed = 1;
nodes = (
"104 0 LINE",
"234 729 LINE",
"193 729 LINE",
"64 0 LINE"
);
}
);
width = 260;
},
{
anchors = (
{
name = bottom;
position = "{129, 0}";
},
{
name = ogonek;
position = "{129, 10}";
},
{
name = top;
position = "{129, 729}";
},
{
name = topleft;
position = "{56, 729}";
}
);
layerId = "C1814757-B5F7-4D49-B715-04BFD84ECCF6";
paths = (
{
closed = 1;
nodes = (
"148 0 LINE",
"148 729 LINE",
"109 729 LINE",
"109 0 LINE"
);
}
);
width = 257;
},
{
anchors = (
{
name = bottom;
position = "{170, 0}";
},
{
name = ogonek;
position = "{181, 10}";
},
{
name = top;
position = "{170, 729}";
},
{
name = topleft;
position = "{26, 729}";
}
);
layerId = "8B1B4E65-9831-4464-9A92-CA98D2219836";
paths = (
{
closed = 1;
nodes = (
"276 0 LINE",
"276 729 LINE",
"63 729 LINE",
"63 0 LINE"
);
}
);
width = 339;
},
{
anchors = (
{
name = bottom;
position = "{128, 0}";
},
{
name = ogonek;
position = "{141, 10}";
},
{
name = top;
position = "{257, 729}";
},
{
name = topleft;
position = "{111, 729}";
}
);
layerId = "2359B287-0F82-447F-8C68-59A72835D733";
paths = (
{
closed = 1;
nodes = (
"236 0 LINE",
"364 729 LINE",
"149 729 LINE",
"21 0 LINE"
);
}
);
width = 353;
},
{
anchors = (
{
name = bottom;
position = "{184, 0}";
},
{
name = ogonek;
position = "{197, 10}";
},
{
name = top;
position = "{184, 729}";
},
{
name = topleft;
position = "{38, 729}";
}
);
layerId = "46DCD09A-F85A-41B9-8FAA-640012B7D4F4";
paths = (
{
closed = 1;
nodes = (
"308 0 LINE",
"308 729 LINE",
"63 729 LINE",
"63 0 LINE"
);
}
);
width = 371;
},
{
anchors = (
{
name = bottom;
position = "{136, 0}";
},
{
name = ogonek;
position = "{154, 10}";
},
{
name = top;
position = "{266, 729}";
},
{
name = topleft;
position = "{120, 729}";
}
);
layerId = "0D69E86C-407B-4861-9815-978EE2313DB2";
paths = (
{
closed = 1;
nodes = (
"254 0 LINE",
"383 729 LINE",
"145 729 LINE",
"15 0 LINE"
);
}
);
width = 365;
}
);
leftKerningGroup = B;
leftMetricsKey = H;
rightMetricsKey = H;
unicode = 0049;
},
{
glyphname = J;
lastChange = "2022-06-05 15:23:45 +0000";
layers = (
{
anchors = (
{
name = bottom;
position = "{132, 0}";
},
{
name = top;
position = "{132, 729}";
}
);
layerId = "6932EABA-00D8-4526-96D6-87ADD7AC589E";
paths = (
{
closed = 1;
nodes = (
"149 0 LINE SMOOTH",
"193 0 OFFCURVE",
"212 14 OFFCURVE",
"212 57 CURVE SMOOTH",
"212 729 LINE",
"181 729 LINE",
"181 28 LINE",
"27 28 LINE",
"27 0 LINE"
);
}
);
width = 300;
},
{
anchors = (
{
name = bottom;
position = "{143, 0}";
},
{
name = top;
position = "{205, 729}";
}
);
layerId = "E787E54A-EE3E-475A-BF02-8501A6DA5144";
paths = (
{
closed = 1;
nodes = (
"156 0 LINE SMOOTH",
"239 0 OFFCURVE",
"294 45 OFFCURVE",
"294 139 CURVE SMOOTH",
"294 729 LINE",
"116 729 LINE",
"116 146 LINE",
"11 146 LINE",
"11 0 LINE"
);
}
);
width = 328;
},
{
anchors = (
{
name = bottom;
position = "{211, 0}";
},
{
name = top;
position = "{300, 729}";
}
);
layerId = "B743CB11-DC16-45F2-BA04-3635CB00F7DA";
paths = (
{
closed = 1;
nodes = (
"262 0 LINE SMOOTH",
"296 0 OFFCURVE",
"319 18 OFFCURVE",
"319 55 CURVE SMOOTH",
"319 729 LINE",
"280 729 LINE",
"280 36 LINE",
"59 36 LINE",
"59 0 LINE"
);
}
);
width = 453;
},
{
anchors = (
{
name = bottom;
position = "{105, 0}";
},
{
name = top;
position = "{234, 729}";
}
);
layerId = "3257632A-050A-40C2-B21A-C728868BC46F";
paths = (
{
closed = 1;
nodes = (
"109 0 LINE SMOOTH",
"192 0 OFFCURVE",
"255 45 OFFCURVE",
"271 139 CURVE SMOOTH",
"375 729 LINE",
"197 729 LINE",
"94 146 LINE",
"-11 146 LINE",
"-36 0 LINE"
);
}
);
width = 328;
},
{
anchors = (
{
name = bottom;
position = "{87, 0}";
},
{
name = top;
position = "{215, 729}";
}
);
layerId = "84BE75FC-12C8-47E9-B302-5F6D56903923";
paths = (
{
closed = 1;
nodes = (
"104 0 LINE SMOOTH",
"148 0 OFFCURVE",
"169 14 OFFCURVE",
"177 57 CURVE SMOOTH",
"295 729 LINE",
"264 729 LINE",
"141 28 LINE",
"-13 28 LINE",
"-18 0 LINE"
);
}
);
width = 300;
},
{
anchors = (
{
name = bottom;
position = "{170, 0}";
},
{
name = top;
position = "{298, 729}";
}
);
layerId = "33C7CA81-8DED-4513-9072-CA0E40765DD9";
paths = (
{
closed = 1;
nodes = (
"218 0 LINE SMOOTH",
"255 0 OFFCURVE",
"284 15 OFFCURVE",
"291 56 CURVE SMOOTH",
"410 729 LINE",
"373 729 LINE",
"250 35 LINE",
"20 35 LINE",
"14 0 LINE"
);
}
);
width = 461;
},
{
anchors = (
{
name = bottom;
position = "{153, 0}";
},
{
name = top;
position = "{281, 729}";
}
);
layerId = "46C13DED-2BAB-471A-8D19-A1FA49A5501E";
paths = (
{
closed = 1;
nodes = (
"220 0 LINE SMOOTH",
"255 0 OFFCURVE",
"288 16 OFFCURVE",
"295 55 CURVE SMOOTH",
"414 729 LINE",
"376 729 LINE",
"253 37 LINE",
"-21 37 LINE",
"-27 0 LINE"
);
}
);
width = 440;
},
{
anchors = (
{
name = bottom;
position = "{190, 0}";
},
{
name = top;
position = "{190, 729}";
}
);
layerId = "C1814757-B5F7-4D49-B715-04BFD84ECCF6";
paths = (
{
closed = 1;
nodes = (
"256 0 LINE SMOOTH",
"292 0 OFFCURVE",
"320 18 OFFCURVE",
"320 55 CURVE SMOOTH",
"320 729 LINE",
"279 729 LINE",
"279 38 LINE",
"18 38 LINE",
"18 0 LINE"
);
}
);
width = 429;
},
{
anchors = (
{
name = bottom;
position = "{213, 0}";
},
{
name = top;
position = "{213, 729}";
}
);
layerId = "8B1B4E65-9831-4464-9A92-CA98D2219836";
paths = (
{
closed = 1;
nodes = (
"227 0 LINE SMOOTH",
"325 0 OFFCURVE",
"391 53 OFFCURVE",
"391 165 CURVE SMOOTH",
"391 729 LINE",
"179 729 LINE",
"179 182 LINE",
"26 182 LINE",
"26 0 LINE"
);
}
);
width = 454;
},
{
anchors = (
{
name = bottom;
position = "{155, 0}";
},
{
name = top;
position = "{284, 729}";
}
);
layerId = "2359B287-0F82-447F-8C68-59A72835D733";
paths = (
{
closed = 1;
nodes = (
"168 0 LINE SMOOTH",
"269 0 OFFCURVE",
"343 50 OFFCURVE",
"362 155 CURVE SMOOTH",
"464 729 LINE",
"249 729 LINE",
"152 180 LINE",
"-1 180 LINE",
"-31 0 LINE"
);
}
);
width = 453;
},
{
anchors = (
{
name = bottom;
position = "{254, 0}";
},
{
name = top;
position = "{248, 729}";
}
);
layerId = "46DCD09A-F85A-41B9-8FAA-640012B7D4F4";
paths = (
{
closed = 1;
nodes = (
"273 0 LINE SMOOTH",
"386 0 OFFCURVE",
"464 55 OFFCURVE",
"464 169 CURVE SMOOTH",
"464 729 LINE",
"220 729 LINE",
"220 188 LINE",
"17 188 LINE",
"17 0 LINE"
);
}
);
width = 527;
},
{
anchors = (
{
name = bottom;
position = "{195, 0}";
},
{
name = top;
position = "{328, 729}";
}
);
layerId = "0D69E86C-407B-4861-9815-978EE2313DB2";
paths = (
{
closed = 1;
nodes = (
"215 0 LINE SMOOTH",
"332 0 OFFCURVE",
"412 59 OFFCURVE",
"431 166 CURVE SMOOTH",
"529 729 LINE",
"292 729 LINE",
"197 184 LINE",
"2 184 LINE",
"-31 0 LINE"
);
}
);
width = 512;
}
);
leftKerningGroup = J;
rightKerningGroup = J;
rightMetricsKey = H;
unicode = 004A;
},
{
glyphname = K;
lastChange = "2022-06-06 09:54:17 +0000";
layers = (
{
anchors = (
{
name = bottom;
position = "{225, 0}";
},
{
name = top;
position = "{225, 729}";
}
);
layerId = "6932EABA-00D8-4526-96D6-87ADD7AC589E";
paths = (
{
closed = 1;
nodes = (
"119 0 LINE",
"119 254 LINE",
"206 392 LINE",
"380 0 LINE",
"415 0 LINE",
"218 440 LINE",
"218 407 LINE",
"413 729 LINE",
"378 729 LINE",
"119 302 LINE",
"119 729 LINE",
"88 729 LINE",
"88 0 LINE"
);
}
);
width = 439;
},
{
anchors = (
{
name = bottom;
position = "{287, 0}";
},
{
name = top;
position = "{287, 729}";
}
);
layerId = "E787E54A-EE3E-475A-BF02-8501A6DA5144";
paths = (
{
closed = 1;
nodes = (
"213 0 LINE",
"213 172 LINE",
"254 262 LINE",
"354 0 LINE",
"548 0 LINE",
"362 438 LINE",
"362 389 LINE",
"537 729 LINE",
"344 729 LINE",
"213 431 LINE",
"213 729 LINE",
"35 729 LINE",
"35 0 LINE"
);
}
);
width = 561;
},
{
anchors = (
{
name = bottom;
position = "{368, 0}";
},
{
name = top;
position = "{368, 729}";
}
);
background = {
paths = (
{
closed = 1;
nodes = (
"173 0 LINE",
"173 161 LINE",
"355 375 LINE",
"618 0 LINE",
"666 0 LINE",
"381 405 LINE",
"656 729 LINE",
"608 729 LINE",
"173 215 LINE",
"173 729 LINE",
"134 729 LINE",
"134 0 LINE"
);
}
);
};
layerId = "B743CB11-DC16-45F2-BA04-3635CB00F7DA";
paths = (
{
closed = 1;
nodes = (
"173 0 LINE",
"173 215 LINE",
"339 390 LINE",
"618 0 LINE",
"666 0 LINE",
"357 432 LINE",
"357 408 LINE",
"656 729 LINE",
"608 729 LINE",
"173 265 LINE",
"173 729 LINE",
"134 729 LINE",
"134 0 LINE"
);
}
);
width = 712;
},
{
anchors = (
{
name = bottom;
position = "{239, 0}";
},
{
name = top;
position = "{368, 729}";
}
);
layerId = "3257632A-050A-40C2-B21A-C728868BC46F";
paths = (
{
closed = 1;
nodes = (
"166 0 LINE",
"196 172 LINE",
"258 271 LINE",
"317 0 LINE",
"501 0 LINE",
"386 451 LINE",
"377 386 LINE",
"618 729 LINE",
"415 729 LINE",
"244 445 LINE",
"294 729 LINE",
"116 729 LINE",
"-12 0 LINE"
);
}
);
width = 562;
},
{
anchors = (
{
name = bottom;
position = "{172, 0}";
},
{
name = top;
position = "{300, 729}";
}
);
layerId = "84BE75FC-12C8-47E9-B302-5F6D56903923";
paths = (
{
closed = 1;
nodes = (
"75 0 LINE",
"118 243 LINE",
"235 398 LINE",
"322 0 LINE",
"354 0 LINE",
"256 445 LINE",
"251 422 LINE",
"481 729 LINE",
"444 729 LINE",
"129 304 LINE",
"204 729 LINE",
"173 729 LINE",
"43 0 LINE"
);
}
);
width = 423;
},
{
anchors = (
{
name = bottom;
position = "{324, 0}";
},
{
name = top;
position = "{452, 729}";
}
);
background = {
paths = (
{
closed = 1;
nodes = (
"126 0 LINE",
"157 175 LINE",
"379 381 LINE",
"577 0 LINE",
"623 0 LINE",
"407 410 LINE",
"742 729 LINE",
"688 729 LINE",
"167 231 LINE",
"254 729 LINE",
"217 729 LINE",
"89 0 LINE"
);
}
);
};
layerId = "33C7CA81-8DED-4513-9072-CA0E40765DD9";
paths = (
{
closed = 1;
nodes = (
"126 0 LINE",
"167 232 LINE",
"367 405 LINE",
"577 0 LINE",
"623 0 LINE",
"389 444 LINE",
"385 422 LINE",
"742 729 LINE",
"688 729 LINE",
"177 288 LINE",
"254 729 LINE",
"217 729 LINE",
"89 0 LINE"
);
}
);
width = 714;
},
{
anchors = (
{
name = bottom;
position = "{336, 0}";
},
{
name = top;
position = "{464, 729}";
}
);
layerId = "46C13DED-2BAB-471A-8D19-A1FA49A5501E";
paths = (
{
closed = 1;
nodes = (
"103 0 LINE",
"130 154 LINE",
"395 377 LINE",
"640 0 LINE",
"687 0 LINE",
"408 426 LINE",
"403 387 LINE",
"804 729 LINE",
"746 729 LINE",
"139 208 LINE",
"231 729 LINE",
"192 729 LINE",
"64 0 LINE"
);
}
);
width = 728;
},
{
anchors = (
{
name = bottom;
position = "{382, 0}";
},
{
name = top;
position = "{382, 729}";
}
);
background = {
paths = (
{
closed = 1;
nodes = (
"148 0 LINE",
"148 144 LINE",
"371 372 LINE",
"680 0 LINE",
"735 0 LINE",
"400 402 LINE",
"723 729 LINE",
"667 729 LINE",
"148 195 LINE",
"148 729 LINE",
"109 729 LINE",
"109 0 LINE"
);
}
);
};
layerId = "C1814757-B5F7-4D49-B715-04BFD84ECCF6";
paths = (
{
closed = 1;
nodes = (
"148 0 LINE",
"148 144 LINE",
"373 374 LINE",
"684 0 LINE",
"735 0 LINE",
"390 414 LINE",
"390 392 LINE",
"721 729 LINE",
"669 729 LINE",
"148 195 LINE",
"148 729 LINE",
"109 729 LINE",
"109 0 LINE"
);
}
);
width = 741;
},
{
anchors = (
{
name = bottom;
position = "{383, 0}";
},
{
name = top;
position = "{383, 729}";
}
);
layerId = "8B1B4E65-9831-4464-9A92-CA98D2219836";
paths = (
{
closed = 1;
nodes = (
"276 0 LINE",
"276 180 LINE",
"345 257 LINE",
"503 0 LINE",
"761 0 LINE",
"472 456 LINE",
"472 393 LINE",
"751 729 LINE",
"490 729 LINE",
"276 440 LINE",
"276 729 LINE",
"63 729 LINE",
"63 0 LINE"
);
}
);
width = 764;
},
{
anchors = (
{
name = bottom;
position = "{339, 0}";
},
{
name = top;
position = "{468, 729}";
}
);
layerId = "2359B287-0F82-447F-8C68-59A72835D733";
paths = (
{
closed = 1;
nodes = (
"236 0 LINE",
"266 177 LINE",
"364 274 LINE",
"479 0 LINE",
"716 0 LINE",
"514 443 LINE",
"508 399 LINE",
"833 729 LINE",
"568 729 LINE",
"313 441 LINE",
"364 729 LINE",
"149 729 LINE",
"21 0 LINE"
);
}
);
width = 767;
},
{
anchors = (
{
name = bottom;
position = "{456, 0}";
},
{
name = top;
position = "{456, 729}";
}
);
layerId = "46DCD09A-F85A-41B9-8FAA-640012B7D4F4";
paths = (
{
closed = 1;
nodes = (
"308 0 LINE",
"308 183 LINE",
"406 262 LINE",
"605 0 LINE",
"904 0 LINE",
"554 446 LINE",
"554 404 LINE",
"893 729 LINE",
"589 729 LINE",
"308 440 LINE",
"308 729 LINE",
"63 729 LINE",
"63 0 LINE"
);
}
);
width = 897;
},
{
anchors = (
{
name = bottom;
position = "{394, 0}";
},
{
name = top;
position = "{524, 729}";
}
);
layerId = "0D69E86C-407B-4861-9815-978EE2313DB2";
paths = (
{
closed = 1;
nodes = (
"254 0 LINE",
"285 182 LINE",
"406 272 LINE",
"559 0 LINE",
"827 0 LINE",
"569 447 LINE",
"561 400 LINE",
"945 729 LINE",
"642 729 LINE",
"333 448 LINE",
"383 729 LINE",
"145 729 LINE",
"15 0 LINE"
);
}
);
width = 856;
}
);
leftKerningGroup = B;
leftMetricsKey = H;
rightKerningGroup = K;
unicode = 004B;
},
{
glyphname = L;
lastChange = "2022-06-06 09:56:17 +0000";
layers = (
{
anchors = (
{
name = bottom;
position = "{206, 0}";
},
{
name = center;
position = "{184, 365}";
},
{
name = top;
position = "{104, 729}";
},
{
name = topright;
position = "{325, 729}";
}
);
layerId = "6932EABA-00D8-4526-96D6-87ADD7AC589E";
paths = (
{
closed = 1;
nodes = (
"323 0 LINE",
"323 28 LINE",
"112 28 LINE",
"119 21 LINE",
"119 729 LINE",
"88 729 LINE",
"88 0 LINE"
);
}
);
width = 330;
},
{
anchors = (
{
name = bottom;
position = "{198, 0}";
},
{
name = center;
position = "{193, 365}";
},
{
name = top;
position = "{124, 729}";
},
{
name = topright;
position = "{350, 729}";
}
);
layerId = "E787E54A-EE3E-475A-BF02-8501A6DA5144";
paths = (
{
closed = 1;
nodes = (
"360 0 LINE",
"360 146 LINE",
"161 146 LINE",
"213 94 LINE",
"213 729 LINE",
"35 729 LINE",
"35 0 LINE"
);
}
);
width = 375;
},
{
anchors = (
{
name = bottom;
position = "{361, 0}";
},
{
name = center;
position = "{336, 365}";
},
{
name = top;
position = "{154, 729}";
},
{
name = topright;
position = "{619, 729}";
}
);
layerId = "B743CB11-DC16-45F2-BA04-3635CB00F7DA";
paths = (
{
closed = 1;
nodes = (
"588 0 LINE",
"588 37 LINE",
"146 37 LINE",
"173 10 LINE",
"173 729 LINE",
"134 729 LINE",
"134 0 LINE"
);
}
);
width = 661;
},
{
anchors = (
{
name = bottom;
position = "{145, 0}";
},
{
name = center;
position = "{209, 365}";
},
{
name = top;
position = "{205, 729}";
},
{
name = topright;
position = "{432, 729}";
}
);
layerId = "3257632A-050A-40C2-B21A-C728868BC46F";
paths = (
{
closed = 1;
nodes = (
"313 0 LINE",
"338 146 LINE",
"160 146 LINE",
"186 117 LINE",
"294 729 LINE",
"116 729 LINE",
"-12 0 LINE"
);
}
);
width = 376;
},
{
anchors = (
{
name = bottom;
position = "{161, 0}";
},
{
name = center;
position = "{203, 365}";
},
{
name = top;
position = "{187, 729}";
},
{
name = topright;
position = "{408, 729}";
}
);
layerId = "84BE75FC-12C8-47E9-B302-5F6D56903923";
paths = (
{
closed = 1;
nodes = (
"278 0 LINE",
"283 28 LINE",
"70 28 LINE",
"77 17 LINE",
"202 729 LINE",
"171 729 LINE",
"43 0 LINE"
);
}
);
width = 330;
},
{
anchors = (
{
name = bottom;
position = "{314, 0}";
},
{
name = center;
position = "{353, 365}";
},
{
name = top;
position = "{237, 729}";
},
{
name = topright;
position = "{698, 729}";
}
);
layerId = "33C7CA81-8DED-4513-9072-CA0E40765DD9";
paths = (
{
closed = 1;
nodes = (
"539 0 LINE",
"545 36 LINE",
"117 36 LINE",
"130 21 LINE",
"255 729 LINE",
"218 729 LINE",
"89 0 LINE"
);
}
);
width = 657;
},
{
anchors = (
{
name = bottom;
position = "{333, 0}";
},
{
name = center;
position = "{361, 365}";
},
{
name = top;
position = "{214, 729}";
},
{
name = topright;
position = "{716, 729}";
}
);
layerId = "46C13DED-2BAB-471A-8D19-A1FA49A5501E";
paths = (
{
closed = 1;
nodes = (
"601 0 LINE",
"608 38 LINE",
"97 38 LINE",
"108 25 LINE",
"233 729 LINE",
"193 729 LINE",
"64 0 LINE"
);
}
);
width = 655;
},
{
anchors = (
{
name = bottom;
position = "{380, 0}";
},
{
name = center;
position = "{344, 365}";
},
{
name = top;
position = "{129, 729}";
},
{
name = topright;
position = "{633, 729}";
}
);
layerId = "C1814757-B5F7-4D49-B715-04BFD84ECCF6";
paths = (
{
closed = 1;
nodes = (
"651 0 LINE",
"651 39 LINE",
"121 39 LINE",
"148 12 LINE",
"148 729 LINE",
"109 729 LINE",
"109 0 LINE"
);
}
);
width = 659;
},
{
anchors = (
{
name = bottom;
position = "{322, 0}";
},
{
name = center;
position = "{297, 365}";
},
{
name = top;
position = "{170, 729}";
},
{
name = topright;
position = "{567, 729}";
}
);
layerId = "8B1B4E65-9831-4464-9A92-CA98D2219836";
paths = (
{
closed = 1;
nodes = (
"590 0 LINE",
"590 187 LINE",
"240 187 LINE",
"276 151 LINE",
"276 729 LINE",
"63 729 LINE",
"63 0 LINE"
);
}
);
width = 616;
},
{
anchors = (
{
name = bottom;
position = "{271, 0}";
},
{
name = center;
position = "{310, 365}";
},
{
name = top;
position = "{257, 729}";
},
{
name = topright;
position = "{639, 729}";
}
);
layerId = "2359B287-0F82-447F-8C68-59A72835D733";
paths = (
{
closed = 1;
nodes = (
"532 0 LINE",
"562 180 LINE",
"231 180 LINE",
"261 149 LINE",
"364 729 LINE",
"149 729 LINE",
"21 0 LINE"
);
}
);
width = 588;
},
{
anchors = (
{
name = bottom;
position = "{385, 0}";
},
{
name = center;
position = "{368, 365}";
},
{
name = top;
position = "{184, 729}";
},
{
name = topright;
position = "{699, 729}";
}
);
layerId = "46DCD09A-F85A-41B9-8FAA-640012B7D4F4";
paths = (
{
closed = 1;
nodes = (
"693 0 LINE",
"693 192 LINE",
"273 192 LINE",
"308 157 LINE",
"308 729 LINE",
"63 729 LINE",
"63 0 LINE"
);
}
);
width = 714;
},
{
anchors = (
{
name = bottom;
position = "{322, 0}";
},
{
name = center;
position = "{369, 365}";
},
{
name = top;
position = "{266, 729}";
},
{
name = topright;
position = "{752, 729}";
}
);
layerId = "0D69E86C-407B-4861-9815-978EE2313DB2";
paths = (
{
closed = 1;
nodes = (
"628 0 LINE",
"660 190 LINE",
"250 190 LINE",
"282 156 LINE",
"383 729 LINE",
"145 729 LINE",
"15 0 LINE"
);
}
);
width = 697;
}
);
leftKerningGroup = B;
leftMetricsKey = H;
rightKerningGroup = L;
unicode = 004C;
},
{
glyphname = Lslash;
lastChange = "2022-06-06 10:52:55 +0000";
layers = (
{
components = (
{
name = L;
}
);
layerId = "6932EABA-00D8-4526-96D6-87ADD7AC589E";
paths = (
{
closed = 1;
nodes = (
"207 400 LINE",
"207 430 LINE",
"27 330 LINE",
"27 300 LINE"
);
}
);
width = 330;
},
{
components = (
{
name = L;
}
);
layerId = "E787E54A-EE3E-475A-BF02-8501A6DA5144";
paths = (
{
closed = 1;
nodes = (
"259 336 LINE",
"259 476 LINE",
"3 394 LINE",
"3 254 LINE"
);
}
);
width = 375;
},
{
components = (
{
name = L;
}
);
layerId = "B743CB11-DC16-45F2-BA04-3635CB00F7DA";
paths = (
{
closed = 1;
nodes = (
"318 430 LINE",
"318 467 LINE",
"37 333 LINE",
"37 296 LINE"
);
}
);
width = 661;
},
{
components = (
{
name = L;
}
);
layerId = "84BE75FC-12C8-47E9-B302-5F6D56903923";
paths = (
{
closed = 1;
nodes = (
"232 400 LINE",
"237 430 LINE",
"40 330 LINE",
"35 300 LINE"
);
}
);
width = 330;
},
{
components = (
{
name = L;
}
);
layerId = "3257632A-050A-40C2-B21A-C728868BC46F";
paths = (
{
closed = 1;
nodes = (
"271 336 LINE",
"296 476 LINE",
"25 394 LINE",
"0 254 LINE"
);
}
);
width = 376;
},
{
components = (
{
name = L;
}
);
layerId = "33C7CA81-8DED-4513-9072-CA0E40765DD9";
paths = (
{
closed = 1;
nodes = (
"349 430 LINE",
"355 467 LINE",
"50 333 LINE",
"44 296 LINE"
);
}
);
width = 657;
},
{
components = (
{
name = L;
}
);
layerId = "46C13DED-2BAB-471A-8D19-A1FA49A5501E";
paths = (
{
closed = 1;
nodes = (
"336 430 LINE",
"342 467 LINE",
"37 333 LINE",
"31 296 LINE"
);
}
);
width = 655;
},
{
components = (
{
name = L;
}
);
layerId = "C1814757-B5F7-4D49-B715-04BFD84ECCF6";
paths = (
{
closed = 1;
nodes = (
"312 432 LINE",
"312 469 LINE",
"24 333 LINE",
"24 296 LINE"
);
}
);
width = 659;
},
{
components = (
{
name = L;
}
);
layerId = "8B1B4E65-9831-4464-9A92-CA98D2219836";
paths = (
{
closed = 1;
nodes = (
"421 353 LINE",
"421 499 LINE",
"5 408 LINE",
"5 262 LINE"
);
}
);
width = 616;
},
{
components = (
{
name = L;
}
);
layerId = "2359B287-0F82-447F-8C68-59A72835D733";
paths = (
{
closed = 1;
nodes = (
"436 353 LINE",
"462 499 LINE",
"29 408 LINE",
"3 262 LINE"
);
}
);
width = 588;
},
{
components = (
{
alignment = -1;
name = L;
}
);
layerId = "46DCD09A-F85A-41B9-8FAA-640012B7D4F4";
paths = (
{
closed = 1;
nodes = (
"427 356 LINE",
"427 500 LINE",
"-4 409 LINE",
"-4 263 LINE"
);
}
);
width = 714;
},
{
components = (
{
alignment = -1;
name = L;
}
);
layerId = "0D69E86C-407B-4861-9815-978EE2313DB2";
paths = (
{
closed = 1;
nodes = (
"432 353 LINE",
"457 500 LINE",
"21 408 LINE",
"-6 263 LINE"
);
}
);
width = 697;
}
);
leftKerningGroup = B;
rightKerningGroup = L;
unicode = 0141;
},
{
glyphname = M;
lastChange = "2022-06-08 12:00:03 +0000";
layers = (
{
anchors = (
{
name = bottom;
position = "{278, 0}";
},
{
name = top;
position = "{278, 729}";
}
);
layerId = "6932EABA-00D8-4526-96D6-87ADD7AC589E";
paths = (
{
closed = 1;
nodes = (
"118 0 LINE",
"118 665 LINE",
"117 696 LINE",
"121 696 LINE",
"126 666 LINE",
"254 0 LINE",
"302 0 LINE",
"430 666 LINE",
"435 696 LINE",
"438 696 LINE",
"437 665 LINE",
"437 0 LINE",
"467 0 LINE",
"467 729 LINE",
"414 729 LINE",
"280 32 LINE",
"276 32 LINE",
"142 729 LINE",
"88 729 LINE",
"88 0 LINE"
);
}
);
width = 555;
},
{
anchors = (
{
name = bottom;
position = "{349, 0}";
},
{
name = top;
position = "{349, 729}";
}
);
layerId = "E787E54A-EE3E-475A-BF02-8501A6DA5144";
paths = (
{
closed = 1;
nodes = (
"192 0 LINE",
"192 459 LINE",
"190 541 LINE",
"195 541 LINE",
"206 461 LINE",
"281 0 LINE",
"417 0 LINE",
"491 460 LINE",
"503 541 LINE",
"508 541 LINE",
"505 459 LINE",
"506 0 LINE",
"663 0 LINE",
"663 729 LINE",
"402 729 LINE",
"344 319 LINE",
"361 319 LINE",
"301 729 LINE",
"35 729 LINE",
"35 0 LINE"
);
}
);
width = 697;
},
{
anchors = (
{
name = bottom;
position = "{477, 0}";
},
{
name = top;
position = "{477, 729}";
}
);
guideLines = (
{
position = "{172, 653}";
}
);
layerId = "B743CB11-DC16-45F2-BA04-3635CB00F7DA";
paths = (
{
closed = 1;
nodes = (
"173 0 LINE",
"172 653 LINE",
"172 683 LINE",
"178 683 LINE",
"190 653 LINE",
"452 0 LINE",
"502 0 LINE",
"764 654 LINE",
"776 683 LINE",
"781 683 LINE",
"781 653 LINE",
"781 0 LINE",
"820 0 LINE",
"820 729 LINE",
"755 729 LINE",
"479 38 LINE",
"475 38 LINE",
"199 729 LINE",
"134 729 LINE",
"134 0 LINE"
);
}
);
width = 954;
},
{
anchors = (
{
name = bottom;
position = "{302, 0}";
},
{
name = top;
position = "{431, 729}";
}
);
layerId = "3257632A-050A-40C2-B21A-C728868BC46F";
paths = (
{
closed = 1;
nodes = (
"155 0 LINE",
"230 429 LINE",
"243 511 LINE",
"248 511 LINE",
"245 431 LINE",
"234 0 LINE",
"370 0 LINE",
"510 430 LINE",
"536 511 LINE",
"541 511 LINE",
"524 429 LINE",
"449 0 LINE",
"616 0 LINE",
"744 729 LINE",
"483 729 LINE",
"363 319 LINE",
"360 319 LINE",
"382 729 LINE",
"116 729 LINE",
"-12 0 LINE"
);
}
);
width = 698;
},
{
anchors = (
{
name = bottom;
position = "{234, 0}";
},
{
name = top;
position = "{362, 729}";
}
);
layerId = "84BE75FC-12C8-47E9-B302-5F6D56903923";
paths = (
{
closed = 1;
nodes = (
"74 0 LINE",
"191 665 LINE",
"195 696 LINE",
"199 696 LINE",
"199 666 LINE",
"210 0 LINE",
"258 0 LINE",
"503 666 LINE",
"513 696 LINE",
"516 696 LINE",
"510 665 LINE",
"393 0 LINE",
"424 0 LINE",
"552 729 LINE",
"497 729 LINE",
"241 32 LINE",
"237 32 LINE",
"227 729 LINE",
"171 729 LINE",
"43 0 LINE"
);
}
);
width = 557;
},
{
anchors = (
{
name = bottom;
position = "{432, 0}";
},
{
name = top;
position = "{560, 729}";
}
);
layerId = "33C7CA81-8DED-4513-9072-CA0E40765DD9";
paths = (
{
closed = 1;
nodes = (
"126 0 LINE",
"239 639 LINE",
"246 685 LINE",
"251 685 LINE",
"261 645 LINE",
"412 0 LINE",
"454 0 LINE",
"830 649 LINE",
"853 688 LINE",
"857 688 LINE",
"848 639 LINE",
"736 0 LINE",
"773 0 LINE",
"902 729 LINE",
"835 729 LINE",
"441 49 LINE",
"437 49 LINE",
"279 729 LINE",
"218 729 LINE",
"89 0 LINE"
);
}
);
width = 953;
},
{
anchors = (
{
name = bottom;
position = "{464, 0}";
},
{
name = top;
position = "{592, 729}";
}
);
layerId = "46C13DED-2BAB-471A-8D19-A1FA49A5501E";
paths = (
{
closed = 1;
nodes = (
"104 0 LINE",
"217 644 LINE",
"224 682 LINE",
"229 682 LINE",
"240 648 LINE",
"446 0 LINE",
"487 0 LINE",
"918 652 LINE",
"940 686 LINE",
"944 686 LINE",
"937 648 LINE",
"823 0 LINE",
"863 0 LINE",
"992 729 LINE",
"922 729 LINE",
"475 53 LINE",
"471 53 LINE",
"257 729 LINE",
"193 729 LINE",
"64 0 LINE"
);
}
);
width = 1018;
},
{
anchors = (
{
name = bottom;
position = "{515, 0}";
},
{
name = top;
position = "{515, 729}";
}
);
layerId = "C1814757-B5F7-4D49-B715-04BFD84ECCF6";
paths = (
{
closed = 1;
nodes = (
"148 0 LINE",
"148 672 LINE",
"148 693 LINE",
"154 693 LINE",
"166 672 LINE",
"496 0 LINE",
"535 0 LINE",
"866 672 LINE",
"878 695 LINE",
"883 695 LINE",
"883 671 LINE",
"883 0 LINE",
"922 0 LINE",
"922 729 LINE",
"852 729 LINE",
"517 50 LINE",
"513 50 LINE",
"179 729 LINE",
"109 729 LINE",
"109 0 LINE"
);
}
);
width = 1031;
},
{
anchors = (
{
name = bottom;
position = "{487, 0}";
},
{
name = top;
position = "{487, 729}";
}
);
background = {
paths = (
{
closed = 1;
nodes = (
"281 0 LINE",
"281 435 LINE",
"281 498 LINE",
"289 498 LINE",
"302 436 LINE",
"390 0 LINE",
"580 0 LINE",
"668 436 LINE",
"681 498 LINE",
"689 498 LINE",
"689 436 LINE",
"689 0 LINE",
"894 0 LINE",
"894 729 LINE",
"570 729 LINE",
"486 287 LINE",
"479 287 LINE",
"392 729 LINE",
"78 729 LINE",
"78 0 LINE"
);
}
);
};
layerId = "8B1B4E65-9831-4464-9A92-CA98D2219836";
paths = (
{
closed = 1;
nodes = (
"266 0 LINE",
"266 435 LINE",
"266 498 LINE",
"274 498 LINE",
"287 436 LINE",
"390 0 LINE",
"580 0 LINE",
"683 436 LINE",
"696 498 LINE",
"704 498 LINE",
"704 436 LINE",
"704 0 LINE",
"909 0 LINE",
"909 729 LINE",
"585 729 LINE",
"486 287 LINE",
"479 287 LINE",
"377 729 LINE",
"63 729 LINE",
"63 0 LINE"
);
}
);
width = 972;
},
{
anchors = (
{
name = bottom;
position = "{444, 0}";
},
{
name = top;
position = "{573, 729}";
}
);
background = {
paths = (
{
closed = 1;
nodes = (
"239 0 LINE",
"316 436 LINE",
"326 498 LINE",
"334 498 LINE",
"337 437 LINE",
"347 0 LINE",
"538 0 LINE",
"703 437 LINE",
"726 498 LINE",
"734 498 LINE",
"724 437 LINE",
"647 0 LINE",
"852 0 LINE",
"980 729 LINE",
"656 729 LINE",
"494 287 LINE",
"488 287 LINE",
"478 729 LINE",
"164 729 LINE",
"36 0 LINE"
);
}
);
};
layerId = "2359B287-0F82-447F-8C68-59A72835D733";
paths = (
{
closed = 1;
nodes = (
"224 0 LINE",
"301 436 LINE",
"310 498 LINE",
"319 498 LINE",
"323 437 LINE",
"347 0 LINE",
"538 0 LINE",
"718 437 LINE",
"741 498 LINE",
"749 498 LINE",
"739 437 LINE",
"662 0 LINE",
"867 0 LINE",
"995 729 LINE",
"671 729 LINE",
"494 287 LINE",
"488 287 LINE",
"463 729 LINE",
"149 729 LINE",
"21 0 LINE"
);
}
);
width = 984;
},
{
anchors = (
{
name = bottom;
position = "{560, 0}";
},
{
name = top;
position = "{560, 729}";
}
);
layerId = "46DCD09A-F85A-41B9-8FAA-640012B7D4F4";
paths = (
{
closed = 1;
nodes = (
"292 0 LINE",
"292 503 LINE",
"293 526 LINE",
"304 526 LINE",
"310 503 LINE",
"447 0 LINE",
"671 0 LINE",
"804 502 LINE",
"811 526 LINE",
"821 526 LINE",
"822 502 LINE",
"822 0 LINE",
"1053 0 LINE",
"1053 729 LINE",
"684 729 LINE",
"560 281 LINE",
"554 281 LINE",
"442 729 LINE",
"63 729 LINE",
"63 0 LINE"
);
}
);
width = 1116;
},
{
anchors = (
{
name = bottom;
position = "{491, 0}";
},
{
name = top;
position = "{620, 729}";
}
);
layerId = "0D69E86C-407B-4861-9815-978EE2313DB2";
paths = (
{
closed = 1;
nodes = (
"242 0 LINE",
"326 470 LINE",
"335 521 LINE",
"344 521 LINE",
"349 471 LINE",
"385 0 LINE",
"601 0 LINE",
"806 475 LINE",
"827 521 LINE",
"837 521 LINE",
"828 473 LINE",
"744 0 LINE",
"970 0 LINE",
"1101 729 LINE",
"731 729 LINE",
"544 285 LINE",
"537 285 LINE",
"508 729 LINE",
"145 729 LINE",
"15 0 LINE"
);
}
);
width = 1083;
}
);
leftKerningGroup = B;
leftMetricsKey = H;
rightMetricsKey = H;
unicode = 004D;
},
{
glyphname = N;
lastChange = "2022-06-08 12:00:47 +0000";
layers = (
{
anchors = (
{
name = bottom;
position = "{240, 0}";
},
{
name = top;
position = "{240, 729}";
}
);
layerId = "6932EABA-00D8-4526-96D6-87ADD7AC589E";
paths = (
{
closed = 1;
nodes = (
"118 0 LINE",
"118 690 LINE",
"121 690 LINE",
"129 664 LINE",
"341 0 LINE",
"392 0 LINE",
"392 729 LINE",
"362 729 LINE",
"362 42 LINE",
"358 42 LINE",
"352 62 LINE",
"139 729 LINE",
"88 729 LINE",
"88 0 LINE"
);
}
);
width = 480;
},
{
anchors = (
{
name = bottom;
position = "{270, 0}";
},
{
name = top;
position = "{270, 729}";
}
);
layerId = "E787E54A-EE3E-475A-BF02-8501A6DA5144";
paths = (
{
closed = 1;
nodes = (
"201 0 LINE",
"201 365 LINE",
"207 365 LINE",
"215 323 LINE",
"300 0 LINE",
"506 0 LINE",
"506 729 LINE",
"340 729 LINE",
"340 354 LINE",
"333 354 LINE",
"322 411 LINE",
"240 729 LINE",
"35 729 LINE",
"35 0 LINE"
);
}
);
width = 540;
},
{
anchors = (
{
name = bottom;
position = "{417, 0}";
},
{
name = top;
position = "{417, 729}";
}
);
layerId = "B743CB11-DC16-45F2-BA04-3635CB00F7DA";
paths = (
{
closed = 1;
nodes = (
"173 0 LINE",
"173 678 LINE",
"178 678 LINE",
"194 651 LINE",
"648 0 LINE",
"700 0 LINE",
"700 729 LINE",
"661 729 LINE",
"661 50 LINE",
"656 50 LINE",
"638 80 LINE",
"184 729 LINE",
"134 729 LINE",
"134 0 LINE"
);
}
);
width = 834;
},
{
anchors = (
{
name = bottom;
position = "{223, 0}";
},
{
name = top;
position = "{352, 729}";
}
);
layerId = "3257632A-050A-40C2-B21A-C728868BC46F";
paths = (
{
closed = 1;
nodes = (
"154 0 LINE",
"217 359 LINE",
"223 359 LINE",
"227 323 LINE",
"253 0 LINE",
"459 0 LINE",
"587 729 LINE",
"421 729 LINE",
"356 359 LINE",
"349 359 LINE",
"345 411 LINE",
"321 729 LINE",
"116 729 LINE",
"-12 0 LINE"
);
}
);
width = 541;
},
{
anchors = (
{
name = bottom;
position = "{196, 0}";
},
{
name = top;
position = "{324, 729}";
}
);
layerId = "84BE75FC-12C8-47E9-B302-5F6D56903923";
paths = (
{
closed = 1;
nodes = (
"74 0 LINE",
"194 686 LINE",
"197 686 LINE",
"201 658 LINE",
"299 0 LINE",
"349 0 LINE",
"477 729 LINE",
"446 729 LINE",
"326 46 LINE",
"323 46 LINE",
"320 68 LINE",
"222 729 LINE",
"171 729 LINE",
"43 0 LINE"
);
}
);
width = 482;
},
{
anchors = (
{
name = bottom;
position = "{371, 0}";
},
{
name = top;
position = "{499, 729}";
}
);
layerId = "33C7CA81-8DED-4513-9072-CA0E40765DD9";
paths = (
{
closed = 1;
nodes = (
"126 0 LINE",
"247 684 LINE",
"251 684 LINE",
"266 654 LINE",
"601 0 LINE",
"651 0 LINE",
"779 729 LINE",
"743 729 LINE",
"622 44 LINE",
"618 44 LINE",
"603 74 LINE",
"268 729 LINE",
"218 729 LINE",
"89 0 LINE"
);
}
);
width = 830;
},
{
anchors = (
{
name = bottom;
position = "{396, 0}";
},
{
name = top;
position = "{524, 729}";
}
);
layerId = "46C13DED-2BAB-471A-8D19-A1FA49A5501E";
paths = (
{
closed = 1;
nodes = (
"104 0 LINE",
"224 682 LINE",
"229 682 LINE",
"258 634 LINE",
"677 0 LINE",
"727 0 LINE",
"856 729 LINE",
"817 729 LINE",
"697 46 LINE",
"692 46 LINE",
"661 94 LINE",
"242 729 LINE",
"193 729 LINE",
"64 0 LINE"
);
}
);
width = 882;
},
{
anchors = (
{
name = bottom;
position = "{446, 0}";
},
{
name = top;
position = "{446, 729}";
}
);
layerId = "C1814757-B5F7-4D49-B715-04BFD84ECCF6";
paths = (
{
closed = 1;
nodes = (
"148 0 LINE",
"148 687 LINE",
"151 687 LINE",
"179 649 LINE",
"724 0 LINE",
"781 0 LINE",
"781 729 LINE",
"742 729 LINE",
"742 41 LINE",
"740 41 LINE",
"713 77 LINE",
"164 729 LINE",
"109 729 LINE",
"109 0 LINE"
);
}
);
width = 890;
},
{
anchors = (
{
name = bottom;
position = "{400, 0}";
},
{
name = top;
position = "{400, 729}";
}
);
background = {
paths = (
{
closed = 1;
nodes = (
"276 0 LINE",
"276 279 LINE",
"501 279 LINE",
"501 0 LINE",
"713 0 LINE",
"713 729 LINE",
"501 729 LINE",
"501 459 LINE",
"276 459 LINE",
"276 729 LINE",
"63 729 LINE",
"63 0 LINE"
);
}
);
};
layerId = "8B1B4E65-9831-4464-9A92-CA98D2219836";
paths = (
{
closed = 1;
nodes = (
"266 0 LINE",
"266 411 LINE",
"271 411 LINE",
"282 388 LINE",
"463 0 LINE",
"716 0 LINE",
"716 729 LINE",
"513 729 LINE",
"513 319 LINE",
"508 319 LINE",
"495 350 LINE",
"335 729 LINE",
"63 729 LINE",
"63 0 LINE"
);
}
);
width = 779;
},
{
anchors = (
{
name = bottom;
position = "{343, 0}";
},
{
name = top;
position = "{472, 729}";
}
);
layerId = "2359B287-0F82-447F-8C68-59A72835D733";
paths = (
{
closed = 1;
nodes = (
"218 0 LINE",
"295 446 LINE",
"304 446 LINE",
"313 399 LINE",
"394 0 LINE",
"666 0 LINE",
"794 729 LINE",
"598 729 LINE",
"520 288 LINE",
"512 288 LINE",
"504 320 LINE",
"419 729 LINE",
"149 729 LINE",
"21 0 LINE"
);
}
);
width = 783;
},
{
anchors = (
{
name = bottom;
position = "{456, 0}";
},
{
name = top;
position = "{456, 729}";
}
);
layerId = "46DCD09A-F85A-41B9-8FAA-640012B7D4F4";
paths = (
{
closed = 1;
nodes = (
"297 0 LINE",
"297 410 LINE",
"306 410 LINE",
"327 376 LINE",
"551 0 LINE",
"846 0 LINE",
"846 729 LINE",
"611 729 LINE",
"611 341 LINE",
"602 341 LINE",
"588 361 LINE",
"383 729 LINE",
"63 729 LINE",
"63 0 LINE"
);
}
);
width = 909;
},
{
anchors = (
{
name = bottom;
position = "{394, 0}";
},
{
name = top;
position = "{523, 729}";
}
);
layerId = "0D69E86C-407B-4861-9815-978EE2313DB2";
paths = (
{
closed = 1;
nodes = (
"228 0 LINE",
"316 495 LINE",
"322 495 LINE",
"331 464 LINE",
"450 0 LINE",
"769 0 LINE",
"899 729 LINE",
"687 729 LINE",
"601 233 LINE",
"594 233 LINE",
"587 253 LINE",
"456 729 LINE",
"145 729 LINE",
"15 0 LINE"
);
}
);
width = 881;
}
);
leftKerningGroup = B;
leftMetricsKey = H;
rightMetricsKey = H;
unicode = 004E;
},
{
glyphname = Eng;
lastChange = "2022-06-05 15:23:45 +0000";
layers = (
{
anchors = (
{
name = bottom;
position = "{240, 0}";
},
{
name = top;
position = "{240, 729}";
}
);
layerId = "6932EABA-00D8-4526-96D6-87ADD7AC589E";
paths = (
{
closed = 1;
nodes = (
"354 -167 LINE SMOOTH",
"382 -167 OFFCURVE",
"392 -153 OFFCURVE",
"392 -133 CURVE SMOOTH",
"392 729 LINE",
"362 729 LINE",
"362 42 LINE",
"358 42 LINE",
"352 62 LINE",
"139 729 LINE",
"88 729 LINE",
"88 0 LINE",
"118 0 LINE",
"118 690 LINE",
"121 690 LINE",
"129 664 LINE",
"341 0 LINE",
"361 0 LINE",
"361 -140 LINE",
"282 -140 LINE",
"282 -167 LINE"
);
}
);
width = 480;
},
{
anchors = (
{
name = bottom;
position = "{271, 0}";
},
{
name = top;
position = "{271, 729}";
}
);
layerId = "E787E54A-EE3E-475A-BF02-8501A6DA5144";
paths = (
{
closed = 1;
nodes = (
"357 -167 LINE SMOOTH",
"446 -167 OFFCURVE",
"506 -119 OFFCURVE",
"506 -18 CURVE SMOOTH",
"506 729 LINE",
"340 729 LINE",
"340 354 LINE",
"333 354 LINE",
"322 411 LINE",
"240 729 LINE",
"35 729 LINE",
"35 0 LINE",
"201 0 LINE",
"201 365 LINE",
"207 365 LINE",
"215 323 LINE",
"300 0 LINE",
"332 0 LINE",
"332 -38 LINE",
"264 -38 LINE",
"264 -167 LINE"
);
}
);
width = 540;
},
{
anchors = (
{
name = bottom;
position = "{417, 0}";
},
{
name = top;
position = "{417, 729}";
}
);
layerId = "B743CB11-DC16-45F2-BA04-3635CB00F7DA";
paths = (
{
closed = 1;
nodes = (
"644 -167 LINE SMOOTH",
"677 -167 OFFCURVE",
"700 -151 OFFCURVE",
"700 -112 CURVE SMOOTH",
"700 729 LINE",
"661 729 LINE",
"661 50 LINE",
"656 50 LINE",
"638 80 LINE",
"184 729 LINE",
"134 729 LINE",
"134 0 LINE",
"173 0 LINE",
"173 678 LINE",
"178 678 LINE",
"194 651 LINE",
"648 0 LINE",
"662 0 LINE",
"662 -135 LINE",
"534 -135 LINE",
"534 -167 LINE"
);
}
);
width = 834;
},
{
anchors = (
{
name = bottom;
position = "{196, 0}";
},
{
name = top;
position = "{324, 729}";
}
);
layerId = "84BE75FC-12C8-47E9-B302-5F6D56903923";
paths = (
{
closed = 1;
nodes = (
"281 -169 LINE SMOOTH",
"309 -169 OFFCURVE",
"321 -155 OFFCURVE",
"325 -135 CURVE SMOOTH",
"477 729 LINE",
"446 729 LINE",
"326 46 LINE",
"323 46 LINE",
"320 68 LINE",
"222 729 LINE",
"171 729 LINE",
"43 0 LINE",
"74 0 LINE",
"194 686 LINE",
"197 686 LINE",
"201 658 LINE",
"298 0 LINE",
"318 0 LINE",
"293 -142 LINE",
"214 -142 LINE",
"209 -169 LINE"
);
}
);
width = 482;
},
{
anchors = (
{
name = bottom;
position = "{223, 0}";
},
{
name = top;
position = "{352, 729}";
}
);
layerId = "3257632A-050A-40C2-B21A-C728868BC46F";
paths = (
{
closed = 1;
nodes = (
"281 -167 LINE SMOOTH",
"368 -167 OFFCURVE",
"438 -130 OFFCURVE",
"456 -18 CURVE SMOOTH",
"587 729 LINE",
"421 729 LINE",
"356 359 LINE",
"349 359 LINE",
"347 411 LINE",
"321 729 LINE",
"116 729 LINE",
"-12 0 LINE",
"154 0 LINE",
"217 359 LINE",
"223 359 LINE",
"225 323 LINE",
"253 0 LINE",
"286 0 LINE",
"281 -28 LINE",
"213 -28 LINE",
"188 -167 LINE"
);
}
);
width = 541;
},
{
anchors = (
{
name = bottom;
position = "{371, 0}";
},
{
name = top;
position = "{499, 729}";
}
);
layerId = "33C7CA81-8DED-4513-9072-CA0E40765DD9";
paths = (
{
closed = 1;
nodes = (
"569 -169 LINE SMOOTH",
"602 -169 OFFCURVE",
"625 -154 OFFCURVE",
"631 -118 CURVE SMOOTH",
"780 729 LINE",
"743 729 LINE",
"622 44 LINE",
"618 44 LINE",
"595 88 LINE",
"268 729 LINE",
"218 729 LINE",
"89 0 LINE",
"126 0 LINE",
"247 684 LINE",
"251 684 LINE",
"272 640 LINE",
"601 0 LINE",
"615 0 LINE",
"591 -138 LINE",
"462 -138 LINE",
"456 -169 LINE"
);
}
);
width = 831;
},
{
anchors = (
{
name = bottom;
position = "{386, 0}";
},
{
name = top;
position = "{514, 729}";
}
);
layerId = "46C13DED-2BAB-471A-8D19-A1FA49A5501E";
paths = (
{
closed = 1;
nodes = (
"619 -167 LINE SMOOTH",
"653 -167 OFFCURVE",
"680 -152 OFFCURVE",
"687 -111 CURVE SMOOTH",
"836 729 LINE",
"797 729 LINE",
"677 46 LINE",
"672 46 LINE",
"642 94 LINE",
"243 729 LINE",
"193 729 LINE",
"64 0 LINE",
"104 0 LINE",
"224 682 LINE",
"229 682 LINE",
"257 634 LINE",
"656 0 LINE",
"669 0 LINE",
"645 -135 LINE",
"500 -135 LINE",
"494 -167 LINE"
);
}
);
width = 862;
},
{
anchors = (
{
name = bottom;
position = "{446, 0}";
},
{
name = top;
position = "{446, 729}";
}
);
layerId = "C1814757-B5F7-4D49-B715-04BFD84ECCF6";
paths = (
{
closed = 1;
nodes = (
"722 -167 LINE SMOOTH",
"757 -167 OFFCURVE",
"782 -151 OFFCURVE",
"782 -108 CURVE SMOOTH",
"782 729 LINE",
"742 729 LINE",
"742 44 LINE",
"740 44 LINE",
"713 79 LINE",
"164 729 LINE",
"109 729 LINE",
"109 0 LINE",
"148 0 LINE",
"148 684 LINE",
"151 684 LINE",
"179 647 LINE",
"724 0 LINE",
"743 0 LINE",
"743 -135 LINE",
"592 -135 LINE",
"592 -167 LINE"
);
}
);
width = 891;
},
{
anchors = (
{
name = bottom;
position = "{400, 0}";
},
{
name = top;
position = "{400, 729}";
}
);
layerId = "8B1B4E65-9831-4464-9A92-CA98D2219836";
paths = (
{
closed = 1;
nodes = (
"571 -167 LINE SMOOTH",
"670 -167 OFFCURVE",
"736 -114 OFFCURVE",
"736 -2 CURVE SMOOTH",
"736 729 LINE",
"533 729 LINE",
"533 267 LINE",
"526 267 LINE",
"508 322 LINE",
"346 729 LINE",
"63 729 LINE",
"63 0 LINE",
"266 0 LINE",
"266 466 LINE",
"273 466 LINE",
"287 417 LINE",
"451 0 LINE",
"536 0 LINE",
"536 -44 LINE",
"444 -44 LINE",
"444 -167 LINE"
);
}
);
width = 799;
},
{
anchors = (
{
name = bottom;
position = "{343, 0}";
},
{
name = top;
position = "{472, 729}";
}
);
layerId = "2359B287-0F82-447F-8C68-59A72835D733";
paths = (
{
closed = 1;
nodes = (
"490 -169 LINE SMOOTH",
"576 -169 OFFCURVE",
"644 -128 OFFCURVE",
"660 -32 CURVE SMOOTH",
"793 729 LINE",
"598 729 LINE",
"520 288 LINE",
"512 288 LINE",
"508 314 LINE",
"419 729 LINE",
"149 729 LINE",
"21 0 LINE",
"218 0 LINE",
"295 446 LINE",
"304 446 LINE",
"310 408 LINE",
"394 0 LINE",
"462 0 LINE",
"459 -22 LINE",
"377 -22 LINE",
"351 -169 LINE"
);
}
);
width = 783;
},
{
anchors = (
{
name = bottom;
position = "{445, 0}";
},
{
name = top;
position = "{445, 729}";
}
);
layerId = "46DCD09A-F85A-41B9-8FAA-640012B7D4F4";
paths = (
{
closed = 1;
nodes = (
"668 -167 LINE SMOOTH",
"762 -167 OFFCURVE",
"824 -111 OFFCURVE",
"824 -12 CURVE SMOOTH",
"824 729 LINE",
"602 729 LINE",
"602 268 LINE",
"595 268 LINE",
"585 291 LINE",
"384 729 LINE",
"63 729 LINE",
"63 0 LINE",
"284 0 LINE",
"284 470 LINE",
"292 470 LINE",
"307 434 LINE",
"501 0 LINE",
"598 0 LINE",
"598 -35 LINE",
"506 -35 LINE",
"506 -167 LINE"
);
}
);
width = 887;
},
{
anchors = (
{
name = bottom;
position = "{384, 0}";
},
{
name = top;
position = "{513, 729}";
}
);
layerId = "0D69E86C-407B-4861-9815-978EE2313DB2";
paths = (
{
closed = 1;
nodes = (
"573 -167 LINE SMOOTH",
"660 -167 OFFCURVE",
"729 -125 OFFCURVE",
"743 -34 CURVE SMOOTH",
"879 729 LINE",
"662 729 LINE",
"576 251 LINE",
"568 251 LINE",
"563 279 LINE",
"455 729 LINE",
"145 729 LINE",
"15 0 LINE",
"230 0 LINE",
"322 481 LINE",
"330 481 LINE",
"334 446 LINE",
"436 0 LINE",
"527 0 LINE",
"520 -39 LINE",
"433 -39 LINE",
"410 -167 LINE"
);
}
);
width = 861;
}
);
leftKerningGroup = B;
leftMetricsKey = N;
rightMetricsKey = N;
unicode = 014A;
},
{
glyphname = O;
lastChange = "2022-06-06 07:15:57 +0000";
layers = (
{
anchors = (
{
name = bottom;
position = "{223, 0}";
},
{
name = center;
position = "{223, 365}";
},
{
name = ogonek;
position = "{377, 10}";
},
{
name = top;
position = "{223, 729}";
},
{
name = topleft;
position = "{50, 729}";
},
{
name = topright;
position = "{395, 729}";
}
);
background = {
paths = (
{
closed = 1;
nodes = (
"316 -9 OFFCURVE",
"378 37 OFFCURVE",
"378 193 CURVE SMOOTH",
"378 307 OFFCURVE",
"378 422 OFFCURVE",
"378 536 CURVE SMOOTH",
"378 692 OFFCURVE",
"316 738 OFFCURVE",
"223 739 CURVE SMOOTH",
"130 738 OFFCURVE",
"68 692 OFFCURVE",
"68 536 CURVE SMOOTH",
"68 422 OFFCURVE",
"68 307 OFFCURVE",
"68 193 CURVE SMOOTH",
"68 37 OFFCURVE",
"130 -9 OFFCURVE",
"223 -10 CURVE SMOOTH"
);
},
{
closed = 1;
nodes = (
"149 18 OFFCURVE",
"99 53 OFFCURVE",
"99 193 CURVE SMOOTH",
"99 307 OFFCURVE",
"99 422 OFFCURVE",
"99 536 CURVE SMOOTH",
"99 641 OFFCURVE",
"124 711 OFFCURVE",
"223 711 CURVE SMOOTH",
"322 711 OFFCURVE",
"347 641 OFFCURVE",
"347 536 CURVE SMOOTH",
"347 422 OFFCURVE",
"347 307 OFFCURVE",
"347 193 CURVE SMOOTH",
"347 53 OFFCURVE",
"297 18 OFFCURVE",
"223 18 CURVE SMOOTH"
);
}
);
};
layerId = "6932EABA-00D8-4526-96D6-87ADD7AC589E";
paths = (
{
closed = 1;
nodes = (
"316 -9 OFFCURVE",
"378 37 OFFCURVE",
"378 193 CURVE SMOOTH",
"378 536 LINE SMOOTH",
"378 692 OFFCURVE",
"316 738 OFFCURVE",
"223 739 CURVE SMOOTH",
"130 738 OFFCURVE",
"68 692 OFFCURVE",
"68 536 CURVE SMOOTH",
"68 193 LINE SMOOTH",
"68 37 OFFCURVE",
"130 -9 OFFCURVE",
"223 -10 CURVE SMOOTH"
);
},
{
closed = 1;
nodes = (
"149 18 OFFCURVE",
"99 53 OFFCURVE",
"99 193 CURVE SMOOTH",
"99 536 LINE SMOOTH",
"99 641 OFFCURVE",
"124 711 OFFCURVE",
"223 711 CURVE SMOOTH",
"322 711 OFFCURVE",
"347 641 OFFCURVE",
"347 536 CURVE SMOOTH",
"347 193 LINE SMOOTH",
"347 53 OFFCURVE",
"297 18 OFFCURVE",
"223 18 CURVE SMOOTH"
);
}
);
width = 446;
},
{
anchors = (
{
name = bottom;
position = "{270, 0}";
},
{
name = center;
position = "{270, 365}";
},
{
name = ogonek;
position = "{476, 10}";
},
{
name = top;
position = "{270, 729}";
},
{
name = topleft;
position = "{32, 729}";
},
{
name = topright;
position = "{508, 729}";
}
);
layerId = "E787E54A-EE3E-475A-BF02-8501A6DA5144";
paths = (
{
closed = 1;
nodes = (
"425 -10 OFFCURVE",
"513 62 OFFCURVE",
"513 249 CURVE SMOOTH",
"513 480 LINE SMOOTH",
"513 667 OFFCURVE",
"425 739 OFFCURVE",
"270 739 CURVE SMOOTH",
"115 739 OFFCURVE",
"27 667 OFFCURVE",
"27 480 CURVE SMOOTH",
"27 249 LINE SMOOTH",
"27 62 OFFCURVE",
"115 -10 OFFCURVE",
"270 -10 CURVE SMOOTH"
);
},
{
closed = 1;
nodes = (
"229 136 OFFCURVE",
"205 155 OFFCURVE",
"205 214 CURVE SMOOTH",
"205 515 LINE SMOOTH",
"205 574 OFFCURVE",
"229 593 OFFCURVE",
"270 593 CURVE SMOOTH",
"311 593 OFFCURVE",
"335 574 OFFCURVE",
"335 515 CURVE SMOOTH",
"335 214 LINE SMOOTH",
"335 155 OFFCURVE",
"311 136 OFFCURVE",
"270 136 CURVE SMOOTH"
);
}
);
width = 540;
},
{
anchors = (
{
name = bottom;
position = "{395, 0}";
},
{
name = center;
position = "{395, 365}";
},
{
name = ogonek;
position = "{724, 10}";
},
{
name = top;
position = "{395, 729}";
},
{
name = topleft;
position = "{4, 729}";
},
{
name = topright;
position = "{786, 729}";
}
);
background = {
paths = (
{
closed = 1;
nodes = (
"598 -10 OFFCURVE",
"734 109 OFFCURVE",
"734 364 CURVE SMOOTH",
"734 610 OFFCURVE",
"606 738 OFFCURVE",
"398 738 CURVE SMOOTH",
"190 738 OFFCURVE",
"63 610 OFFCURVE",
"63 364 CURVE SMOOTH",
"63 109 OFFCURVE",
"199 -10 OFFCURVE",
"398 -10 CURVE SMOOTH"
);
},
{
closed = 1;
nodes = (
"207 26 OFFCURVE",
"106 148 OFFCURVE",
"106 317 CURVE SMOOTH",
"106 348 OFFCURVE",
"106 380 OFFCURVE",
"106 412 CURVE SMOOTH",
"106 580 OFFCURVE",
"206 702 OFFCURVE",
"398 702 CURVE SMOOTH",
"590 702 OFFCURVE",
"690 580 OFFCURVE",
"690 412 CURVE SMOOTH",
"690 380 OFFCURVE",
"690 348 OFFCURVE",
"690 317 CURVE SMOOTH",
"690 149 OFFCURVE",
"591 26 OFFCURVE",
"398 26 CURVE SMOOTH"
);
}
);
};
layerId = "B743CB11-DC16-45F2-BA04-3635CB00F7DA";
paths = (
{
closed = 1;
nodes = (
"594 -10 OFFCURVE",
"730 109 OFFCURVE",
"730 361 CURVE SMOOTH",
"730 366 LINE SMOOTH",
"730 610 OFFCURVE",
"603 738 OFFCURVE",
"395 738 CURVE SMOOTH",
"187 738 OFFCURVE",
"60 610 OFFCURVE",
"60 366 CURVE SMOOTH",
"60 361 LINE SMOOTH",
"60 109 OFFCURVE",
"196 -10 OFFCURVE",
"395 -10 CURVE SMOOTH"
);
},
{
closed = 1;
nodes = (
"203 26 OFFCURVE",
"103 148 OFFCURVE",
"103 316 CURVE SMOOTH",
"103 412 LINE SMOOTH",
"103 580 OFFCURVE",
"203 702 OFFCURVE",
"395 702 CURVE SMOOTH",
"587 702 OFFCURVE",
"687 580 OFFCURVE",
"687 412 CURVE SMOOTH",
"687 316 LINE SMOOTH",
"687 148 OFFCURVE",
"587 26 OFFCURVE",
"395 26 CURVE SMOOTH"
);
}
);
width = 791;
},
{
anchors = (
{
name = bottom;
position = "{223, 0}";
},
{
name = center;
position = "{287, 365}";
},
{
name = ogonek;
position = "{432, 10}";
},
{
name = top;
position = "{341, 729}";
},
{
name = topleft;
position = "{113, 729}";
},
{
name = topright;
position = "{591, 729}";
}
);
layerId = "3257632A-050A-40C2-B21A-C728868BC46F";
paths = (
{
closed = 1;
nodes = (
"391 -11 OFFCURVE",
"478 58 OFFCURVE",
"507 226 CURVE SMOOTH",
"547 457 LINE SMOOTH",
"580 645 OFFCURVE",
"505 740 OFFCURVE",
"315 740 CURVE SMOOTH",
"183 740 OFFCURVE",
"96 672 OFFCURVE",
"67 501 CURVE SMOOTH",
"27 270 LINE SMOOTH",
"-5 88 OFFCURVE",
"66 -11 OFFCURVE",
"258 -11 CURVE SMOOTH"
);
},
{
closed = 1;
nodes = (
"202 136 OFFCURVE",
"187 165 OFFCURVE",
"197 222 CURVE SMOOTH",
"249 520 LINE SMOOTH",
"259 577 OFFCURVE",
"285 592 OFFCURVE",
"317 592 CURVE SMOOTH",
"372 592 OFFCURVE",
"387 565 OFFCURVE",
"378 509 CURVE SMOOTH",
"325 209 LINE SMOOTH",
"316 157 OFFCURVE",
"295 136 OFFCURVE",
"258 136 CURVE SMOOTH"
);
}
);
width = 542;
},
{
anchors = (
{
name = bottom;
position = "{178, 0}";
},
{
name = center;
position = "{242, 365}";
},
{
name = ogonek;
position = "{333, 10}";
},
{
name = top;
position = "{295, 729}";
},
{
name = topleft;
position = "{133, 729}";
},
{
name = topright;
position = "{478, 729}";
}
);
layerId = "84BE75FC-12C8-47E9-B302-5F6D56903923";
paths = (
{
closed = 1;
nodes = (
"281 -9 OFFCURVE",
"338 29 OFFCURVE",
"365 181 CURVE SMOOTH",
"425 523 LINE SMOOTH",
"448 653 OFFCURVE",
"408 739 OFFCURVE",
"292 739 CURVE SMOOTH",
"203 739 OFFCURVE",
"146 701 OFFCURVE",
"119 549 CURVE SMOOTH",
"59 207 LINE SMOOTH",
"36 77 OFFCURVE",
"76 -9 OFFCURVE",
"193 -9 CURVE SMOOTH"
);
},
{
closed = 1;
nodes = (
"109 18 OFFCURVE",
"66 70 OFFCURVE",
"89 202 CURVE SMOOTH",
"149 546 LINE SMOOTH",
"169 659 OFFCURVE",
"201 712 OFFCURVE",
"292 712 CURVE SMOOTH",
"375 712 OFFCURVE",
"418 660 OFFCURVE",
"395 528 CURVE SMOOTH",
"335 184 LINE SMOOTH",
"315 71 OFFCURVE",
"283 18 OFFCURVE",
"193 18 CURVE SMOOTH"
);
}
);
width = 446;
},
{
anchors = (
{
name = bottom;
position = "{357, 0}";
},
{
name = center;
position = "{421, 365}";
},
{
name = ogonek;
position = "{691, 10}";
},
{
name = top;
position = "{467, 729}";
},
{
name = topleft;
position = "{89, 729}";
},
{
name = topright;
position = "{881, 729}";
}
);
background = {
paths = (
{
closed = 1;
nodes = (
"586 -10 OFFCURVE",
"713 95 OFFCURVE",
"752 314 CURVE SMOOTH",
"758 348 OFFCURVE",
"762 392 OFFCURVE",
"762 423 CURVE SMOOTH",
"762 623 OFFCURVE",
"631 739 OFFCURVE",
"433 739 CURVE SMOOTH",
"256 739 OFFCURVE",
"129 634 OFFCURVE",
"90 415 CURVE SMOOTH",
"84 381 OFFCURVE",
"80 337 OFFCURVE",
"80 306 CURVE SMOOTH",
"80 106 OFFCURVE",
"211 -10 OFFCURVE",
"409 -10 CURVE SMOOTH"
);
},
{
closed = 1;
nodes = (
"214 26 OFFCURVE",
"93 152 OFFCURVE",
"124 353 CURVE SMOOTH",
"129 386 OFFCURVE",
"136 427 OFFCURVE",
"140 449 CURVE SMOOTH",
"166 599 OFFCURVE",
"265 703 OFFCURVE",
"432 703 CURVE SMOOTH",
"628 703 OFFCURVE",
"749 577 OFFCURVE",
"718 376 CURVE SMOOTH",
"713 343 OFFCURVE",
"706 302 OFFCURVE",
"702 280 CURVE SMOOTH",
"676 130 OFFCURVE",
"577 26 OFFCURVE",
"410 26 CURVE SMOOTH"
);
}
);
};
layerId = "33C7CA81-8DED-4513-9072-CA0E40765DD9";
paths = (
{
closed = 1;
nodes = (
"640 -10 OFFCURVE",
"762 176 OFFCURVE",
"762 415 CURVE SMOOTH",
"762 423 LINE SMOOTH",
"762 623 OFFCURVE",
"631 739 OFFCURVE",
"433 739 CURVE SMOOTH",
"202 739 OFFCURVE",
"80 553 OFFCURVE",
"80 314 CURVE SMOOTH",
"80 306 LINE SMOOTH",
"80 106 OFFCURVE",
"211 -10 OFFCURVE",
"409 -10 CURVE SMOOTH"
);
},
{
closed = 1;
nodes = (
"214 26 OFFCURVE",
"93 152 OFFCURVE",
"124 353 CURVE SMOOTH",
"140 449 LINE SMOOTH",
"166 599 OFFCURVE",
"265 703 OFFCURVE",
"433 703 CURVE SMOOTH",
"628 703 OFFCURVE",
"751 577 OFFCURVE",
"718 376 CURVE SMOOTH",
"702 280 LINE SMOOTH",
"677 130 OFFCURVE",
"577 26 OFFCURVE",
"409 26 CURVE SMOOTH"
);
}
);
width = 805;
},
{
anchors = (
{
name = bottom;
position = "{408, 0}";
},
{
name = center;
position = "{470, 365}";
},
{
name = ogonek;
position = "{763, 10}";
},
{
name = top;
position = "{489, 729}";
},
{
name = topleft;
position = "{113, 729}";
},
{
name = topright;
position = "{958, 729}";
}
);
background = {
paths = (
{
closed = 1;
nodes = (
"717 -10 OFFCURVE",
"867 152 OFFCURVE",
"867 392 CURVE SMOOTH",
"867 398 LINE SMOOTH",
"865 618 OFFCURVE",
"709 739 OFFCURVE",
"475 739 CURVE SMOOTH",
"230 739 OFFCURVE",
"80 577 OFFCURVE",
"80 337 CURVE SMOOTH",
"80 331 LINE SMOOTH",
"82 111 OFFCURVE",
"238 -10 OFFCURVE",
"468 -10 CURVE SMOOTH"
);
},
{
closed = 1;
nodes = (
"249 27 OFFCURVE",
"91 152 OFFCURVE",
"120 354 CURVE SMOOTH",
"132 438 LINE SMOOTH",
"157 611 OFFCURVE",
"285 702 OFFCURVE",
"475 702 CURVE SMOOTH",
"690 702 OFFCURVE",
"844 578 OFFCURVE",
"817 375 CURVE SMOOTH",
"806 291 LINE SMOOTH",
"781 118 OFFCURVE",
"653 27 OFFCURVE",
"468 27 CURVE SMOOTH"
);
}
);
};
layerId = "46C13DED-2BAB-471A-8D19-A1FA49A5501E";
paths = (
{
closed = 1;
nodes = (
"717 -10 OFFCURVE",
"867 152 OFFCURVE",
"867 392 CURVE SMOOTH",
"867 398 LINE SMOOTH",
"865 618 OFFCURVE",
"709 739 OFFCURVE",
"474 739 CURVE SMOOTH",
"230 739 OFFCURVE",
"80 577 OFFCURVE",
"80 337 CURVE SMOOTH",
"80 331 LINE SMOOTH",
"80 111 OFFCURVE",
"238 -10 OFFCURVE",
"474 -10 CURVE SMOOTH"
);
},
{
closed = 1;
nodes = (
"249 27 OFFCURVE",
"91 152 OFFCURVE",
"120 354 CURVE SMOOTH",
"132 438 LINE SMOOTH",
"157 611 OFFCURVE",
"285 702 OFFCURVE",
"474 702 CURVE SMOOTH",
"698 702 OFFCURVE",
"856 577 OFFCURVE",
"827 375 CURVE SMOOTH",
"815 291 LINE SMOOTH",
"790 118 OFFCURVE",
"662 27 OFFCURVE",
"474 27 CURVE SMOOTH"
);
}
);
width = 910;
},
{
anchors = (
{
name = bottom;
position = "{454, 0}";
},
{
name = center;
position = "{454, 365}";
},
{
name = ogonek;
position = "{806, 10}";
},
{
name = top;
position = "{454, 729}";
},
{
name = topleft;
position = "{32, 729}";
},
{
name = topright;
position = "{876, 729}";
}
);
layerId = "C1814757-B5F7-4D49-B715-04BFD84ECCF6";
paths = (
{
closed = 1;
nodes = (
"696 -10 OFFCURVE",
"854 121 OFFCURVE",
"854 362 CURVE SMOOTH",
"854 366 LINE SMOOTH",
"854 607 OFFCURVE",
"696 738 OFFCURVE",
"456 738 CURVE SMOOTH",
"216 738 OFFCURVE",
"58 607 OFFCURVE",
"58 366 CURVE SMOOTH",
"58 362 LINE SMOOTH",
"58 121 OFFCURVE",
"216 -10 OFFCURVE",
"456 -10 CURVE SMOOTH"
);
},
{
closed = 1;
nodes = (
"216 28 OFFCURVE",
"103 164 OFFCURVE",
"103 336 CURVE SMOOTH",
"103 392 LINE SMOOTH",
"103 570 OFFCURVE",
"216 700 OFFCURVE",
"456 700 CURVE SMOOTH",
"696 700 OFFCURVE",
"809 570 OFFCURVE",
"809 392 CURVE SMOOTH",
"809 336 LINE SMOOTH",
"809 164 OFFCURVE",
"696 28 OFFCURVE",
"456 28 CURVE SMOOTH"
);
}
);
width = 912;
},
{
anchors = (
{
name = bottom;
position = "{395, 0}";
},
{
name = center;
position = "{395, 365}";
},
{
name = ogonek;
position = "{721, 10}";
},
{
name = top;
position = "{395, 729}";
},
{
name = topleft;
position = "{7, 729}";
},
{
name = topright;
position = "{783, 729}";
}
);
layerId = "8B1B4E65-9831-4464-9A92-CA98D2219836";
paths = (
{
closed = 1;
nodes = (
"645 -10 OFFCURVE",
"760 141 OFFCURVE",
"760 363 CURVE SMOOTH",
"760 365 LINE SMOOTH",
"760 607 OFFCURVE",
"615 738 OFFCURVE",
"395 738 CURVE SMOOTH",
"175 738 OFFCURVE",
"31 607 OFFCURVE",
"31 365 CURVE SMOOTH",
"31 363 LINE SMOOTH",
"31 141 OFFCURVE",
"145 -10 OFFCURVE",
"395 -10 CURVE SMOOTH"
);
},
{
closed = 1;
nodes = (
"311 174 OFFCURVE",
"254 214 OFFCURVE",
"254 304 CURVE SMOOTH",
"254 424 LINE SMOOTH",
"254 502 OFFCURVE",
"298 554 OFFCURVE",
"395 554 CURVE SMOOTH",
"492 554 OFFCURVE",
"536 502 OFFCURVE",
"536 424 CURVE SMOOTH",
"536 304 LINE SMOOTH",
"536 214 OFFCURVE",
"479 174 OFFCURVE",
"395 174 CURVE SMOOTH"
);
}
);
width = 791;
},
{
anchors = (
{
name = bottom;
position = "{347, 0}";
},
{
name = center;
position = "{411, 365}";
},
{
name = ogonek;
position = "{674, 10}";
},
{
name = top;
position = "{458, 729}";
},
{
name = topleft;
position = "{87, 729}";
},
{
name = topright;
position = "{863, 729}";
}
);
background = {
paths = (
{
closed = 1;
nodes = (
"630 -10 OFFCURVE",
"772 149 OFFCURVE",
"772 400 CURVE SMOOTH",
"772 409 LINE SMOOTH",
"772 607 OFFCURVE",
"646 739 OFFCURVE",
"429 739 CURVE SMOOTH",
"192 739 OFFCURVE",
"50 580 OFFCURVE",
"50 329 CURVE SMOOTH",
"50 320 LINE SMOOTH",
"50 122 OFFCURVE",
"175 -10 OFFCURVE",
"392 -10 CURVE SMOOTH"
);
},
{
closed = 1;
nodes = (
"305 173 OFFCURVE",
"244 221 OFFCURVE",
"263 326 CURVE SMOOTH",
"285 452 LINE SMOOTH",
"298 525 OFFCURVE",
"347 556 OFFCURVE",
"429 556 CURVE SMOOTH",
"516 556 OFFCURVE",
"577 508 OFFCURVE",
"559 403 CURVE SMOOTH",
"536 277 LINE SMOOTH",
"523 204 OFFCURVE",
"475 173 OFFCURVE",
"392 173 CURVE SMOOTH"
);
}
);
};
layerId = "2359B287-0F82-447F-8C68-59A72835D733";
paths = (
{
closed = 1;
nodes = (
"630 -10 OFFCURVE",
"773 149 OFFCURVE",
"773 410 CURVE SMOOTH",
"773 419 LINE SMOOTH",
"773 611 OFFCURVE",
"637 739 OFFCURVE",
"434 739 CURVE SMOOTH",
"192 739 OFFCURVE",
"49 580 OFFCURVE",
"49 319 CURVE SMOOTH",
"49 310 LINE SMOOTH",
"49 118 OFFCURVE",
"185 -10 OFFCURVE",
"388 -10 CURVE SMOOTH"
);
},
{
closed = 1;
nodes = (
"296 173 OFFCURVE",
"245 232 OFFCURVE",
"265 346 CURVE SMOOTH",
"280 432 LINE SMOOTH",
"295 516 OFFCURVE",
"340 556 OFFCURVE",
"423 556 CURVE SMOOTH",
"528 556 OFFCURVE",
"576 491 OFFCURVE",
"557 383 CURVE SMOOTH",
"542 297 LINE SMOOTH",
"526 208 OFFCURVE",
"478 173 OFFCURVE",
"399 173 CURVE SMOOTH"
);
}
);
width = 790;
},
{
anchors = (
{
name = bottom;
position = "{472, 0}";
},
{
name = center;
position = "{472, 365}";
},
{
name = ogonek;
position = "{849, 10}";
},
{
name = top;
position = "{472, 728}";
},
{
name = topleft;
position = "{22, 728}";
},
{
name = topright;
position = "{924, 728}";
}
);
layerId = "46DCD09A-F85A-41B9-8FAA-640012B7D4F4";
paths = (
{
closed = 1;
nodes = (
"729 -10 OFFCURVE",
"917 121 OFFCURVE",
"917 355 CURVE SMOOTH",
"917 375 LINE SMOOTH",
"917 608 OFFCURVE",
"729 739 OFFCURVE",
"472 739 CURVE SMOOTH",
"216 739 OFFCURVE",
"28 608 OFFCURVE",
"28 375 CURVE SMOOTH",
"28 355 LINE SMOOTH",
"28 121 OFFCURVE",
"216 -10 OFFCURVE",
"472 -10 CURVE SMOOTH"
);
},
{
closed = 1;
nodes = (
"345 179 OFFCURVE",
"284 240 OFFCURVE",
"284 323 CURVE SMOOTH",
"284 406 LINE SMOOTH",
"284 489 OFFCURVE",
"345 550 OFFCURVE",
"472 550 CURVE SMOOTH",
"599 550 OFFCURVE",
"660 489 OFFCURVE",
"660 406 CURVE SMOOTH",
"660 323 LINE SMOOTH",
"660 240 OFFCURVE",
"599 179 OFFCURVE",
"472 179 CURVE SMOOTH"
);
}
);
width = 945;
},
{
anchors = (
{
name = bottom;
position = "{451, 0}";
},
{
name = center;
position = "{486, 365}";
},
{
name = ogonek;
position = "{789, 10}";
},
{
name = top;
position = "{523, 728}";
},
{
name = topleft;
position = "{152, 728}";
},
{
name = topright;
position = "{1024, 728}";
}
);
layerId = "0D69E86C-407B-4861-9815-978EE2313DB2";
paths = (
{
closed = 1;
nodes = (
"730 -10 OFFCURVE",
"885 143 OFFCURVE",
"885 375 CURVE SMOOTH",
"885 385 LINE SMOOTH",
"886 596 OFFCURVE",
"726 739 OFFCURVE",
"485 739 CURVE SMOOTH",
"205 739 OFFCURVE",
"50 586 OFFCURVE",
"50 354 CURVE SMOOTH",
"50 344 LINE SMOOTH",
"50 133 OFFCURVE",
"209 -10 OFFCURVE",
"450 -10 CURVE SMOOTH"
);
},
{
closed = 1;
nodes = (
"339 177 OFFCURVE",
"276 242 OFFCURVE",
"294 340 CURVE SMOOTH",
"310 434 LINE SMOOTH",
"322 502 OFFCURVE",
"368 553 OFFCURVE",
"481 553 CURVE SMOOTH",
"596 553 OFFCURVE",
"659 487 OFFCURVE",
"641 390 CURVE SMOOTH",
"625 296 LINE SMOOTH",
"613 228 OFFCURVE",
"568 177 OFFCURVE",
"456 177 CURVE SMOOTH"
);
}
);
width = 902;
}
);
leftKerningGroup = C;
rightKerningGroup = D;
unicode = 004F;
},
{
glyphname = OE;
lastChange = "2022-06-05 15:23:09 +0000";
layers = (
{
layerId = "6932EABA-00D8-4526-96D6-87ADD7AC589E";
paths = (
{
closed = 1;
nodes = (
"589 0 LINE",
"589 28 LINE",
"377 28 LINE",
"377 362 LINE",
"567 362 LINE",
"567 390 LINE",
"377 390 LINE",
"377 701 LINE",
"584 701 LINE",
"584 729 LINE",
"236 729 LINE SMOOTH",
"133 729 OFFCURVE",
"68 672 OFFCURVE",
"68 497 CURVE SMOOTH",
"68 409 OFFCURVE",
"68 320 OFFCURVE",
"68 232 CURVE SMOOTH",
"68 57 OFFCURVE",
"133 0 OFFCURVE",
"236 0 CURVE SMOOTH"
);
},
{
closed = 1;
nodes = (
"125 28 OFFCURVE",
"99 110 OFFCURVE",
"99 233 CURVE SMOOTH",
"99 321 OFFCURVE",
"99 408 OFFCURVE",
"99 496 CURVE SMOOTH",
"99 619 OFFCURVE",
"125 701 OFFCURVE",
"236 701 CURVE SMOOTH",
"346 701 LINE",
"346 28 LINE",
"236 28 LINE SMOOTH"
);
}
);
width = 637;
},
{
layerId = "E787E54A-EE3E-475A-BF02-8501A6DA5144";
paths = (
{
closed = 1;
nodes = (
"693 0 LINE",
"693 146 LINE",
"496 146 LINE",
"496 300 LINE",
"649 300 LINE",
"649 442 LINE",
"496 442 LINE",
"496 583 LINE",
"687 583 LINE",
"687 729 LINE",
"258 729 LINE SMOOTH",
"91 729 OFFCURVE",
"27 634 OFFCURVE",
"27 465 CURVE SMOOTH",
"27 398 OFFCURVE",
"27 331 OFFCURVE",
"27 264 CURVE SMOOTH",
"27 95 OFFCURVE",
"91 0 OFFCURVE",
"258 0 CURVE SMOOTH"
);
},
{
closed = 1;
nodes = (
"229 146 OFFCURVE",
"205 171 OFFCURVE",
"205 245 CURVE SMOOTH",
"205 325 OFFCURVE",
"205 404 OFFCURVE",
"205 484 CURVE SMOOTH",
"205 558 OFFCURVE",
"229 583 OFFCURVE",
"278 583 CURVE SMOOTH",
"318 583 LINE",
"318 146 LINE",
"278 146 LINE SMOOTH"
);
}
);
width = 715;
},
{
layerId = "B743CB11-DC16-45F2-BA04-3635CB00F7DA";
paths = (
{
closed = 1;
nodes = (
"1074 0 LINE",
"1074 37 LINE",
"643 37 LINE",
"643 358 LINE",
"1027 358 LINE",
"1027 393 LINE",
"643 393 LINE",
"643 692 LINE",
"1074 692 LINE",
"1074 729 LINE",
"388 729 LINE SMOOTH",
"191 729 OFFCURVE",
"60 621 OFFCURVE",
"60 369 CURVE SMOOTH",
"60 366 OFFCURVE",
"60 363 OFFCURVE",
"60 360 CURVE SMOOTH",
"61 108 OFFCURVE",
"192 0 OFFCURVE",
"388 0 CURVE SMOOTH"
);
},
{
closed = 1;
nodes = (
"198 37 OFFCURVE",
"104 149 OFFCURVE",
"104 317 CURVE SMOOTH",
"104 349 OFFCURVE",
"104 380 OFFCURVE",
"104 412 CURVE SMOOTH",
"104 596 OFFCURVE",
"214 692 OFFCURVE",
"389 692 CURVE SMOOTH",
"604 692 LINE",
"604 37 LINE",
"389 37 LINE SMOOTH"
);
}
);
width = 1144;
},
{
layerId = "84BE75FC-12C8-47E9-B302-5F6D56903923";
paths = (
{
closed = 1;
nodes = (
"543 0 LINE",
"548 28 LINE",
"336 28 LINE",
"395 362 LINE",
"585 362 LINE",
"589 390 LINE",
"399 390 LINE",
"454 701 LINE",
"661 701 LINE",
"666 729 LINE",
"317 729 LINE SMOOTH",
"203 729 OFFCURVE",
"145 687 OFFCURVE",
"114 519 CURVE SMOOTH",
"99 426 OFFCURVE",
"81 327 OFFCURVE",
"65 240 CURVE SMOOTH",
"32 61 OFFCURVE",
"90 0 OFFCURVE",
"193 0 CURVE SMOOTH"
);
},
{
closed = 1;
nodes = (
"84 28 OFFCURVE",
"75 121 OFFCURVE",
"97 240 CURVE SMOOTH",
"111 329 OFFCURVE",
"127 419 OFFCURVE",
"143 503 CURVE SMOOTH",
"167 646 OFFCURVE",
"204 701 OFFCURVE",
"315 701 CURVE SMOOTH",
"423 701 LINE",
"305 28 LINE",
"193 28 LINE SMOOTH"
);
}
);
width = 636;
},
{
layerId = "3257632A-050A-40C2-B21A-C728868BC46F";
paths = (
{
closed = 1;
nodes = (
"647 0 LINE",
"672 146 LINE",
"476 146 LINE",
"503 300 LINE",
"656 300 LINE",
"681 442 LINE",
"528 442 LINE",
"553 583 LINE",
"744 583 LINE",
"769 729 LINE",
"338 729 LINE SMOOTH",
"178 729 OFFCURVE",
"95 658 OFFCURVE",
"64 483 CURVE SMOOTH",
"53 420 OFFCURVE",
"42 353 OFFCURVE",
"30 285 CURVE SMOOTH",
"0 115 OFFCURVE",
"46 0 OFFCURVE",
"212 0 CURVE SMOOTH"
);
},
{
closed = 1;
nodes = (
"208 146 OFFCURVE",
"189 175 OFFCURVE",
"202 250 CURVE SMOOTH",
"216 330 OFFCURVE",
"230 409 OFFCURVE",
"244 489 CURVE SMOOTH",
"257 561 OFFCURVE",
"285 583 OFFCURVE",
"334 583 CURVE SMOOTH",
"375 583 LINE",
"297 146 LINE",
"257 146 LINE SMOOTH"
);
}
);
width = 717;
},
{
layerId = "33C7CA81-8DED-4513-9072-CA0E40765DD9";
paths = (
{
closed = 1;
nodes = (
"982 0 LINE",
"988 36 LINE",
"559 36 LINE",
"617 359 LINE",
"998 359 LINE",
"1004 393 LINE",
"623 393 LINE",
"677 693 LINE",
"1103 693 LINE",
"1109 729 LINE",
"433 729 LINE SMOOTH",
"251 729 OFFCURVE",
"131 640 OFFCURVE",
"94 451 CURVE SMOOTH",
"92 434 OFFCURVE",
"87 409 OFFCURVE",
"82 382 CURVE SMOOTH",
"42 146 OFFCURVE",
"152 0 OFFCURVE",
"354 0 CURVE SMOOTH"
);
},
{
closed = 1;
nodes = (
"180 35 OFFCURVE",
"87 161 OFFCURVE",
"120 347 CURVE SMOOTH",
"127 389 OFFCURVE",
"134 432 OFFCURVE",
"141 474 CURVE SMOOTH",
"165 605 OFFCURVE",
"263 693 OFFCURVE",
"427 693 CURVE SMOOTH",
"639 693 LINE",
"521 35 LINE",
"361 35 LINE SMOOTH"
);
}
);
width = 1097;
},
{
layerId = "46C13DED-2BAB-471A-8D19-A1FA49A5501E";
paths = (
{
closed = 1;
nodes = (
"1089 0 LINE",
"1096 38 LINE",
"600 38 LINE",
"657 357 LINE",
"1099 357 LINE",
"1105 395 LINE",
"664 395 LINE",
"716 691 LINE",
"1212 691 LINE",
"1218 729 LINE",
"478 729 LINE SMOOTH",
"282 729 OFFCURVE",
"151 646 OFFCURVE",
"101 485 CURVE SMOOTH",
"89 446 OFFCURVE",
"80 388 OFFCURVE",
"79 339 CURVE SMOOTH",
"71 104 OFFCURVE",
"212 0 OFFCURVE",
"420 0 CURVE SMOOTH"
);
},
{
closed = 1;
nodes = (
"221 37 OFFCURVE",
"96 143 OFFCURVE",
"121 353 CURVE SMOOTH",
"124 381 OFFCURVE",
"129 414 OFFCURVE",
"134 443 CURVE SMOOTH",
"162 616 OFFCURVE",
"290 691 OFFCURVE",
"473 691 CURVE SMOOTH",
"676 691 LINE",
"558 37 LINE",
"416 37 LINE SMOOTH"
);
}
);
width = 1188;
},
{
background = {
paths = (
{
closed = 1;
nodes = (
"1171 0 LINE",
"1171 39 LINE",
"649 39 LINE",
"649 358 LINE",
"1114 358 LINE",
"1114 396 LINE",
"649 396 LINE",
"649 690 LINE",
"1172 690 LINE",
"1172 729 LINE",
"446 729 LINE SMOOTH",
"212 729 OFFCURVE",
"57 609 OFFCURVE",
"57 355 CURVE SMOOTH",
"57 356 OFFCURVE",
"57 359 OFFCURVE",
"57 360 CURVE SMOOTH",
"58 142 OFFCURVE",
"184 0 OFFCURVE",
"446 0 CURVE SMOOTH"
);
},
{
closed = 1;
nodes = (
"240 39 OFFCURVE",
"104 145 OFFCURVE",
"104 330 CURVE SMOOTH",
"104 353 OFFCURVE",
"104 376 OFFCURVE",
"104 399 CURVE SMOOTH",
"104 576 OFFCURVE",
"230 690 OFFCURVE",
"446 690 CURVE SMOOTH",
"610 690 LINE",
"610 39 LINE",
"446 39 LINE SMOOTH"
);
}
);
};
layerId = "C1814757-B5F7-4D49-B715-04BFD84ECCF6";
paths = (
{
closed = 1;
nodes = (
"1171 0 LINE",
"1171 39 LINE",
"649 39 LINE",
"649 358 LINE",
"1114 358 LINE",
"1114 396 LINE",
"649 396 LINE",
"649 690 LINE",
"1172 690 LINE",
"1172 729 LINE",
"446 729 LINE SMOOTH",
"182 729 OFFCURVE",
"58 585 OFFCURVE",
"58 369 CURVE SMOOTH",
"58 366 OFFCURVE",
"58 363 OFFCURVE",
"58 360 CURVE SMOOTH",
"58 144 OFFCURVE",
"182 0 OFFCURVE",
"446 0 CURVE SMOOTH"
);
},
{
closed = 1;
nodes = (
"219 39 OFFCURVE",
"104 154 OFFCURVE",
"104 327 CURVE SMOOTH",
"104 352 OFFCURVE",
"104 377 OFFCURVE",
"104 402 CURVE SMOOTH",
"104 575 OFFCURVE",
"219 690 OFFCURVE",
"446 690 CURVE SMOOTH",
"610 690 LINE",
"610 39 LINE",
"446 39 LINE SMOOTH"
);
}
);
width = 1224;
},
{
layerId = "8B1B4E65-9831-4464-9A92-CA98D2219836";
paths = (
{
closed = 1;
nodes = (
"1047 0 LINE",
"1047 180 LINE",
"700 180 LINE",
"700 284 LINE",
"993 284 LINE",
"993 452 LINE",
"700 452 LINE",
"700 549 LINE",
"1047 549 LINE",
"1047 729 LINE",
"394 729 LINE SMOOTH",
"176 729 OFFCURVE",
"31 613 OFFCURVE",
"31 367 CURVE SMOOTH",
"31 365 OFFCURVE",
"31 363 OFFCURVE",
"31 361 CURVE SMOOTH",
"30 146 OFFCURVE",
"146 0 OFFCURVE",
"394 0 CURVE SMOOTH"
);
},
{
closed = 1;
nodes = (
"299 179 OFFCURVE",
"254 229 OFFCURVE",
"254 305 CURVE SMOOTH",
"254 345 OFFCURVE",
"254 383 OFFCURVE",
"254 423 CURVE SMOOTH",
"254 498 OFFCURVE",
"298 549 OFFCURVE",
"394 549 CURVE SMOOTH",
"488 549 LINE",
"488 179 LINE",
"394 179 LINE SMOOTH"
);
}
);
width = 1092;
},
{
layerId = "2359B287-0F82-447F-8C68-59A72835D733";
paths = (
{
closed = 1;
nodes = (
"976 0 LINE",
"1007 179 LINE",
"673 179 LINE",
"692 286 LINE",
"972 286 LINE",
"1001 452 LINE",
"722 452 LINE",
"740 550 LINE",
"1072 550 LINE",
"1103 729 LINE",
"472 729 LINE SMOOTH",
"253 729 OFFCURVE",
"110 639 OFFCURVE",
"64 453 CURVE SMOOTH",
"52 408 OFFCURVE",
"46 332 OFFCURVE",
"46 296 CURVE SMOOTH",
"49 111 OFFCURVE",
"157 0 OFFCURVE",
"376 0 CURVE SMOOTH"
);
},
{
closed = 1;
nodes = (
"296 180 OFFCURVE",
"247 214 OFFCURVE",
"261 311 CURVE SMOOTH",
"268 355 OFFCURVE",
"278 410 OFFCURVE",
"282 432 CURVE SMOOTH",
"294 501 OFFCURVE",
"336 548 OFFCURVE",
"424 548 CURVE SMOOTH",
"525 548 LINE",
"459 180 LINE",
"375 180 LINE SMOOTH"
);
}
);
width = 1069;
},
{
layerId = "46DCD09A-F85A-41B9-8FAA-640012B7D4F4";
paths = (
{
closed = 1;
nodes = (
"1243 0 LINE",
"1243 184 LINE",
"822 184 LINE",
"822 282 LINE",
"1181 282 LINE",
"1181 452 LINE",
"822 452 LINE",
"822 545 LINE",
"1245 545 LINE",
"1245 729 LINE",
"450 729 LINE SMOOTH",
"202 729 OFFCURVE",
"28 615 OFFCURVE",
"28 368 CURVE SMOOTH",
"28 366 OFFCURVE",
"28 363 OFFCURVE",
"28 361 CURVE SMOOTH",
"28 114 OFFCURVE",
"202 0 OFFCURVE",
"450 0 CURVE SMOOTH"
);
},
{
closed = 1;
nodes = (
"325 184 OFFCURVE",
"287 245 OFFCURVE",
"287 332 CURVE SMOOTH",
"287 354 OFFCURVE",
"287 375 OFFCURVE",
"287 397 CURVE SMOOTH",
"287 484 OFFCURVE",
"325 545 OFFCURVE",
"459 545 CURVE SMOOTH",
"577 545 LINE",
"577 184 LINE",
"459 184 LINE SMOOTH"
);
}
);
width = 1282;
},
{
layerId = "0D69E86C-407B-4861-9815-978EE2313DB2";
paths = (
{
closed = 1;
nodes = (
"1113 0 LINE",
"1143 181 LINE",
"744 181 LINE",
"763 282 LINE",
"1100 282 LINE",
"1131 453 LINE",
"792 453 LINE",
"809 548 LINE",
"1209 548 LINE",
"1241 729 LINE",
"476 729 LINE SMOOTH",
"252 729 OFFCURVE",
"102 615 OFFCURVE",
"58 439 CURVE SMOOTH",
"49 405 OFFCURVE",
"44 358 OFFCURVE",
"45 323 CURVE SMOOTH",
"48 126 OFFCURVE",
"172 0 OFFCURVE",
"415 0 CURVE SMOOTH"
);
},
{
closed = 1;
nodes = (
"336 184 OFFCURVE",
"282 228 OFFCURVE",
"297 342 CURVE SMOOTH",
"300 369 OFFCURVE",
"307 394 OFFCURVE",
"310 417 CURVE SMOOTH",
"327 513 OFFCURVE",
"384 548 OFFCURVE",
"469 548 CURVE SMOOTH",
"572 548 LINE",
"507 184 LINE",
"436 184 LINE SMOOTH"
);
}
);
width = 1197;
}
);
leftKerningGroup = C;
leftMetricsKey = C;
rightKerningGroup = E;
rightMetricsKey = E;
unicode = 0152;
},
{
glyphname = P;
lastChange = "2022-06-05 15:23:09 +0000";
layers = (
{
anchors = (
{
name = bottom;
position = "{200, 0}";
},
{
name = top;
position = "{200, 729}";
}
);
layerId = "6932EABA-00D8-4526-96D6-87ADD7AC589E";
paths = (
{
closed = 1;
nodes = (
"119 0 LINE",
"119 701 LINE",
"194 701 LINE SMOOTH",
"288 701 OFFCURVE",
"324 644 OFFCURVE",
"324 558 CURVE SMOOTH",
"324 506 LINE SMOOTH",
"324 420 OFFCURVE",
"288 363 OFFCURVE",
"194 363 CURVE SMOOTH",
"112 363 LINE",
"112 335 LINE",
"194 335 LINE SMOOTH",
"296 335 OFFCURVE",
"355 390 OFFCURVE",
"355 532 CURVE SMOOTH",
"355 674 OFFCURVE",
"296 729 OFFCURVE",
"194 729 CURVE SMOOTH",
"88 729 LINE",
"88 0 LINE"
);
}
);
width = 395;
},
{
anchors = (
{
name = bottom;
position = "{256, 0}";
},
{
name = top;
position = "{256, 729}";
}
);
background = {
paths = (
{
closed = 1;
nodes = (
"213 0 LINE",
"213 596 LINE",
"249 596 LINE SMOOTH",
"287 596 OFFCURVE",
"309 584 OFFCURVE",
"309 535 CURVE SMOOTH",
"309 467 LINE SMOOTH",
"309 427 OFFCURVE",
"297 401 OFFCURVE",
"249 401 CURVE SMOOTH",
"197 401 LINE",
"197 272 LINE",
"267 272 LINE SMOOTH",
"397 272 OFFCURVE",
"484 328 OFFCURVE",
"484 505 CURVE SMOOTH",
"484 653 OFFCURVE",
"408 729 OFFCURVE",
"247 729 CURVE SMOOTH",
"35 729 LINE",
"35 0 LINE"
);
}
);
};
layerId = "E787E54A-EE3E-475A-BF02-8501A6DA5144";
paths = (
{
closed = 1;
nodes = (
"213 0 LINE",
"213 586 LINE",
"249 586 LINE SMOOTH",
"287 586 OFFCURVE",
"309 574 OFFCURVE",
"309 525 CURVE SMOOTH",
"309 467 LINE SMOOTH",
"309 427 OFFCURVE",
"297 401 OFFCURVE",
"249 401 CURVE SMOOTH",
"197 401 LINE",
"197 272 LINE",
"267 272 LINE SMOOTH",
"397 272 OFFCURVE",
"484 328 OFFCURVE",
"484 505 CURVE SMOOTH",
"484 653 OFFCURVE",
"408 729 OFFCURVE",
"247 729 CURVE SMOOTH",
"35 729 LINE",
"35 0 LINE"
);
}
);
width = 503;
},
{
anchors = (
{
name = bottom;
position = "{384, 0}";
},
{
name = top;
position = "{384, 729}";
}
);
layerId = "B743CB11-DC16-45F2-BA04-3635CB00F7DA";
paths = (
{
closed = 1;
nodes = (
"173 0 LINE",
"173 693 LINE",
"419 693 LINE SMOOTH",
"543 693 OFFCURVE",
"616 636 OFFCURVE",
"616 535 CURVE SMOOTH",
"616 472 LINE SMOOTH",
"616 367 OFFCURVE",
"538 314 OFFCURVE",
"419 314 CURVE SMOOTH",
"164 314 LINE",
"164 277 LINE",
"425 277 LINE SMOOTH",
"581 277 OFFCURVE",
"659 366 OFFCURVE",
"659 503 CURVE SMOOTH",
"659 650 OFFCURVE",
"576 729 OFFCURVE",
"426 729 CURVE SMOOTH",
"134 729 LINE",
"134 0 LINE"
);
}
);
width = 722;
},
{
anchors = (
{
name = bottom;
position = "{209, 0}";
},
{
name = top;
position = "{338, 729}";
}
);
background = {
paths = (
{
closed = 1;
nodes = (
"166 0 LINE",
"271 596 LINE",
"306 596 LINE SMOOTH",
"345 596 OFFCURVE",
"362 578 OFFCURVE",
"354 529 CURVE SMOOTH",
"343 464 LINE SMOOTH",
"336 424 OFFCURVE",
"321 401 OFFCURVE",
"272 401 CURVE SMOOTH",
"220 401 LINE",
"198 272 LINE",
"267 272 LINE SMOOTH",
"395 272 OFFCURVE",
"496 309 OFFCURVE",
"522 483 CURVE SMOOTH",
"544 631 OFFCURVE",
"488 729 OFFCURVE",
"327 729 CURVE SMOOTH",
"116 729 LINE",
"-12 0 LINE"
);
}
);
};
layerId = "3257632A-050A-40C2-B21A-C728868BC46F";
paths = (
{
closed = 1;
nodes = (
"166 0 LINE",
"269 586 LINE",
"305 586 LINE SMOOTH",
"344 586 OFFCURVE",
"362 568 OFFCURVE",
"353 519 CURVE SMOOTH",
"343 464 LINE SMOOTH",
"336 424 OFFCURVE",
"321 401 OFFCURVE",
"272 401 CURVE SMOOTH",
"221 401 LINE",
"198 272 LINE",
"267 272 LINE SMOOTH",
"395 272 OFFCURVE",
"496 309 OFFCURVE",
"522 483 CURVE SMOOTH",
"544 631 OFFCURVE",
"488 729 OFFCURVE",
"327 729 CURVE SMOOTH",
"116 729 LINE",
"-12 0 LINE"
);
}
);
width = 504;
},
{
anchors = (
{
name = bottom;
position = "{156, 0}";
},
{
name = top;
position = "{284, 729}";
}
);
layerId = "84BE75FC-12C8-47E9-B302-5F6D56903923";
paths = (
{
closed = 1;
nodes = (
"75 0 LINE",
"198 701 LINE",
"272 701 LINE SMOOTH",
"366 701 OFFCURVE",
"391 633 OFFCURVE",
"376 547 CURVE SMOOTH",
"367 495 LINE SMOOTH",
"352 410 OFFCURVE",
"307 362 OFFCURVE",
"214 362 CURVE SMOOTH",
"132 362 LINE",
"128 335 LINE",
"209 335 LINE SMOOTH",
"315 335 OFFCURVE",
"379 384 OFFCURVE",
"402 517 CURVE SMOOTH",
"427 661 OFFCURVE",
"378 729 OFFCURVE",
"278 729 CURVE SMOOTH",
"172 729 LINE",
"43 0 LINE"
);
}
);
width = 396;
},
{
anchors = (
{
name = bottom;
position = "{343, 0}";
},
{
name = top;
position = "{471, 729}";
}
);
layerId = "33C7CA81-8DED-4513-9072-CA0E40765DD9";
paths = (
{
closed = 1;
nodes = (
"126 0 LINE",
"248 694 LINE",
"514 694 LINE SMOOTH",
"628 694 OFFCURVE",
"682 629 OFFCURVE",
"671 534 CURVE SMOOTH",
"662 471 LINE SMOOTH",
"646 381 OFFCURVE",
"573 322 OFFCURVE",
"456 322 CURVE SMOOTH",
"167 322 LINE",
"161 287 LINE",
"449 287 LINE SMOOTH",
"607 287 OFFCURVE",
"706 376 OFFCURVE",
"710 523 CURVE SMOOTH",
"715 650 OFFCURVE",
"650 729 OFFCURVE",
"518 729 CURVE SMOOTH",
"218 729 LINE",
"89 0 LINE"
);
}
);
width = 730;
},
{
anchors = (
{
name = bottom;
position = "{368, 0}";
},
{
name = top;
position = "{496, 729}";
}
);
layerId = "46C13DED-2BAB-471A-8D19-A1FA49A5501E";
paths = (
{
closed = 1;
nodes = (
"103 0 LINE",
"225 692 LINE",
"562 692 LINE SMOOTH",
"684 692 OFFCURVE",
"760 627 OFFCURVE",
"745 520 CURVE SMOOTH",
"737 463 LINE SMOOTH",
"722 359 OFFCURVE",
"631 310 OFFCURVE",
"506 310 CURVE SMOOTH",
"139 310 LINE",
"133 272 LINE",
"499 272 LINE SMOOTH",
"680 272 OFFCURVE",
"788 361 OFFCURVE",
"788 521 CURVE SMOOTH",
"788 663 OFFCURVE",
"697 729 OFFCURVE",
"566 729 CURVE SMOOTH",
"193 729 LINE",
"64 0 LINE"
);
}
);
width = 810;
},
{
anchors = (
{
name = bottom;
position = "{405, 0}";
},
{
name = top;
position = "{405, 729}";
}
);
background = {
paths = (
{
closed = 1;
nodes = (
"148 0 LINE",
"148 690 LINE",
"463 690 LINE SMOOTH",
"628 690 OFFCURVE",
"686 633 OFFCURVE",
"686 530 CURVE SMOOTH",
"686 465 LINE SMOOTH",
"686 361 OFFCURVE",
"629 305 OFFCURVE",
"463 305 CURVE SMOOTH",
"139 305 LINE",
"139 267 LINE",
"457 267 LINE SMOOTH",
"669 267 OFFCURVE",
"730 363 OFFCURVE",
"730 499 CURVE SMOOTH",
"730 633 OFFCURVE",
"670 729 OFFCURVE",
"457 729 CURVE SMOOTH",
"109 729 LINE",
"109 0 LINE"
);
}
);
};
layerId = "C1814757-B5F7-4D49-B715-04BFD84ECCF6";
paths = (
{
closed = 1;
nodes = (
"148 0 LINE",
"148 690 LINE",
"483 690 LINE SMOOTH",
"631 690 OFFCURVE",
"686 623 OFFCURVE",
"686 520 CURVE SMOOTH",
"686 478 LINE SMOOTH",
"686 375 OFFCURVE",
"631 308 OFFCURVE",
"483 308 CURVE SMOOTH",
"131 308 LINE",
"131 269 LINE",
"483 269 LINE SMOOTH",
"631 269 OFFCURVE",
"730 333 OFFCURVE",
"730 499 CURVE SMOOTH",
"730 637 OFFCURVE",
"661 729 OFFCURVE",
"483 729 CURVE SMOOTH",
"109 729 LINE",
"109 0 LINE"
);
}
);
width = 793;
},
{
anchors = (
{
name = bottom;
position = "{364, 0}";
},
{
name = top;
position = "{364, 729}";
}
);
background = {
paths = (
{
closed = 1;
nodes = (
"276 0 LINE",
"276 549 LINE",
"374 549 LINE SMOOTH",
"424 549 OFFCURVE",
"457 535 OFFCURVE",
"457 485 CURVE SMOOTH",
"457 452 LINE SMOOTH",
"457 415 OFFCURVE",
"435 388 OFFCURVE",
"374 388 CURVE SMOOTH",
"259 388 LINE",
"259 210 LINE",
"398 210 LINE SMOOTH",
"567 210 OFFCURVE",
"682 304 OFFCURVE",
"682 469 CURVE SMOOTH",
"682 625 OFFCURVE",
"592 729 OFFCURVE",
"397 729 CURVE SMOOTH",
"63 729 LINE",
"63 0 LINE"
);
}
);
};
guideLines = (
{
position = "{409, 214}";
}
);
layerId = "8B1B4E65-9831-4464-9A92-CA98D2219836";
paths = (
{
closed = 1;
nodes = (
"276 0 LINE",
"276 547 LINE",
"392 547 LINE SMOOTH",
"443 547 OFFCURVE",
"477 522 OFFCURVE",
"477 473 CURVE SMOOTH",
"477 455 LINE SMOOTH",
"477 411 OFFCURVE",
"450 381 OFFCURVE",
"392 381 CURVE SMOOTH",
"260 381 LINE",
"260 214 LINE",
"409 214 LINE SMOOTH",
"608 214 OFFCURVE",
"701 317 OFFCURVE",
"701 472 CURVE SMOOTH",
"701 626 OFFCURVE",
"611 729 OFFCURVE",
"420 729 CURVE SMOOTH",
"63 729 LINE",
"63 0 LINE"
);
}
);
width = 730;
},
{
anchors = (
{
name = bottom;
position = "{334, 0}";
},
{
name = top;
position = "{463, 729}";
}
);
guideLines = (
{
position = "{435, 214}";
}
);
layerId = "2359B287-0F82-447F-8C68-59A72835D733";
paths = (
{
closed = 1;
nodes = (
"235 0 LINE",
"331 547 LINE",
"440 547 LINE SMOOTH",
"483 547 OFFCURVE",
"518 523 OFFCURVE",
"510 472 CURVE SMOOTH",
"506 446 LINE SMOOTH",
"498 395 OFFCURVE",
"448 381 OFFCURVE",
"411 381 CURVE SMOOTH",
"286 381 LINE",
"257 214 LINE",
"434 214 LINE SMOOTH",
"615 214 OFFCURVE",
"735 316 OFFCURVE",
"734 498 CURVE SMOOTH",
"734 646 OFFCURVE",
"638 729 OFFCURVE",
"468 729 CURVE SMOOTH",
"150 729 LINE",
"21 0 LINE"
);
}
);
width = 729;
},
{
anchors = (
{
name = bottom;
position = "{427, 0}";
},
{
name = top;
position = "{427, 729}";
}
);
layerId = "46DCD09A-F85A-41B9-8FAA-640012B7D4F4";
paths = (
{
closed = 1;
nodes = (
"308 0 LINE",
"308 540 LINE",
"442 540 LINE SMOOTH",
"518 540 OFFCURVE",
"555 520 OFFCURVE",
"555 471 CURVE SMOOTH",
"555 450 LINE SMOOTH",
"555 405 OFFCURVE",
"525 382 OFFCURVE",
"442 382 CURVE SMOOTH",
"291 382 LINE",
"291 198 LINE",
"483 198 LINE SMOOTH",
"700 198 OFFCURVE",
"815 303 OFFCURVE",
"815 462 CURVE SMOOTH",
"815 620 OFFCURVE",
"724 729 OFFCURVE",
"487 729 CURVE SMOOTH",
"63 729 LINE",
"63 0 LINE"
);
}
);
width = 842;
},
{
anchors = (
{
name = bottom;
position = "{369, 0}";
},
{
name = top;
position = "{498, 729}";
}
);
layerId = "0D69E86C-407B-4861-9815-978EE2313DB2";
paths = (
{
closed = 1;
nodes = (
"253 0 LINE",
"350 541 LINE",
"499 541 LINE SMOOTH",
"549 541 OFFCURVE",
"577 511 OFFCURVE",
"568 467 CURVE SMOOTH",
"563 442 LINE SMOOTH",
"557 407 OFFCURVE",
"524 382 OFFCURVE",
"457 382 CURVE SMOOTH",
"304 382 LINE",
"272 198 LINE",
"496 198 LINE SMOOTH",
"701 198 OFFCURVE",
"834 319 OFFCURVE",
"827 490 CURVE SMOOTH",
"822 635 OFFCURVE",
"723 729 OFFCURVE",
"536 729 CURVE SMOOTH",
"145 729 LINE",
"15 0 LINE"
);
}
);
width = 823;
}
);
leftKerningGroup = B;
leftMetricsKey = H;
rightKerningGroup = P;
unicode = 0050;
},
{
glyphname = Thorn;
lastChange = "2022-06-05 15:23:09 +0000";
layers = (
{
layerId = "6932EABA-00D8-4526-96D6-87ADD7AC589E";
paths = (
{
closed = 1;
nodes = (
"119 0 LINE",
"119 168 LINE",
"194 168 LINE SMOOTH",
"296 168 OFFCURVE",
"355 223 OFFCURVE",
"355 365 CURVE SMOOTH",
"355 507 OFFCURVE",
"296 562 OFFCURVE",
"194 562 CURVE SMOOTH",
"119 562 LINE",
"119 729 LINE",
"88 729 LINE",
"88 0 LINE"
);
},
{
closed = 1;
nodes = (
"119 534 LINE",
"194 534 LINE SMOOTH",
"288 534 OFFCURVE",
"324 477 OFFCURVE",
"324 391 CURVE SMOOTH",
"324 374 OFFCURVE",
"324 356 OFFCURVE",
"324 339 CURVE SMOOTH",
"324 253 OFFCURVE",
"288 196 OFFCURVE",
"194 196 CURVE SMOOTH",
"119 196 LINE"
);
}
);
width = 395;
},
{
layerId = "E787E54A-EE3E-475A-BF02-8501A6DA5144";
paths = (
{
closed = 1;
nodes = (
"213 0 LINE",
"213 136 LINE",
"267 136 LINE SMOOTH",
"397 136 OFFCURVE",
"484 192 OFFCURVE",
"484 369 CURVE SMOOTH",
"484 517 OFFCURVE",
"408 593 OFFCURVE",
"247 593 CURVE SMOOTH",
"213 593 LINE",
"213 729 LINE",
"35 729 LINE",
"35 0 LINE"
);
},
{
closed = 1;
nodes = (
"213 460 LINE",
"249 460 LINE SMOOTH",
"287 460 OFFCURVE",
"309 448 OFFCURVE",
"309 399 CURVE SMOOTH",
"309 376 OFFCURVE",
"309 354 OFFCURVE",
"309 331 CURVE SMOOTH",
"309 291 OFFCURVE",
"297 265 OFFCURVE",
"249 265 CURVE SMOOTH",
"213 265 LINE"
);
}
);
width = 503;
},
{
layerId = "B743CB11-DC16-45F2-BA04-3635CB00F7DA";
paths = (
{
closed = 1;
nodes = (
"173 0 LINE",
"173 139 LINE",
"425 139 LINE SMOOTH",
"581 139 OFFCURVE",
"659 228 OFFCURVE",
"659 365 CURVE SMOOTH",
"659 512 OFFCURVE",
"576 591 OFFCURVE",
"426 591 CURVE SMOOTH",
"173 591 LINE",
"173 729 LINE",
"134 729 LINE",
"134 0 LINE"
);
},
{
closed = 1;
nodes = (
"173 555 LINE",
"419 555 LINE SMOOTH",
"543 555 OFFCURVE",
"616 498 OFFCURVE",
"616 397 CURVE SMOOTH",
"616 376 OFFCURVE",
"616 355 OFFCURVE",
"616 334 CURVE SMOOTH",
"616 229 OFFCURVE",
"538 176 OFFCURVE",
"419 176 CURVE SMOOTH",
"173 176 LINE"
);
}
);
width = 722;
},
{
layerId = "84BE75FC-12C8-47E9-B302-5F6D56903923";
paths = (
{
closed = 1;
nodes = (
"74 0 LINE",
"103 168 LINE",
"209 168 LINE SMOOTH",
"315 168 OFFCURVE",
"379 217 OFFCURVE",
"402 350 CURVE SMOOTH",
"427 494 OFFCURVE",
"378 562 OFFCURVE",
"278 562 CURVE SMOOTH",
"173 562 LINE",
"202 729 LINE",
"171 729 LINE",
"43 0 LINE"
);
},
{
closed = 1;
nodes = (
"168 534 LINE",
"272 534 LINE SMOOTH",
"366 534 OFFCURVE",
"391 466 OFFCURVE",
"376 380 CURVE SMOOTH",
"373 363 OFFCURVE",
"369 342 OFFCURVE",
"367 328 CURVE SMOOTH",
"352 243 OFFCURVE",
"307 195 OFFCURVE",
"214 195 CURVE SMOOTH",
"108 195 LINE"
);
}
);
width = 426;
},
{
layerId = "3257632A-050A-40C2-B21A-C728868BC46F";
paths = (
{
closed = 1;
nodes = (
"166 0 LINE",
"190 136 LINE",
"267 136 LINE SMOOTH",
"395 136 OFFCURVE",
"496 173 OFFCURVE",
"522 347 CURVE SMOOTH",
"544 495 OFFCURVE",
"488 593 OFFCURVE",
"327 593 CURVE SMOOTH",
"270 593 LINE",
"294 729 LINE",
"116 729 LINE",
"-12 0 LINE"
);
},
{
closed = 1;
nodes = (
"247 460 LINE",
"306 460 LINE SMOOTH",
"345 460 OFFCURVE",
"362 442 OFFCURVE",
"354 393 CURVE SMOOTH",
"350 371 OFFCURVE",
"347 350 OFFCURVE",
"343 328 CURVE SMOOTH",
"336 288 OFFCURVE",
"321 265 OFFCURVE",
"272 265 CURVE SMOOTH",
"213 265 LINE"
);
}
);
width = 528;
},
{
layerId = "33C7CA81-8DED-4513-9072-CA0E40765DD9";
paths = (
{
closed = 1;
nodes = (
"126 0 LINE",
"151 144 LINE",
"449 144 LINE SMOOTH",
"607 144 OFFCURVE",
"706 233 OFFCURVE",
"710 380 CURVE SMOOTH",
"715 507 OFFCURVE",
"650 586 OFFCURVE",
"518 586 CURVE SMOOTH",
"230 586 LINE",
"255 729 LINE",
"218 729 LINE",
"89 0 LINE"
);
},
{
closed = 1;
nodes = (
"224 551 LINE",
"514 551 LINE SMOOTH",
"628 551 OFFCURVE",
"682 486 OFFCURVE",
"671 391 CURVE SMOOTH",
"669 370 OFFCURVE",
"665 348 OFFCURVE",
"662 328 CURVE SMOOTH",
"646 238 OFFCURVE",
"573 179 OFFCURVE",
"456 179 CURVE SMOOTH",
"158 179 LINE"
);
}
);
width = 755;
},
{
layerId = "46C13DED-2BAB-471A-8D19-A1FA49A5501E";
paths = (
{
closed = 1;
nodes = (
"104 0 LINE",
"128 136 LINE",
"485 136 LINE SMOOTH",
"659 136 OFFCURVE",
"769 239 OFFCURVE",
"768 389 CURVE SMOOTH",
"766 510 OFFCURVE",
"697 593 OFFCURVE",
"554 593 CURVE SMOOTH",
"209 593 LINE",
"234 729 LINE",
"193 729 LINE",
"64 0 LINE"
);
},
{
closed = 1;
nodes = (
"203 557 LINE",
"550 557 LINE SMOOTH",
"671 557 OFFCURVE",
"733 492 OFFCURVE",
"725 394 CURVE SMOOTH",
"723 372 OFFCURVE",
"719 350 OFFCURVE",
"716 327 CURVE SMOOTH",
"700 236 OFFCURVE",
"617 174 OFFCURVE",
"493 174 CURVE SMOOTH",
"135 174 LINE"
);
}
);
width = 813;
},
{
layerId = "C1814757-B5F7-4D49-B715-04BFD84ECCF6";
paths = (
{
closed = 1;
nodes = (
"148 0 LINE",
"148 135 LINE",
"457 135 LINE SMOOTH",
"669 135 OFFCURVE",
"730 231 OFFCURVE",
"730 365 CURVE SMOOTH",
"730 501 OFFCURVE",
"670 595 OFFCURVE",
"457 595 CURVE SMOOTH",
"148 595 LINE",
"148 729 LINE",
"109 729 LINE",
"109 0 LINE"
);
},
{
closed = 1;
nodes = (
"148 558 LINE",
"463 558 LINE SMOOTH",
"628 558 OFFCURVE",
"686 501 OFFCURVE",
"686 396 CURVE SMOOTH",
"686 375 OFFCURVE",
"686 353 OFFCURVE",
"686 331 CURVE SMOOTH",
"686 229 OFFCURVE",
"629 172 OFFCURVE",
"463 172 CURVE SMOOTH",
"148 172 LINE"
);
}
);
width = 793;
},
{
layerId = "8B1B4E65-9831-4464-9A92-CA98D2219836";
paths = (
{
closed = 1;
nodes = (
"276 0 LINE",
"276 105 LINE",
"398 105 LINE SMOOTH",
"567 105 OFFCURVE",
"682 198 OFFCURVE",
"682 364 CURVE SMOOTH",
"682 519 OFFCURVE",
"592 624 OFFCURVE",
"397 624 CURVE SMOOTH",
"276 624 LINE",
"276 729 LINE",
"63 729 LINE",
"63 0 LINE"
);
},
{
closed = 1;
nodes = (
"276 444 LINE",
"374 444 LINE SMOOTH",
"424 444 OFFCURVE",
"457 429 OFFCURVE",
"457 380 CURVE SMOOTH",
"457 369 OFFCURVE",
"457 358 OFFCURVE",
"457 347 CURVE SMOOTH",
"457 309 OFFCURVE",
"435 283 OFFCURVE",
"374 283 CURVE SMOOTH",
"276 283 LINE"
);
}
);
width = 711;
},
{
layerId = "2359B287-0F82-447F-8C68-59A72835D733";
paths = (
{
closed = 1;
nodes = (
"236 0 LINE",
"254 109 LINE",
"423 109 LINE SMOOTH",
"610 109 OFFCURVE",
"724 212 OFFCURVE",
"723 388 CURVE SMOOTH",
"723 529 OFFCURVE",
"643 620 OFFCURVE",
"457 620 CURVE SMOOTH",
"345 620 LINE",
"364 729 LINE",
"149 729 LINE",
"21 0 LINE"
);
},
{
closed = 1;
nodes = (
"313 440 LINE",
"431 440 LINE SMOOTH",
"468 440 OFFCURVE",
"501 426 OFFCURVE",
"502 383 CURVE SMOOTH",
"502 368 OFFCURVE",
"500 350 OFFCURVE",
"494 330 CURVE SMOOTH",
"483 295 OFFCURVE",
"461 278 OFFCURVE",
"400 278 CURVE SMOOTH",
"285 278 LINE"
);
}
);
width = 738;
},
{
layerId = "46DCD09A-F85A-41B9-8FAA-640012B7D4F4";
paths = (
{
closed = 1;
nodes = (
"308 0 LINE",
"308 99 LINE",
"473 99 LINE SMOOTH",
"678 99 OFFCURVE",
"793 201 OFFCURVE",
"793 364 CURVE SMOOTH",
"793 521 OFFCURVE",
"704 630 OFFCURVE",
"478 630 CURVE SMOOTH",
"308 630 LINE",
"308 729 LINE",
"63 729 LINE",
"63 0 LINE"
);
},
{
closed = 1;
nodes = (
"308 441 LINE",
"430 441 LINE SMOOTH",
"500 441 OFFCURVE",
"533 421 OFFCURVE",
"533 370 CURVE SMOOTH",
"533 364 OFFCURVE",
"533 357 OFFCURVE",
"533 352 CURVE SMOOTH",
"533 307 OFFCURVE",
"506 282 OFFCURVE",
"430 282 CURVE SMOOTH",
"308 282 LINE"
);
}
);
width = 820;
},
{
layerId = "0D69E86C-407B-4861-9815-978EE2313DB2";
paths = (
{
closed = 1;
nodes = (
"254 0 LINE",
"271 102 LINE",
"484 102 LINE SMOOTH",
"696 102 OFFCURVE",
"811 224 OFFCURVE",
"807 389 CURVE SMOOTH",
"802 531 OFFCURVE",
"705 628 OFFCURVE",
"502 628 CURVE SMOOTH",
"366 628 LINE",
"383 729 LINE",
"145 729 LINE",
"15 0 LINE"
);
},
{
closed = 1;
nodes = (
"332 442 LINE",
"474 442 LINE SMOOTH",
"514 442 OFFCURVE",
"547 426 OFFCURVE",
"549 378 CURVE SMOOTH",
"549 372 OFFCURVE",
"547 357 OFFCURVE",
"544 347 CURVE SMOOTH",
"537 305 OFFCURVE",
"514 281 OFFCURVE",
"444 281 CURVE SMOOTH",
"304 281 LINE"
);
}
);
width = 820;
}
);
leftKerningGroup = B;
leftMetricsKey = B;
rightKerningGroup = Thorn;
rightMetricsKey = P;
unicode = 00DE;
},
{
glyphname = Q;
lastChange = "2022-06-05 15:23:09 +0000";
layers = (
{
layerId = "6932EABA-00D8-4526-96D6-87ADD7AC589E";
paths = (
{
closed = 1;
nodes = (
"324 -9 OFFCURVE",
"388 47 OFFCURVE",
"388 222 CURVE SMOOTH",
"388 507 LINE SMOOTH",
"388 682 OFFCURVE",
"324 738 OFFCURVE",
"228 739 CURVE SMOOTH",
"132 738 OFFCURVE",
"68 682 OFFCURVE",
"68 507 CURVE SMOOTH",
"68 222 LINE SMOOTH",
"68 47 OFFCURVE",
"132 -9 OFFCURVE",
"228 -10 CURVE SMOOTH"
);
},
{
closed = 1;
nodes = (
"336 -167 LINE",
"336 -139 LINE",
"243 -139 LINE",
"243 4 LINE",
"214 4 LINE",
"214 -126 LINE SMOOTH",
"214 -151 OFFCURVE",
"225 -167 OFFCURVE",
"253 -167 CURVE SMOOTH"
);
},
{
closed = 1;
nodes = (
"124 18 OFFCURVE",
"99 100 OFFCURVE",
"99 223 CURVE SMOOTH",
"99 506 LINE SMOOTH",
"99 629 OFFCURVE",
"124 711 OFFCURVE",
"228 711 CURVE SMOOTH",
"332 711 OFFCURVE",
"357 629 OFFCURVE",
"357 506 CURVE SMOOTH",
"357 223 LINE SMOOTH",
"357 100 OFFCURVE",
"332 18 OFFCURVE",
"228 18 CURVE SMOOTH"
);
}
);
width = 456;
},
{
layerId = "E787E54A-EE3E-475A-BF02-8501A6DA5144";
paths = (
{
closed = 1;
nodes = (
"419 -10 OFFCURVE",
"505 63 OFFCURVE",
"505 252 CURVE SMOOTH",
"505 477 LINE SMOOTH",
"505 666 OFFCURVE",
"419 739 OFFCURVE",
"266 739 CURVE SMOOTH",
"113 739 OFFCURVE",
"27 666 OFFCURVE",
"27 477 CURVE SMOOTH",
"27 252 LINE SMOOTH",
"27 63 OFFCURVE",
"113 -10 OFFCURVE",
"266 -10 CURVE SMOOTH"
);
},
{
closed = 1;
nodes = (
"449 -167 LINE",
"449 -53 LINE",
"346 -53 LINE",
"346 30 LINE",
"200 30 LINE",
"200 -74 LINE SMOOTH",
"200 -130 OFFCURVE",
"242 -167 OFFCURVE",
"305 -167 CURVE SMOOTH"
);
},
{
closed = 1;
nodes = (
"229 136 OFFCURVE",
"205 156 OFFCURVE",
"205 227 CURVE SMOOTH",
"205 502 LINE SMOOTH",
"205 573 OFFCURVE",
"229 593 OFFCURVE",
"266 593 CURVE SMOOTH",
"303 593 OFFCURVE",
"327 573 OFFCURVE",
"327 502 CURVE SMOOTH",
"327 227 LINE SMOOTH",
"327 156 OFFCURVE",
"303 136 OFFCURVE",
"266 136 CURVE SMOOTH"
);
}
);
width = 532;
},
{
layerId = "B743CB11-DC16-45F2-BA04-3635CB00F7DA";
paths = (
{
closed = 1;
nodes = (
"594 -10 OFFCURVE",
"730 109 OFFCURVE",
"730 361 CURVE SMOOTH",
"730 366 LINE SMOOTH",
"730 610 OFFCURVE",
"603 738 OFFCURVE",
"395 738 CURVE SMOOTH",
"187 738 OFFCURVE",
"60 610 OFFCURVE",
"60 366 CURVE SMOOTH",
"60 361 LINE SMOOTH",
"60 109 OFFCURVE",
"196 -10 OFFCURVE",
"395 -10 CURVE SMOOTH"
);
},
{
closed = 1;
nodes = (
"639 -167 LINE",
"639 -133 LINE",
"416 -133 LINE",
"416 4 LINE",
"377 4 LINE",
"377 -113 LINE SMOOTH",
"377 -147 OFFCURVE",
"390 -167 OFFCURVE",
"433 -167 CURVE SMOOTH"
);
},
{
closed = 1;
nodes = (
"203 26 OFFCURVE",
"103 148 OFFCURVE",
"103 316 CURVE SMOOTH",
"103 412 LINE SMOOTH",
"103 580 OFFCURVE",
"203 702 OFFCURVE",
"395 702 CURVE SMOOTH",
"587 702 OFFCURVE",
"687 580 OFFCURVE",
"687 412 CURVE SMOOTH",
"687 316 LINE SMOOTH",
"687 148 OFFCURVE",
"587 26 OFFCURVE",
"395 26 CURVE SMOOTH"
);
}
);
width = 791;
},
{
layerId = "3257632A-050A-40C2-B21A-C728868BC46F";
paths = (
{
closed = 1;
nodes = (
"391 -11 OFFCURVE",
"478 58 OFFCURVE",
"507 226 CURVE SMOOTH",
"547 457 LINE SMOOTH",
"580 645 OFFCURVE",
"505 740 OFFCURVE",
"315 740 CURVE SMOOTH",
"183 740 OFFCURVE",
"96 672 OFFCURVE",
"67 501 CURVE SMOOTH",
"27 270 LINE SMOOTH",
"-5 88 OFFCURVE",
"66 -11 OFFCURVE",
"258 -11 CURVE SMOOTH"
);
},
{
closed = 1;
nodes = (
"372 -167 LINE",
"392 -53 LINE",
"285 -53 LINE",
"303 30 LINE",
"157 30 LINE",
"139 -74 LINE SMOOTH",
"129 -130 OFFCURVE",
"165 -167 OFFCURVE",
"228 -167 CURVE SMOOTH"
);
},
{
closed = 1;
nodes = (
"202 136 OFFCURVE",
"187 165 OFFCURVE",
"197 222 CURVE SMOOTH",
"249 520 LINE SMOOTH",
"259 577 OFFCURVE",
"285 592 OFFCURVE",
"317 592 CURVE SMOOTH",
"372 592 OFFCURVE",
"387 565 OFFCURVE",
"378 509 CURVE SMOOTH",
"325 209 LINE SMOOTH",
"316 157 OFFCURVE",
"295 136 OFFCURVE",
"258 136 CURVE SMOOTH"
);
}
);
width = 542;
},
{
layerId = "84BE75FC-12C8-47E9-B302-5F6D56903923";
paths = (
{
closed = 1;
nodes = (
"281 -9 OFFCURVE",
"336 29 OFFCURVE",
"364 181 CURVE SMOOTH",
"425 523 LINE SMOOTH",
"448 653 OFFCURVE",
"408 739 OFFCURVE",
"291 739 CURVE SMOOTH",
"203 739 OFFCURVE",
"146 701 OFFCURVE",
"119 549 CURVE SMOOTH",
"59 207 LINE SMOOTH",
"36 77 OFFCURVE",
"76 -9 OFFCURVE",
"193 -9 CURVE SMOOTH"
);
},
{
closed = 1;
nodes = (
"258 -167 LINE",
"263 -139 LINE",
"171 -139 LINE",
"200 4 LINE",
"170 4 LINE",
"143 -126 LINE SMOOTH",
"138 -151 OFFCURVE",
"147 -167 OFFCURVE",
"175 -167 CURVE SMOOTH"
);
},
{
closed = 1;
nodes = (
"109 18 OFFCURVE",
"65 70 OFFCURVE",
"88 202 CURVE SMOOTH",
"149 546 LINE SMOOTH",
"169 659 OFFCURVE",
"201 712 OFFCURVE",
"292 712 CURVE SMOOTH",
"375 712 OFFCURVE",
"418 660 OFFCURVE",
"395 528 CURVE SMOOTH",
"334 184 LINE SMOOTH",
"313 71 OFFCURVE",
"283 18 OFFCURVE",
"192 18 CURVE SMOOTH"
);
}
);
width = 446;
},
{
layerId = "33C7CA81-8DED-4513-9072-CA0E40765DD9";
paths = (
{
closed = 1;
nodes = (
"640 -10 OFFCURVE",
"762 176 OFFCURVE",
"762 415 CURVE SMOOTH",
"762 423 LINE SMOOTH",
"762 623 OFFCURVE",
"631 739 OFFCURVE",
"433 739 CURVE SMOOTH",
"202 739 OFFCURVE",
"80 553 OFFCURVE",
"80 314 CURVE SMOOTH",
"80 306 LINE SMOOTH",
"80 106 OFFCURVE",
"211 -10 OFFCURVE",
"409 -10 CURVE SMOOTH"
);
},
{
closed = 1;
nodes = (
"570 -167 LINE",
"576 -134 LINE",
"373 -134 LINE",
"403 4 LINE",
"366 3 LINE",
"340 -115 LINE SMOOTH",
"333 -148 OFFCURVE",
"344 -167 OFFCURVE",
"387 -167 CURVE SMOOTH"
);
},
{
closed = 1;
nodes = (
"214 26 OFFCURVE",
"93 152 OFFCURVE",
"124 353 CURVE SMOOTH",
"140 449 LINE SMOOTH",
"166 599 OFFCURVE",
"265 703 OFFCURVE",
"433 703 CURVE SMOOTH",
"628 703 OFFCURVE",
"751 577 OFFCURVE",
"718 376 CURVE SMOOTH",
"702 280 LINE SMOOTH",
"677 130 OFFCURVE",
"577 26 OFFCURVE",
"409 26 CURVE SMOOTH"
);
}
);
width = 805;
},
{
layerId = "46C13DED-2BAB-471A-8D19-A1FA49A5501E";
paths = (
{
closed = 1;
nodes = (
"717 -10 OFFCURVE",
"867 152 OFFCURVE",
"867 392 CURVE SMOOTH",
"867 398 LINE SMOOTH",
"865 618 OFFCURVE",
"709 739 OFFCURVE",
"477 739 CURVE SMOOTH",
"230 739 OFFCURVE",
"80 577 OFFCURVE",
"80 337 CURVE SMOOTH",
"80 331 LINE SMOOTH",
"82 111 OFFCURVE",
"238 -10 OFFCURVE",
"470 -10 CURVE SMOOTH"
);
},
{
closed = 1;
nodes = (
"663 -167 LINE",
"669 -132 LINE",
"424 -132 LINE",
"448 4 LINE",
"409 3 LINE",
"387 -112 LINE SMOOTH",
"381 -146 OFFCURVE",
"400 -167 OFFCURVE",
"444 -167 CURVE SMOOTH"
);
},
{
closed = 1;
nodes = (
"253 27 OFFCURVE",
"96 152 OFFCURVE",
"125 354 CURVE SMOOTH",
"137 438 LINE SMOOTH",
"162 611 OFFCURVE",
"290 702 OFFCURVE",
"477 702 CURVE SMOOTH",
"694 702 OFFCURVE",
"851 577 OFFCURVE",
"822 375 CURVE SMOOTH",
"810 291 LINE SMOOTH",
"785 118 OFFCURVE",
"657 27 OFFCURVE",
"470 27 CURVE SMOOTH"
);
}
);
width = 910;
},
{
layerId = "C1814757-B5F7-4D49-B715-04BFD84ECCF6";
paths = (
{
closed = 1;
nodes = (
"696 -10 OFFCURVE",
"854 121 OFFCURVE",
"854 362 CURVE SMOOTH",
"854 366 LINE SMOOTH",
"854 607 OFFCURVE",
"696 738 OFFCURVE",
"456 738 CURVE SMOOTH",
"216 738 OFFCURVE",
"58 607 OFFCURVE",
"58 366 CURVE SMOOTH",
"58 362 LINE SMOOTH",
"58 121 OFFCURVE",
"216 -10 OFFCURVE",
"456 -10 CURVE SMOOTH"
);
},
{
closed = 1;
nodes = (
"760 -167 LINE",
"760 -131 LINE",
"485 -131 LINE",
"485 4 LINE",
"444 3 LINE",
"444 -111 LINE SMOOTH",
"444 -147 OFFCURVE",
"460 -167 OFFCURVE",
"510 -167 CURVE SMOOTH"
);
},
{
closed = 1;
nodes = (
"216 28 OFFCURVE",
"103 164 OFFCURVE",
"103 336 CURVE SMOOTH",
"103 392 LINE SMOOTH",
"103 570 OFFCURVE",
"216 700 OFFCURVE",
"456 700 CURVE SMOOTH",
"696 700 OFFCURVE",
"809 570 OFFCURVE",
"809 392 CURVE SMOOTH",
"809 336 LINE SMOOTH",
"809 164 OFFCURVE",
"696 28 OFFCURVE",
"456 28 CURVE SMOOTH"
);
}
);
width = 912;
},
{
layerId = "8B1B4E65-9831-4464-9A92-CA98D2219836";
paths = (
{
closed = 1;
nodes = (
"629 21 OFFCURVE",
"760 146 OFFCURVE",
"760 368 CURVE SMOOTH",
"760 370 LINE SMOOTH",
"760 610 OFFCURVE",
"615 738 OFFCURVE",
"395 738 CURVE SMOOTH",
"175 738 OFFCURVE",
"31 610 OFFCURVE",
"31 370 CURVE SMOOTH",
"31 368 LINE SMOOTH",
"31 146 OFFCURVE",
"161 21 OFFCURVE",
"395 21 CURVE SMOOTH"
);
},
{
closed = 1;
nodes = (
"674 -168 LINE",
"674 -14 LINE",
"486 -14 LINE",
"486 35 LINE",
"312 35 LINE",
"311 -75 LINE SMOOTH",
"310 -130 OFFCURVE",
"350 -168 OFFCURVE",
"417 -168 CURVE SMOOTH"
);
},
{
closed = 1;
nodes = (
"312 194 OFFCURVE",
"255 234 OFFCURVE",
"255 324 CURVE SMOOTH",
"255 424 LINE SMOOTH",
"255 502 OFFCURVE",
"299 554 OFFCURVE",
"396 554 CURVE SMOOTH",
"493 554 OFFCURVE",
"537 502 OFFCURVE",
"537 424 CURVE SMOOTH",
"537 324 LINE SMOOTH",
"537 234 OFFCURVE",
"480 194 OFFCURVE",
"396 194 CURVE SMOOTH"
);
}
);
width = 791;
},
{
layerId = "2359B287-0F82-447F-8C68-59A72835D733";
paths = (
{
closed = 1;
nodes = (
"631 10 OFFCURVE",
"774 165 OFFCURVE",
"774 420 CURVE SMOOTH",
"774 429 LINE SMOOTH",
"774 615 OFFCURVE",
"638 739 OFFCURVE",
"435 739 CURVE SMOOTH",
"193 739 OFFCURVE",
"50 584 OFFCURVE",
"50 329 CURVE SMOOTH",
"50 320 LINE SMOOTH",
"50 134 OFFCURVE",
"186 10 OFFCURVE",
"389 10 CURVE SMOOTH"
);
},
{
closed = 1;
nodes = (
"604 -178 LINE",
"627 -44 LINE",
"449 -44 LINE",
"461 25 LINE",
"288 25 LINE",
"273 -59 LINE SMOOTH",
"260 -130 OFFCURVE",
"301 -178 OFFCURVE",
"386 -178 CURVE SMOOTH"
);
},
{
closed = 1;
nodes = (
"297 183 OFFCURVE",
"246 242 OFFCURVE",
"266 356 CURVE SMOOTH",
"281 442 LINE SMOOTH",
"296 526 OFFCURVE",
"341 566 OFFCURVE",
"424 566 CURVE SMOOTH",
"529 566 OFFCURVE",
"577 501 OFFCURVE",
"558 393 CURVE SMOOTH",
"543 307 LINE SMOOTH",
"527 218 OFFCURVE",
"479 183 OFFCURVE",
"400 183 CURVE SMOOTH"
);
}
);
width = 789;
},
{
layerId = "46DCD09A-F85A-41B9-8FAA-640012B7D4F4";
paths = (
{
closed = 1;
nodes = (
"739 1 OFFCURVE",
"917 131 OFFCURVE",
"917 361 CURVE SMOOTH",
"917 380 LINE SMOOTH",
"917 594 OFFCURVE",
"757 739 OFFCURVE",
"472 739 CURVE SMOOTH",
"205 739 OFFCURVE",
"28 609 OFFCURVE",
"28 380 CURVE SMOOTH",
"28 361 LINE SMOOTH",
"28 146 OFFCURVE",
"188 1 OFFCURVE",
"472 1 CURVE SMOOTH"
);
},
{
closed = 1;
nodes = (
"768 -182 LINE",
"768 -39 LINE",
"565 -39 LINE",
"565 25 LINE",
"372 25 LINE",
"372 -72 LINE SMOOTH",
"372 -136 OFFCURVE",
"413 -182 OFFCURVE",
"508 -182 CURVE SMOOTH"
);
},
{
closed = 1;
nodes = (
"345 179 OFFCURVE",
"284 240 OFFCURVE",
"284 323 CURVE SMOOTH",
"284 406 LINE SMOOTH",
"284 489 OFFCURVE",
"345 550 OFFCURVE",
"472 550 CURVE SMOOTH",
"599 550 OFFCURVE",
"660 489 OFFCURVE",
"660 406 CURVE SMOOTH",
"660 323 LINE SMOOTH",
"660 240 OFFCURVE",
"599 179 OFFCURVE",
"472 179 CURVE SMOOTH"
);
}
);
width = 945;
},
{
layerId = "0D69E86C-407B-4861-9815-978EE2313DB2";
paths = (
{
closed = 1;
nodes = (
"746 1 OFFCURVE",
"901 151 OFFCURVE",
"901 376 CURVE SMOOTH",
"901 383 LINE SMOOTH",
"899 591 OFFCURVE",
"744 739 OFFCURVE",
"477 739 CURVE SMOOTH",
"220 739 OFFCURVE",
"49 590 OFFCURVE",
"49 353 CURVE SMOOTH",
"49 346 LINE SMOOTH",
"51 140 OFFCURVE",
"202 1 OFFCURVE",
"472 1 CURVE SMOOTH"
);
},
{
closed = 1;
nodes = (
"692 -179 LINE",
"716 -41 LINE",
"520 -41 LINE",
"531 27 LINE",
"341 27 LINE",
"323 -63 LINE SMOOTH",
"310 -132 OFFCURVE",
"358 -179 OFFCURVE",
"440 -179 CURVE SMOOTH"
);
},
{
closed = 1;
nodes = (
"360 176 OFFCURVE",
"277 221 OFFCURVE",
"293 329 CURVE SMOOTH",
"307 427 LINE SMOOTH",
"319 513 OFFCURVE",
"383 553 OFFCURVE",
"477 553 CURVE SMOOTH",
"589 553 OFFCURVE",
"672 508 OFFCURVE",
"656 400 CURVE SMOOTH",
"642 302 LINE SMOOTH",
"630 216 OFFCURVE",
"566 176 OFFCURVE",
"472 176 CURVE SMOOTH"
);
}
);
width = 918;
}
);
leftKerningGroup = C;
leftMetricsKey = O;
rightKerningGroup = D;
rightMetricsKey = O;
unicode = 0051;
},
{
glyphname = R;
lastChange = "2022-06-06 09:46:41 +0000";
layers = (
{
anchors = (
{
name = bottom;
position = "{205, 0}";
},
{
name = top;
position = "{195, 729}";
}
);
layerId = "6932EABA-00D8-4526-96D6-87ADD7AC589E";
paths = (
{
closed = 1;
nodes = (
"119 0 LINE",
"119 713 LINE",
"106 701 LINE",
"194 701 LINE SMOOTH",
"288 701 OFFCURVE",
"324 644 OFFCURVE",
"324 558 CURVE SMOOTH",
"324 506 LINE SMOOTH",
"324 420 OFFCURVE",
"288 363 OFFCURVE",
"194 363 CURVE SMOOTH",
"112 363 LINE",
"112 335 LINE",
"193 335 LINE",
"325 0 LINE",
"359 0 LINE",
"220 352 LINE",
"220 336 LINE",
"305 345 OFFCURVE",
"355 402 OFFCURVE",
"355 532 CURVE SMOOTH",
"355 674 OFFCURVE",
"296 729 OFFCURVE",
"194 729 CURVE SMOOTH",
"88 729 LINE",
"88 0 LINE"
);
}
);
width = 407;
},
{
anchors = (
{
name = bottom;
position = "{265, 0}";
},
{
name = top;
position = "{245, 729}";
}
);
layerId = "E787E54A-EE3E-475A-BF02-8501A6DA5144";
paths = (
{
closed = 1;
nodes = (
"213 0 LINE",
"213 610 LINE",
"192 586 LINE",
"261 586 LINE SMOOTH",
"297 586 OFFCURVE",
"321 565 OFFCURVE",
"321 520 CURVE SMOOTH",
"321 472 LINE SMOOTH",
"321 429 OFFCURVE",
"302 401 OFFCURVE",
"261 401 CURVE SMOOTH",
"197 401 LINE",
"197 262 LINE",
"235 262 LINE",
"312 0 LINE",
"501 0 LINE",
"388 327 LINE",
"375 290 LINE",
"458 315 OFFCURVE",
"499 386 OFFCURVE",
"499 495 CURVE SMOOTH",
"499 653 OFFCURVE",
"423 729 OFFCURVE",
"262 729 CURVE SMOOTH",
"35 729 LINE",
"35 0 LINE"
);
}
);
width = 514;
},
{
anchors = (
{
name = bottom;
position = "{397, 0}";
},
{
name = top;
position = "{367, 729}";
}
);
layerId = "B743CB11-DC16-45F2-BA04-3635CB00F7DA";
paths = (
{
closed = 1;
nodes = (
"173 0 LINE",
"173 720 LINE",
"146 693 LINE",
"419 693 LINE SMOOTH",
"543 693 OFFCURVE",
"616 640 OFFCURVE",
"616 545 CURVE SMOOTH",
"616 482 LINE SMOOTH",
"616 384 OFFCURVE",
"538 334 OFFCURVE",
"419 334 CURVE SMOOTH",
"164 334 LINE",
"164 297 LINE",
"405 297 LINE",
"618 0 LINE",
"666 0 LINE",
"445 309 LINE",
"438 297 LINE",
"586 301 OFFCURVE",
"659 385 OFFCURVE",
"659 513 CURVE SMOOTH",
"659 653 OFFCURVE",
"576 729 OFFCURVE",
"426 729 CURVE SMOOTH",
"134 729 LINE",
"134 0 LINE"
);
}
);
width = 744;
},
{
anchors = (
{
name = bottom;
position = "{218, 0}";
},
{
name = top;
position = "{294, 729}";
}
);
background = {
paths = (
{
closed = 1;
nodes = (
"460 340 OFFCURVE",
"513 401 OFFCURVE",
"531 505 CURVE SMOOTH",
"557 653 OFFCURVE",
"494 729 OFFCURVE",
"333 729 CURVE SMOOTH",
"116 729 LINE",
"-12 0 LINE",
"166 0 LINE",
"214 272 LINE",
"254 272 LINE",
"393 315 LINE"
);
},
{
closed = 1;
nodes = (
"271 596 LINE",
"312 596 LINE SMOOTH",
"350 596 OFFCURVE",
"370 584 OFFCURVE",
"361 535 CURVE SMOOTH",
"349 467 LINE SMOOTH",
"342 427 OFFCURVE",
"325 401 OFFCURVE",
"277 401 CURVE SMOOTH",
"236 401 LINE"
);
}
);
};
layerId = "3257632A-050A-40C2-B21A-C728868BC46F";
paths = (
{
closed = 1;
nodes = (
"166 0 LINE",
"275 620 LINE",
"241 586 LINE",
"305 586 LINE SMOOTH",
"341 586 OFFCURVE",
"362 568 OFFCURVE",
"351 509 CURVE SMOOTH",
"343 464 LINE SMOOTH",
"336 424 OFFCURVE",
"321 401 OFFCURVE",
"272 401 CURVE SMOOTH",
"221 401 LINE",
"196 262 LINE",
"230 262 LINE",
"275 0 LINE",
"456 0 LINE",
"386 334 LINE",
"361 296 LINE",
"462 308 OFFCURVE",
"527 401 OFFCURVE",
"527 541 CURVE SMOOTH",
"527 654 OFFCURVE",
"464 729 OFFCURVE",
"329 729 CURVE SMOOTH",
"116 729 LINE",
"-12 0 LINE"
);
}
);
width = 511;
},
{
anchors = (
{
name = bottom;
position = "{181, 0}";
},
{
name = top;
position = "{289, 729}";
}
);
background = {
paths = (
{
closed = 1;
nodes = (
"322 345 OFFCURVE",
"381 402 OFFCURVE",
"405 532 CURVE SMOOTH",
"430 674 OFFCURVE",
"380 729 OFFCURVE",
"278 729 CURVE SMOOTH",
"172 729 LINE",
"44 0 LINE",
"75 0 LINE",
"134 335 LINE",
"216 335 LINE",
"233 336 LINE"
);
},
{
closed = 1;
nodes = (
"198 701 LINE",
"273 701 LINE SMOOTH",
"367 701 OFFCURVE",
"393 644 OFFCURVE",
"378 558 CURVE SMOOTH",
"369 506 LINE SMOOTH",
"354 420 OFFCURVE",
"308 363 OFFCURVE",
"214 363 CURVE SMOOTH",
"139 363 LINE"
);
},
{
closed = 1;
nodes = (
"281 0 LINE",
"315 0 LINE",
"239 345 LINE",
"206 343 LINE"
);
}
);
};
layerId = "84BE75FC-12C8-47E9-B302-5F6D56903923";
paths = (
{
closed = 1;
nodes = (
"75 0 LINE",
"201 716 LINE",
"184 701 LINE",
"272 701 LINE SMOOTH",
"366 701 OFFCURVE",
"391 633 OFFCURVE",
"376 547 CURVE SMOOTH",
"367 495 LINE SMOOTH",
"352 410 OFFCURVE",
"307 362 OFFCURVE",
"214 362 CURVE SMOOTH",
"132 362 LINE",
"127 335 LINE",
"209 335 LINE",
"283 0 LINE",
"315 0 LINE",
"238 347 LINE",
"232 336 LINE",
"325 342 OFFCURVE",
"381 394 OFFCURVE",
"402 517 CURVE SMOOTH",
"427 661 OFFCURVE",
"378 729 OFFCURVE",
"278 729 CURVE SMOOTH",
"172 729 LINE",
"43 0 LINE"
);
}
);
width = 408;
},
{
anchors = (
{
name = bottom;
position = "{351, 0}";
},
{
name = top;
position = "{439, 729}";
}
);
background = {
paths = (
{
closed = 1;
nodes = (
"594 302 OFFCURVE",
"683 386 OFFCURVE",
"705 513 CURVE SMOOTH",
"730 653 OFFCURVE",
"660 729 OFFCURVE",
"510 729 CURVE SMOOTH",
"218 729 LINE",
"90 0 LINE",
"129 0 LINE",
"181 297 LINE",
"425 297 LINE",
"446 297 LINE SMOOTH"
);
},
{
closed = 1;
nodes = (
"251 693 LINE",
"497 693 LINE SMOOTH",
"621 693 OFFCURVE",
"685 640 OFFCURVE",
"668 545 CURVE SMOOTH",
"657 482 LINE SMOOTH",
"639 384 OFFCURVE",
"553 334 OFFCURVE",
"434 334 CURVE SMOOTH",
"188 334 LINE"
);
},
{
closed = 1;
nodes = (
"574 0 LINE",
"622 0 LINE",
"454 308 LINE",
"407 307 LINE"
);
},
{
closed = 1;
nodes = (
"574 0 LINE",
"622 0 LINE",
"454 308 LINE",
"407 307 LINE"
);
}
);
};
layerId = "33C7CA81-8DED-4513-9072-CA0E40765DD9";
paths = (
{
closed = 1;
nodes = (
"126 0 LINE",
"255 720 LINE",
"223 694 LINE",
"516 694 LINE SMOOTH",
"630 694 OFFCURVE",
"686 633 OFFCURVE",
"673 544 CURVE SMOOTH",
"664 481 LINE SMOOTH",
"651 391 OFFCURVE",
"575 332 OFFCURVE",
"458 332 CURVE SMOOTH",
"176 332 LINE",
"170 297 LINE",
"418 297 LINE",
"580 0 LINE",
"622 0 LINE",
"454 307 LINE",
"448 297 LINE",
"608 295 OFFCURVE",
"708 385 OFFCURVE",
"712 533 CURVE SMOOTH",
"717 654 OFFCURVE",
"652 729 OFFCURVE",
"520 729 CURVE SMOOTH",
"220 729 LINE",
"89 0 LINE"
);
}
);
width = 734;
},
{
anchors = (
{
name = bottom;
position = "{369, 0}";
},
{
name = top;
position = "{447, 729}";
}
);
background = {
paths = (
{
closed = 1;
nodes = (
"86 0 LINE",
"136 287 LINE",
"434 287 LINE",
"623 0 LINE",
"673 0 LINE",
"484 287 LINE",
"625 288 OFFCURVE",
"731 359 OFFCURVE",
"757 509 CURVE SMOOTH",
"781 641 OFFCURVE",
"720 729 OFFCURVE",
"559 729 CURVE SMOOTH",
"175 729 LINE",
"47 0 LINE"
);
},
{
closed = 1;
nodes = (
"207 690 LINE",
"552 690 LINE SMOOTH",
"668 690 OFFCURVE",
"736 638 OFFCURVE",
"717 530 CURVE SMOOTH",
"709 485 LINE SMOOTH",
"693 395 OFFCURVE",
"627 325 OFFCURVE",
"488 325 CURVE SMOOTH",
"143 325 LINE"
);
}
);
};
layerId = "46C13DED-2BAB-471A-8D19-A1FA49A5501E";
paths = (
{
closed = 1;
nodes = (
"103 0 LINE",
"231 718 LINE",
"199 692 LINE",
"564 692 LINE SMOOTH",
"686 692 OFFCURVE",
"761 630 OFFCURVE",
"747 527 CURVE SMOOTH",
"739 470 LINE SMOOTH",
"725 370 OFFCURVE",
"633 324 OFFCURVE",
"508 324 CURVE SMOOTH",
"151 324 LINE",
"144 286 LINE",
"437 286 LINE",
"624 0 LINE",
"673 0 LINE",
"475 299 LINE",
"468 286 LINE",
"681 281 OFFCURVE",
"790 366 OFFCURVE",
"790 528 CURVE SMOOTH",
"790 666 OFFCURVE",
"699 729 OFFCURVE",
"568 729 CURVE SMOOTH",
"194 729 LINE",
"64 0 LINE"
);
}
);
width = 788;
},
{
anchors = (
{
name = bottom;
position = "{414, 0}";
},
{
name = top;
position = "{383, 729}";
}
);
background = {
paths = (
{
closed = 1;
nodes = (
"148 0 LINE",
"148 690 LINE",
"493 690 LINE SMOOTH",
"609 690 OFFCURVE",
"686 648 OFFCURVE",
"686 540 CURVE SMOOTH",
"686 475 LINE SMOOTH",
"686 385 OFFCURVE",
"632 325 OFFCURVE",
"493 325 CURVE SMOOTH",
"139 325 LINE",
"139 287 LINE",
"493 287 LINE SMOOTH",
"634 287 OFFCURVE",
"730 349 OFFCURVE",
"730 509 CURVE SMOOTH",
"730 641 OFFCURVE",
"663 729 OFFCURVE",
"493 729 CURVE SMOOTH",
"109 729 LINE",
"109 0 LINE"
);
},
{
closed = 1;
nodes = (
"685 0 LINE",
"735 0 LINE",
"478 308 LINE",
"428 308 LINE"
);
}
);
};
layerId = "C1814757-B5F7-4D49-B715-04BFD84ECCF6";
paths = (
{
closed = 1;
nodes = (
"148 0 LINE",
"148 717 LINE",
"121 690 LINE",
"493 690 LINE SMOOTH",
"609 690 OFFCURVE",
"686 638 OFFCURVE",
"686 530 CURVE SMOOTH",
"686 485 LINE SMOOTH",
"686 395 OFFCURVE",
"632 325 OFFCURVE",
"493 325 CURVE SMOOTH",
"139 325 LINE",
"139 287 LINE",
"446 287 LINE",
"685 0 LINE",
"735 0 LINE",
"485 300 LINE",
"485 287 LINE",
"631 284 OFFCURVE",
"730 355 OFFCURVE",
"730 509 CURVE SMOOTH",
"730 641 OFFCURVE",
"654 729 OFFCURVE",
"493 729 CURVE SMOOTH",
"109 729 LINE",
"109 0 LINE"
);
}
);
width = 790;
},
{
anchors = (
{
name = bottom;
position = "{378, 0}";
},
{
name = top;
position = "{359, 729}";
}
);
background = {
paths = (
{
closed = 1;
nodes = (
"276 0 LINE",
"276 279 LINE",
"501 279 LINE",
"501 0 LINE",
"713 0 LINE",
"713 729 LINE",
"501 729 LINE",
"501 459 LINE",
"276 459 LINE",
"276 729 LINE",
"63 729 LINE",
"63 0 LINE"
);
}
);
};
layerId = "8B1B4E65-9831-4464-9A92-CA98D2219836";
paths = (
{
closed = 1;
nodes = (
"276 0 LINE",
"276 576 LINE",
"249 547 LINE",
"392 547 LINE SMOOTH",
"443 547 OFFCURVE",
"477 525 OFFCURVE",
"477 483 CURVE SMOOTH",
"477 465 LINE SMOOTH",
"477 427 OFFCURVE",
"450 401 OFFCURVE",
"392 401 CURVE SMOOTH",
"260 401 LINE",
"260 244 LINE",
"332 244 LINE",
"463 0 LINE",
"711 0 LINE",
"535 305 LINE",
"523 273 LINE",
"631 295 OFFCURVE",
"701 376 OFFCURVE",
"701 489 CURVE SMOOTH",
"701 632 OFFCURVE",
"614 729 OFFCURVE",
"430 729 CURVE SMOOTH",
"63 729 LINE",
"63 0 LINE"
);
}
);
width = 740;
},
{
anchors = (
{
name = bottom;
position = "{352, 0}";
},
{
name = top;
position = "{452, 729}";
}
);
background = {
paths = (
{
closed = 1;
nodes = (
"233 0 LINE",
"276 244 LINE",
"332 244 LINE",
"420 0 LINE",
"668 0 LINE",
"555 280 LINE",
"653 309 OFFCURVE",
"726 386 OFFCURVE",
"744 489 CURVE SMOOTH",
"769 632 OFFCURVE",
"699 729 OFFCURVE",
"515 729 CURVE SMOOTH",
"148 729 LINE",
"20 0 LINE"
);
},
{
closed = 1;
nodes = (
"329 547 LINE",
"445 547 LINE SMOOTH",
"496 547 OFFCURVE",
"526 525 OFFCURVE",
"519 483 CURVE SMOOTH",
"516 465 LINE SMOOTH",
"509 427 OFFCURVE",
"477 401 OFFCURVE",
"419 401 CURVE SMOOTH",
"303 401 LINE"
);
}
);
};
layerId = "2359B287-0F82-447F-8C68-59A72835D733";
paths = (
{
closed = 1;
nodes = (
"236 0 LINE",
"339 585 LINE",
"299 547 LINE",
"442 547 LINE SMOOTH",
"485 547 OFFCURVE",
"519 526 OFFCURVE",
"512 482 CURVE SMOOTH",
"508 456 LINE SMOOTH",
"501 413 OFFCURVE",
"450 401 OFFCURVE",
"413 401 CURVE SMOOTH",
"291 401 LINE",
"263 244 LINE",
"349 244 LINE",
"436 0 LINE",
"668 0 LINE",
"548 295 LINE",
"532 266 LINE",
"656 289 OFFCURVE",
"737 376 OFFCURVE",
"736 508 CURVE SMOOTH",
"736 641 OFFCURVE",
"654 729 OFFCURVE",
"480 729 CURVE SMOOTH",
"150 729 LINE",
"21 0 LINE"
);
}
);
width = 732;
},
{
anchors = (
{
name = bottom;
position = "{438, 0}";
},
{
name = top;
position = "{418, 729}";
}
);
layerId = "46DCD09A-F85A-41B9-8FAA-640012B7D4F4";
paths = (
{
closed = 1;
nodes = (
"308 0 LINE",
"308 568 LINE",
"284 543 LINE",
"485 543 LINE SMOOTH",
"542 543 OFFCURVE",
"577 528 OFFCURVE",
"577 481 CURVE SMOOTH",
"577 463 LINE SMOOTH",
"577 425 OFFCURVE",
"554 401 OFFCURVE",
"485 401 CURVE SMOOTH",
"292 401 LINE",
"292 231 LINE",
"388 231 LINE",
"550 0 LINE",
"850 0 LINE",
"628 295 LINE",
"616 267 LINE",
"752 275 OFFCURVE",
"845 358 OFFCURVE",
"845 489 CURVE SMOOTH",
"845 643 OFFCURVE",
"753 729 OFFCURVE",
"558 729 CURVE SMOOTH",
"63 729 LINE",
"63 0 LINE"
);
}
);
width = 881;
},
{
anchors = (
{
name = bottom;
position = "{381, 0}";
},
{
name = top;
position = "{482, 729}";
}
);
layerId = "0D69E86C-407B-4861-9815-978EE2313DB2";
paths = (
{
closed = 1;
nodes = (
"254 0 LINE",
"358 581 LINE",
"316 545 LINE",
"517 545 LINE SMOOTH",
"574 545 OFFCURVE",
"594 516 OFFCURVE",
"586 473 CURVE SMOOTH",
"584 458 LINE SMOOTH",
"578 425 OFFCURVE",
"548 402 OFFCURVE",
"473 402 CURVE SMOOTH",
"309 402 LINE",
"279 234 LINE",
"391 234 LINE",
"515 0 LINE",
"786 0 LINE",
"615 298 LINE",
"601 267 LINE",
"753 278 OFFCURVE",
"858 368 OFFCURVE",
"858 513 CURVE SMOOTH",
"858 638 OFFCURVE",
"776 729 OFFCURVE",
"598 729 CURVE SMOOTH",
"145 729 LINE",
"15 0 LINE"
);
}
);
width = 851;
}
);
leftKerningGroup = B;
leftMetricsKey = H;
rightKerningGroup = R;
unicode = 0052;
},
